<svg xmlns="http://www.w3.org/2000/svg" enable-background="new 0 0 1200 900" viewBox="0 0 1200 900"><path fill="#edf5fc" d="M210.093 682.68h731.683c13.289-13.732 28.136-25.891 41.883-39.152 70.741-68.244 108.11-169.59 98.603-267.422-3.477-35.784-13.985-72.88-40.053-97.64-34.537-32.803-89.744-35.992-134.024-18.435-44.28 17.555-79.424 52.328-109.92 88.92-30.495 36.591-57.908 76.127-93.211 108.104-25.454 23.056-56.858 42.516-91.201 42.733-53.433.339-95.53-44.53-125.322-88.888-29.792-44.358-57.79-94.69-106.45-116.765-35.978-16.32-78.32-14.02-115.696-1.222-94.039 32.2-159.12 133.757-149.089 232.65 2.107 20.763 7.521 41.136 15.679 60.333 16.313 38.39 43.458 72.109 77.118 96.785z"/><path fill="#9bb2e1" d="M380.519 470.543a.5.5 0 0 1-.389-.184l-3.789-4.65a.5.5 0 1 1 .776-.632l3.789 4.65a.5.5 0 0 1-.387.816zm-7.571-9.307a.5.5 0 0 1-.39-.185 1541.7 1541.7 0 0 1-3.767-4.67.5.5 0 1 1 .779-.627c1.252 1.56 2.509 3.115 3.766 4.668a.5.5 0 0 1-.388.814zm-7.514-9.355a.499.499 0 0 1-.391-.188 900.502 900.502 0 0 1-3.722-4.712.5.5 0 1 1 .787-.617 878.4 878.4 0 0 0 3.717 4.706.5.5 0 0 1-.39.811zm-7.405-9.444a.5.5 0 0 1-.396-.194 634.737 634.737 0 0 1-3.647-4.771.5.5 0 1 1 .797-.603c1.206 1.593 2.42 3.18 3.642 4.763a.5.5 0 0 1-.396.805zm-7.241-9.57a.5.5 0 0 1-.403-.203 500.224 500.224 0 0 1-3.546-4.849.5.5 0 1 1 .811-.585c1.17 1.62 2.35 3.232 3.539 4.84a.5.5 0 0 1-.401.797zm-7.024-9.734a.499.499 0 0 1-.41-.213c-1.15-1.641-2.29-3.29-3.414-4.945a.5.5 0 0 1 .827-.562 397.157 397.157 0 0 0 3.406 4.933.5.5 0 0 1-.409.787zm-6.742-9.93a.498.498 0 0 1-.418-.226 326.454 326.454 0 0 1-3.25-5.056.5.5 0 1 1 .845-.533 333.064 333.064 0 0 0 3.24 5.04.5.5 0 0 1-.417.775zm-6.396-10.157a.5.5 0 0 1-.43-.241 290.18 290.18 0 0 1-3.05-5.18.5.5 0 1 1 .866-.498c.995 1.73 2.009 3.45 3.041 5.161a.5.5 0 0 1-.427.758zm-5.979-10.405a.5.5 0 0 1-.44-.261 250.115 250.115 0 0 1-2.814-5.313.5.5 0 0 1 .89-.457 247.028 247.028 0 0 0 2.803 5.291.5.5 0 0 1-.439.74zm-5.485-10.672a.5.5 0 0 1-.451-.283 222.594 222.594 0 0 1-2.54-5.45.5.5 0 1 1 .913-.41c.809 1.8 1.66 3.625 2.527 5.425a.5.5 0 0 1-.45.718zm-4.915-10.942a.5.5 0 0 1-.462-.309 202.803 202.803 0 0 1-2.224-5.585.5.5 0 0 1 .935-.356c.704 1.85 1.449 3.72 2.213 5.558a.5.5 0 0 1-.462.692zm-4.265-11.207a.5.5 0 0 1-.473-.337 191.41 191.41 0 0 1-.621-1.828c-.425-1.27-.836-2.584-1.223-3.906a.5.5 0 1 1 .96-.282c.383 1.311.791 2.613 1.211 3.871.203.607.41 1.214.618 1.818a.5.5 0 0 1-.472.664zm-3.375-11.511a.5.5 0 0 1-.486-.384 133.661 133.661 0 0 1-1.264-5.889.5.5 0 0 1 .982-.187c.379 1.977.8 3.943 1.255 5.844a.5.5 0 0 1-.487.616zm-2.264-11.781a.5.5 0 0 1-.494-.427 158.926 158.926 0 0 1-.773-5.969.5.5 0 0 1 .994-.11c.22 1.993.478 3.988.768 5.932a.5.5 0 0 1-.495.574zm-1.32-11.925a.5.5 0 0 1-.498-.463c-.147-1.98-.262-4.001-.342-6.007a.5.5 0 0 1 .48-.52c.28-.019.508.204.52.48.079 1.994.193 4.004.339 5.973a.5.5 0 0 1-.499.537zm-.48-11.987a.5.5 0 0 1-.5-.497l-.005-1.312c0-1.562.02-3.128.059-4.699a.492.492 0 0 1 .512-.487.5.5 0 0 1 .488.512c-.04 1.562-.059 3.12-.059 4.674l.005 1.305a.5.5 0 0 1-.497.504h-.003zm551.772-6.283c-1.425 0-2.85-.014-4.273-.042a.5.5 0 0 1-.49-.51c.005-.276.196-.501.51-.49 1.993.04 3.991.05 5.984.035.265.037.502.22.504.496a.5.5 0 0 1-.496.504c-.58.004-1.159.007-1.739.007zm7.733-.14a.5.5 0 0 1-.017-.999 210.68 210.68 0 0 0 5.978-.3.5.5 0 0 1 .064.998c-1.981.128-4.002.23-6.006.301h-.019zm-17.993-.102h-.024a220.44 220.44 0 0 1-6.002-.364.5.5 0 0 1-.462-.536.494.494 0 0 1 .536-.461c1.983.147 3.994.269 5.975.362a.5.5 0 0 1-.023 1zm29.968-.67a.5.5 0 0 1-.045-.998c1.986-.186 3.988-.403 5.95-.646a.5.5 0 0 1 .123.993 203.847 203.847 0 0 1-6.028.65zm-41.933-.218c-.017 0-.034 0-.05-.002l-.73-.076a251.6 251.6 0 0 1-5.244-.605.5.5 0 1 1 .125-.992c1.738.219 3.479.42 5.224.603l.725.074a.5.5 0 0 1-.05.998zm53.844-1.254a.5.5 0 0 1-.076-.995c1.972-.304 3.957-.641 5.901-1.003a.5.5 0 1 1 .183.983c-1.954.364-3.95.703-5.932 1.009a.481.481 0 0 1-.076.006zm-65.746-.243a.51.51 0 0 1-.074-.005c-1.982-.296-3.96-.614-5.933-.953a.5.5 0 0 1 .17-.985c1.965.337 3.936.654 5.91.949a.5.5 0 0 1-.073.994zm77.545-1.954a.5.5 0 0 1-.106-.989c1.946-.426 3.906-.889 5.824-1.375a.5.5 0 0 1 .246.97c-1.929.488-3.9.954-5.857 1.382a.49.49 0 0 1-.107.012zm-89.367-.077a.512.512 0 0 1-.096-.01c-1.967-.38-3.93-.783-5.887-1.204a.5.5 0 0 1 .21-.978c1.952.42 3.908.82 5.868 1.201a.5.5 0 0 1-.095.99zm-505.525-1.049h-.028a.5.5 0 0 1-.471-.528c.112-1.987.257-4.005.432-6a.5.5 0 0 1 .997.087c-.175 1.985-.32 3.993-.431 5.97a.5.5 0 0 1-.499.471zm493.795-1.476a.492.492 0 0 1-.115-.013c-1.95-.46-3.895-.939-5.836-1.435a.5.5 0 1 1 .248-.97c1.935.496 3.874.973 5.817 1.432a.5.5 0 0 1-.114.986zm112.73-.349a.5.5 0 0 1-.138-.98c1.916-.555 3.84-1.148 5.718-1.763a.5.5 0 1 1 .312.95c-1.89.619-3.825 1.215-5.752 1.773a.5.5 0 0 1-.14.02zm-124.356-2.624a.497.497 0 0 1-.133-.018 348.15 348.15 0 0 1-5.78-1.643.5.5 0 1 1 .281-.96c1.917.563 3.838 1.11 5.764 1.639a.5.5 0 0 1-.132.982zm135.762-1.111a.5.5 0 0 1-.172-.97c1.874-.688 3.75-1.417 5.577-2.165a.5.5 0 0 1 .379.926 164.14 164.14 0 0 1-5.612 2.178.496.496 0 0 1-.172.03zM773.493 292.8a.5.5 0 0 1-.148-.023 393.287 393.287 0 0 1-5.724-1.829.5.5 0 0 1 .312-.95c1.9.623 3.802 1.23 5.709 1.824a.5.5 0 0 1-.149.978zm158.384-2.284a.5.5 0 0 1-.208-.955c1.82-.827 3.635-1.695 5.396-2.58a.5.5 0 0 1 .45.894c-1.773.89-3.6 1.764-5.432 2.596a.504.504 0 0 1-.206.045zm-169.79-1.453a.499.499 0 0 1-.162-.028 447.105 447.105 0 0 1-5.668-1.992.5.5 0 1 1 .338-.942c1.882.676 3.766 1.339 5.655 1.988a.5.5 0 0 1-.163.974zm-458.195-.39a.5.5 0 0 1-.497-.56c.237-1.983.51-3.989.81-5.963a.5.5 0 0 1 .988.15c-.298 1.964-.569 3.96-.805 5.932a.5.5 0 0 1-.496.44zm638.705-3.544a.5.5 0 0 1-.243-.937 144.502 144.502 0 0 0 5.17-3.002.5.5 0 1 1 .52.854 145.783 145.783 0 0 1-5.206 3.023.497.497 0 0 1-.241.062zm-191.807-.12a.5.5 0 0 1-.175-.032c-1.875-.7-3.747-1.412-5.615-2.135a.5.5 0 0 1 .36-.933c1.866.721 3.733 1.432 5.605 2.13a.5.5 0 0 1-.175.97zm-11.194-4.33a.502.502 0 0 1-.186-.035 607.021 607.021 0 0 1-5.565-2.257.5.5 0 0 1 .38-.925c1.849.76 3.7 1.512 5.556 2.253a.5.5 0 0 1-.185.965zm213.245-1.788a.499.499 0 0 1-.278-.916 138.335 138.335 0 0 0 4.896-3.426.5.5 0 0 1 .59.807 139.235 139.235 0 0 1-4.93 3.45.5.5 0 0 1-.278.085zm-647.14-2.084a.5.5 0 0 1-.492-.591c.367-1.982.771-3.967 1.198-5.9a.5.5 0 1 1 .977.216 178.419 178.419 0 0 0-1.193 5.866.5.5 0 0 1-.49.409zm422.795-.69a.498.498 0 0 1-.195-.04 706.164 706.164 0 0 1-5.522-2.36.5.5 0 0 1 .397-.918c1.835.793 3.673 1.579 5.514 2.356a.5.5 0 0 1-.194.961zm234.017-4.314a.499.499 0 0 1-.314-.89 133.215 133.215 0 0 0 4.573-3.842.5.5 0 0 1 .66.751 133.715 133.715 0 0 1-4.607 3.871.497.497 0 0 1-.312.11zm-245.033-.447a.499.499 0 0 1-.203-.043 860.73 860.73 0 0 1-5.483-2.444.5.5 0 1 1 .41-.912c1.823.82 3.649 1.634 5.478 2.441a.5.5 0 0 1-.202.958zm-10.946-4.92a.495.495 0 0 1-.207-.046c-1.82-.832-3.637-1.669-5.452-2.51a.5.5 0 1 1 .421-.907c1.812.84 3.628 1.676 5.447 2.508a.5.5 0 0 1-.209.954zm-398.24-1.35a.5.5 0 0 1-.485-.625 163.418 163.418 0 0 1 1.613-5.8.5.5 0 1 1 .958.286c-.56 1.88-1.1 3.819-1.603 5.763a.5.5 0 0 1-.483.375zm387.354-3.695a.499.499 0 0 1-.211-.048c-1.706-.8-3.41-1.603-5.111-2.409l-.317-.15a.5.5 0 0 1 .43-.903l.313.15c1.702.805 3.404 1.607 5.11 2.407a.5.5 0 0 1-.214.953zm-10.804-5.216a.499.499 0 0 1-.228-.055c-1.74-.89-3.528-1.836-5.316-2.81a.5.5 0 0 1 .479-.878c1.78.97 3.56 1.91 5.293 2.798a.5.5 0 0 1-.228.945zm-373.115-2.587a.499.499 0 0 1-.474-.662c.653-1.909 1.348-3.812 2.067-5.656a.5.5 0 0 1 .931.363c-.713 1.831-1.403 3.72-2.051 5.617a.5.5 0 0 1-.473.338zm362.565-3.153a.497.497 0 0 1-.249-.066 318.575 318.575 0 0 1-5.192-3.048.5.5 0 0 1 .514-.857 316.292 316.292 0 0 0 5.177 3.038.5.5 0 0 1-.25.933zm-10.313-6.175a.496.496 0 0 1-.263-.075 462.302 462.302 0 0 1-5.09-3.21.5.5 0 0 1 .54-.842c1.689 1.08 3.381 2.149 5.077 3.202a.5.5 0 0 1-.264.925zm-347.889-1.848a.5.5 0 0 1-.457-.703c.824-1.855 1.69-3.687 2.578-5.445a.5.5 0 1 1 .893.45c-.88 1.743-1.74 3.56-2.556 5.4a.5.5 0 0 1-.458.298zm337.76-4.62a.497.497 0 0 1-.273-.082 821.557 821.557 0 0 1-5.019-3.308.5.5 0 1 1 .553-.833c1.67 1.109 3.34 2.21 5.013 3.304a.5.5 0 0 1-.274.918zm-332.346-6.085a.499.499 0 0 1-.433-.75 99.85 99.85 0 0 1 3.161-5.133.5.5 0 0 1 .835.55 98.833 98.833 0 0 0-3.129 5.082.5.5 0 0 1-.434.25zm322.336-.556a.497.497 0 0 1-.278-.085 3562.36 3562.36 0 0 1-4.983-3.35.5.5 0 0 1 .558-.83 3425.29 3425.29 0 0 0 4.982 3.35.5.5 0 0 1-.28.915zm-9.962-6.703a.497.497 0 0 1-.278-.086c-1.66-1.116-3.32-2.23-4.983-3.34a.5.5 0 1 1 .555-.832c1.664 1.11 3.326 2.226 4.986 3.343a.5.5 0 0 1-.28.915zm-305.763-2.745a.5.5 0 0 1-.397-.803 80.716 80.716 0 0 1 3.829-4.665.5.5 0 1 1 .748.664 79.726 79.726 0 0 0-3.781 4.606.5.5 0 0 1-.399.198zm295.78-3.915a.498.498 0 0 1-.274-.083 691.763 691.763 0 0 0-5.016-3.28.5.5 0 1 1 .542-.838 693.813 693.813 0 0 1 5.024 3.283.5.5 0 0 1-.275.918zm-287.822-5.057a.498.498 0 0 1-.35-.858 97.299 97.299 0 0 1 4.445-4.073.5.5 0 1 1 .652.758 96.486 96.486 0 0 0-4.398 4.031.499.499 0 0 1-.35.142zm277.752-1.456a.499.499 0 0 1-.267-.077 425.758 425.758 0 0 0-5.084-3.162.5.5 0 1 1 .522-.853c1.703 1.042 3.402 2.1 5.096 3.17a.5.5 0 0 1-.267.922zm-10.228-6.251a.5.5 0 0 1-.254-.07 300.767 300.767 0 0 0-5.184-2.985.5.5 0 1 1 .49-.872c1.74.979 3.474 1.978 5.202 2.996a.5.5 0 0 1-.254.93zm-258.44-.12a.5.5 0 0 1-.303-.897 106.484 106.484 0 0 1 4.896-3.513.5.5 0 0 1 .56.828 106.11 106.11 0 0 0-4.851 3.48.497.497 0 0 1-.302.103zm247.992-5.75a.498.498 0 0 1-.234-.058 231.55 231.55 0 0 0-5.313-2.74.5.5 0 1 1 .446-.895c1.741.868 3.536 1.795 5.336 2.753a.5.5 0 0 1-.235.94zm-238.06-.97a.5.5 0 0 1-.258-.928 121.236 121.236 0 0 1 5.24-2.97.5.5 0 0 1 .472.882c-1.77.946-3.518 1.937-5.197 2.945a.498.498 0 0 1-.257.072zm227.338-4.374a.5.5 0 0 1-.21-.046 182.006 182.006 0 0 0-5.463-2.42.5.5 0 0 1 .39-.92 182.84 182.84 0 0 1 5.493 2.433.5.5 0 0 1-.21.953zm-216.763-1.286a.5.5 0 0 1-.216-.951c1.78-.848 3.627-1.679 5.491-2.47a.501.501 0 0 1 .39.92c-1.85.786-3.684 1.611-5.451 2.452a.499.499 0 0 1-.214.049zm205.726-3.375a.5.5 0 0 1-.178-.033 148.954 148.954 0 0 0-5.624-2.014.5.5 0 1 1 .319-.948c1.865.626 3.77 1.308 5.66 2.028a.5.5 0 0 1-.177.967zm-194.687-1.317a.5.5 0 0 1-.177-.968 164.903 164.903 0 0 1 5.668-2.024.5.5 0 1 1 .32.948 164.32 164.32 0 0 0-5.634 2.011.495.495 0 0 1-.177.033zm183.321-2.488a.497.497 0 0 1-.138-.02c-.815-.234-1.632-.46-2.45-.68a336.869 336.869 0 0 0-3.33-.87.5.5 0 1 1 .249-.968c1.114.285 2.227.576 3.339.873.825.22 1.648.448 2.468.684a.5.5 0 0 1-.138.98zm-171.951-1.347a.5.5 0 0 1-.144-.98 192.798 192.798 0 0 1 5.79-1.634.5.5 0 1 1 .257.966 192.229 192.229 0 0 0-5.76 1.627.498.498 0 0 1-.143.02zm160.332-1.641a.51.51 0 0 1-.115-.014c-1.944-.46-3.891-.903-5.842-1.328a.5.5 0 1 1 .213-.977c1.957.427 3.91.87 5.859 1.332a.5.5 0 0 1-.115.987zm-148.738-1.447a.5.5 0 0 1-.114-.987c1.911-.45 3.887-.888 5.871-1.301a.501.501 0 0 1 .204.979c-1.976.411-3.943.847-5.846 1.295a.505.505 0 0 1-.115.014zm137.015-1.11a.499.499 0 0 1-.098-.009c-1.959-.39-3.92-.764-5.886-1.119a.5.5 0 0 1 .178-.984c1.97.357 3.938.73 5.903 1.122a.5.5 0 0 1-.097.99zm-125.266-1.339a.5.5 0 0 1-.09-.992c1.975-.36 3.951-.7 5.925-1.015a.5.5 0 1 1 .158.987c-1.967.315-3.935.652-5.903 1.012a.495.495 0 0 1-.09.008zm113.458-.797a.476.476 0 0 1-.081-.006c-1.97-.32-3.945-.624-5.921-.91a.5.5 0 0 1 .142-.99c1.983.288 3.963.591 5.94.913a.5.5 0 0 1-.08.993zm-101.61-1.109a.5.5 0 0 1-.07-.995c1.983-.28 3.97-.541 5.957-.785a.5.5 0 0 1 .122.993c-1.982.242-3.962.504-5.94.782a.535.535 0 0 1-.07.005zm89.734-.607a.51.51 0 0 1-.064-.004c-1.98-.25-3.964-.483-5.95-.699a.5.5 0 1 1 .109-.994c1.991.216 3.98.45 5.967.701a.5.5 0 0 1-.062.996zm-77.825-.854a.5.5 0 0 1-.051-.998c1.992-.208 3.986-.399 5.98-.571a.5.5 0 1 1 .086.996c-1.988.172-3.977.362-5.962.57a.483.483 0 0 1-.053.003zm65.895-.44-.046-.003c-1.988-.18-3.978-.343-5.97-.488a.5.5 0 0 1 .073-.998c1.997.146 3.994.31 5.988.49a.5.5 0 0 1-.045.998zm-53.94-.596a.5.5 0 0 1-.034-.999 336.87 336.87 0 0 1 5.998-.358.5.5 0 1 1 .05.999 339.53 339.53 0 0 0-6.015.358zm41.973-.278a.5.5 0 0 1-6.493-.797.492.492 0 0 1 .518-.48c2.001.075 4.002.167 6.002.278a.5.5 0 0 1-.027 1zm-29.99-.332a.5.5 0 0 1-.016-1c2.002-.066 4.005-.114 6.007-.145a.515.515 0 0 1 .508.492.5.5 0 0 1-.492.508c-1.997.03-3.993.079-5.99.145h-.016zm17.998-.118h-.01a337.95 337.95 0 0 0-5.99-.067.5.5 0 0 1 0-1h.002c2.003.005 4.006.027 6.008.067a.5.5 0 0 1-.01 1z"/><path fill="#829ed9" d="M329.29 656.287v5.286c0 12.823 10.395 23.218 23.218 23.218H848.81c12.823 0 23.218-10.395 23.218-23.218v-5.286c0-3.96-3.21-7.171-7.171-7.171H336.462a7.171 7.171 0 0 0-7.172 7.171z"/><path fill="#829ed9" d="M842.621 345.336v303.78h-483.92V345.348c0-9.757 7.914-17.658 17.659-17.658h448.615c9.745 0 17.646 7.9 17.646 17.646z"/><path fill="#fff" d="M835.015 649.11V345.33c0-5.547-4.497-10.044-10.044-10.044H376.347c-5.547 0-10.043 4.497-10.043 10.044V649.11h468.71z"/><path fill="#5d81c1" d="m656.676 649.11-7.167 12.145a5.683 5.683 0 0 1-4.894 2.795h-87.91a5.683 5.683 0 0 1-4.895-2.795l-7.167-12.145h112.033z"/><path fill="#719bff" d="M802.526 635.83H398.793c-5.689 0-10.301-4.613-10.301-10.302V237.973c0-5.69 4.612-10.301 10.301-10.301h403.733c5.69 0 10.302 4.612 10.302 10.301v387.555c0 5.69-4.613 10.302-10.302 10.302z"/><path fill="#fff" d="M392.085 624.935V238.567a7.302 7.302 0 0 1 7.302-7.301h402.546a7.302 7.302 0 0 1 7.301 7.301v386.368a7.302 7.302 0 0 1-7.301 7.301H399.387a7.302 7.302 0 0 1-7.302-7.301z"/><path fill="#ffc837" d="M409.379 244.502a3.744 3.744 0 0 1-3.745 3.745c-2.077 0-3.753-1.676-3.753-3.745s1.676-3.753 3.753-3.753a3.75 3.75 0 0 1 3.745 3.753z"/><path fill="#3cd278" d="M419.32 244.502a3.744 3.744 0 0 1-3.746 3.745c-2.077 0-3.752-1.676-3.752-3.745s1.675-3.753 3.752-3.753a3.75 3.75 0 0 1 3.745 3.753z"/><path fill="#ff5252" d="M429.26 244.502a3.744 3.744 0 0 1-3.745 3.745c-2.077 0-3.753-1.676-3.753-3.745s1.676-3.753 3.753-3.753a3.75 3.75 0 0 1 3.745 3.753z"/><path fill="#ff784b" d="M697.29 260.923v47.806a6.435 6.435 0 0 1-6.441 6.432H510.47a6.435 6.435 0 0 1-6.44-6.432v-47.806a6.442 6.442 0 0 1 6.44-6.44h180.378a6.442 6.442 0 0 1 6.44 6.44z"/><path fill="#fff" d="M542.559 278.415a2.432 2.432 0 0 0-.711-.93c-.326-.256-.723-.387-1.18-.387h-.267c-.459 0-.856.131-1.18.388a2.427 2.427 0 0 0-.713.935l-6.806 16.067c-.11.262-.162.483-.162.679 0 .437.147.812.438 1.114.501.521 1.376.622 2.023.2.264-.173.467-.41.608-.716l1.639-3.933h8.573l1.644 3.946c.137.295.34.532.603.703.265.174.563.262.885.262.46 0 .842-.156 1.138-.462.29-.303.438-.678.438-1.114 0-.194-.053-.416-.163-.68l-6.807-16.072zm1.016 10.452h-6.081l3.04-7.32 3.041 7.32zM564.831 286.485a4.922 4.922 0 0 0 1.294-1.255c.533-.746.804-1.686.804-2.793 0-1.586-.57-2.868-1.696-3.81-1.105-.926-2.672-1.395-4.657-1.395h-6.298c-.443 0-.821.16-1.124.475-.3.31-.452.69-.452 1.127v16.2c0 .44.154.816.457 1.118.302.304.679.457 1.119.457h6.458c2.446 0 4.278-.496 5.445-1.475 1.187-.995 1.789-2.385 1.789-4.13 0-1.23-.38-2.267-1.126-3.083a6.076 6.076 0 0 0-2.013-1.436zm.04 4.412c0 .86-.304 1.504-.929 1.967-.651.482-1.81.727-3.446.727h-4.616v-5.362h4.642c4.35 0 4.35 2.008 4.35 2.668zm-8.99-5.606v-5.041h4.508c1.105 0 1.978.227 2.595.675.587.428.873.984.873 1.699 0 .852-.27 1.49-.826 1.954-.568.473-1.61.713-3.095.713h-4.056zM584.904 278.244c-1.45-.849-3.16-1.28-5.087-1.28-1.926 0-3.642.431-5.099 1.28a8.81 8.81 0 0 0-3.398 3.537c-.79 1.486-1.208 3.213-1.245 5.146.037 1.92.456 3.647 1.245 5.133a8.808 8.808 0 0 0 3.398 3.537c1.456.849 3.172 1.279 5.1 1.279 1.926 0 3.638-.43 5.086-1.279a8.916 8.916 0 0 0 3.397-3.55c.798-1.495 1.221-3.217 1.259-5.134-.038-1.902-.46-3.624-1.259-5.12a8.922 8.922 0 0 0-3.397-3.55zm-5.087 15.614c-1.363 0-2.55-.305-3.525-.905a5.99 5.99 0 0 1-2.25-2.464c-.523-1.045-.788-2.245-.788-3.569 0-1.322.265-2.523.788-3.568a5.994 5.994 0 0 1 2.25-2.464c.975-.6 2.162-.905 3.525-.905 1.347 0 2.53.305 3.515.906a5.969 5.969 0 0 1 2.261 2.463c.523 1.046.788 2.247.788 3.568 0 1.323-.265 2.523-.788 3.569a5.973 5.973 0 0 1-2.261 2.463c-.986.601-2.168.906-3.515.906zM606.074 277.573c-.3.311-.452.69-.452 1.128v10.621c0 .988-.226 1.835-.672 2.516a4.245 4.245 0 0 1-1.78 1.548 5.786 5.786 0 0 1-4.807 0 4.245 4.245 0 0 1-1.78-1.548c-.446-.68-.672-1.527-.672-2.516v-10.621c0-.44-.159-.821-.47-1.133-.627-.626-1.653-.623-2.257.005-.3.311-.452.69-.452 1.128v10.541c0 1.653.4 3.076 1.186 4.228a7.284 7.284 0 0 0 3.037 2.572c1.217.553 2.5.834 3.811.834s2.594-.28 3.812-.834a7.293 7.293 0 0 0 3.036-2.572c.787-1.153 1.186-2.575 1.186-4.228v-10.541c0-.44-.158-.821-.47-1.132-.624-.627-1.651-.624-2.256.004zM625.639 277.232h-13.29c-.425 0-.785.15-1.072.449a1.5 1.5 0 0 0-.424 1.073c0 .422.145.78.43 1.066.285.285.644.43 1.066.43h5.069v14.917c0 .44.154.816.457 1.119.303.303.68.457 1.119.457.437 0 .816-.153 1.127-.452.315-.304.475-.682.475-1.124V280.25h5.043c.418 0 .78-.143 1.073-.425a1.43 1.43 0 0 0 .45-1.07c0-.422-.15-.785-.445-1.08a1.476 1.476 0 0 0-1.078-.443zM649.493 277.573c-.3.311-.451.69-.451 1.128v10.621c0 .988-.227 1.835-.673 2.516a4.245 4.245 0 0 1-1.78 1.548 5.786 5.786 0 0 1-4.807 0 4.245 4.245 0 0 1-1.78-1.548c-.446-.68-.672-1.527-.672-2.516v-10.621c0-.44-.158-.821-.47-1.133-.627-.626-1.652-.623-2.256.005-.3.311-.453.69-.453 1.128v10.541c0 1.653.4 3.076 1.187 4.228a7.284 7.284 0 0 0 3.037 2.572c1.217.553 2.499.834 3.81.834 1.312 0 2.594-.28 3.812-.834a7.293 7.293 0 0 0 3.037-2.572c.787-1.153 1.186-2.575 1.186-4.228v-10.541c0-.44-.158-.821-.47-1.132-.625-.627-1.652-.624-2.257.004zM668.955 288.17a5.968 5.968 0 0 0-2.363-1.679c-.875-.343-2.036-.689-3.455-1.03-1.068-.246-1.92-.48-2.534-.696-.579-.203-1.063-.49-1.44-.851-.345-.329-.512-.751-.512-1.29 0-.828.373-1.457 1.14-1.921.818-.495 1.906-.746 3.235-.746 1.429 0 2.833.235 4.157.693.224.09.41.134.567.134.428 0 .795-.166 1.06-.48.253-.3.382-.64.382-1.016 0-.697-.344-1.188-.991-1.42-1.618-.599-3.449-.904-5.441-.904-1.508 0-2.823.26-3.91.77-1.1.518-1.947 1.228-2.517 2.111a5.378 5.378 0 0 0-.86 2.966c0 1.248.357 2.267 1.06 3.03a6.493 6.493 0 0 0 2.434 1.656c.9.35 2.09.718 3.537 1.094 1.072.281 1.907.525 2.48.725.538.187.995.446 1.356.767.32.284.474.629.474 1.054 0 .666 0 2.694-4.294 2.694-1.808 0-3.525-.357-5.106-1.062-.59-.262-1.3-.144-1.723.316a1.496 1.496 0 0 0-.405 1.04c0 .31.094.602.28.869.183.262.417.455.696.57 2.012.871 4.198 1.312 6.498 1.312 1.396 0 2.65-.235 3.724-.698 1.09-.47 1.95-1.136 2.558-1.98a4.864 4.864 0 0 0 .924-2.9c0-1.298-.34-2.35-1.01-3.128z"/><path fill="#d250dc" d="M409.379 376.423c0 22.436 18.19 40.626 40.626 40.626 22.43 0 40.62-18.19 40.62-40.626 0-22.43-18.19-40.62-40.62-40.62-22.436 0-40.626 18.19-40.626 40.62z"/><path d="M475.763 373.204a2.274 2.274 0 0 0-1.881-2.136l-2.09-.384c-.72-.139-1.355-.598-1.658-1.272-.092-.237-.218-.48-.335-.707a2.285 2.285 0 0 1 .073-2.119l1.041-1.827c.52-.93.335-2.105-.45-2.815l-4.826-4.399a2.28 2.28 0 0 0-2.839-.187l-1.735 1.198c-.609.416-1.392.531-2.082.27-.246-.087-.5-.19-.755-.278-.706-.236-1.236-.827-1.44-1.536l-.556-2.029a2.296 2.296 0 0 0-2.317-1.673l-6.52.306a2.266 2.266 0 0 0-2.128 1.864l-.384 2.098a2.272 2.272 0 0 1-1.289 1.658c-.252.11-.488.219-.732.335-.658.327-1.443.287-2.093-.072l-1.827-1.034a2.307 2.307 0 0 0-2.815.45l-4.399 4.827a2.279 2.279 0 0 0-.187 2.839l1.206 1.743c.424.6.531 1.384.27 2.073-.096.247-.199.51-.286.764-.22.705-.81 1.228-1.528 1.432l-2.02.555a2.284 2.284 0 0 0-1.674 2.317l.306 6.52a2.275 2.275 0 0 0 1.881 2.144l2.064.369c.73.138 1.364.597 1.659 1.288.109.236.226.48.352.732a2.216 2.216 0 0 1-.09 2.094l-1.033 1.827c-.52.93-.327 2.105.45 2.815l4.835 4.398a2.29 2.29 0 0 0 2.847.187l1.735-1.197c.608-.416 1.392-.532 2.073-.27.255.104.501.19.764.277.714.237 1.228.828 1.432 1.537l.556 2.029c.273 1.026 1.246 1.718 2.308 1.673l6.529-.306a2.268 2.268 0 0 0 2.136-1.88l.384-2.082c.139-.721.597-1.356 1.272-1.65.252-.117.496-.227.732-.344.658-.343 1.46-.303 2.102.074l1.827 1.033c.938.52 2.105.326 2.815-.45l4.398-4.835a2.292 2.292 0 0 0 .196-2.847l-1.215-1.751a2.204 2.204 0 0 1-.261-2.058c.095-.254.182-.5.253-.739.237-.714.827-1.227 1.545-1.432l2.037-.572a2.297 2.297 0 0 0 1.673-2.3l-.306-6.545zm-33.804 4.51c-.064-5.423 4.282-9.88 9.713-9.944 5.424-.064 9.88 4.29 9.944 9.713.064 5.424-4.288 9.88-9.712 9.945-5.432.064-9.88-4.289-9.945-9.713z" opacity=".15"/><path fill="#fff" d="M473.977 372.031a2.274 2.274 0 0 0-1.88-2.136l-2.09-.384c-.721-.139-1.356-.597-1.658-1.272-.093-.236-.219-.48-.336-.707a2.285 2.285 0 0 1 .073-2.119l1.042-1.827c.52-.93.335-2.105-.45-2.815l-4.827-4.399a2.28 2.28 0 0 0-2.839-.187l-1.735 1.198c-.608.416-1.392.532-2.081.27-.247-.087-.501-.19-.756-.277-.706-.237-1.236-.828-1.44-1.537l-.556-2.029a2.296 2.296 0 0 0-2.317-1.673l-6.52.306a2.266 2.266 0 0 0-2.128 1.864l-.384 2.098a2.272 2.272 0 0 1-1.288 1.658c-.253.11-.488.219-.732.336-.658.326-1.444.287-2.094-.073l-1.827-1.034a2.308 2.308 0 0 0-2.815.45l-4.399 4.827a2.279 2.279 0 0 0-.187 2.839l1.206 1.743c.424.6.532 1.384.27 2.073-.095.247-.199.51-.285.764-.221.706-.812 1.228-1.529 1.432l-2.02.556a2.284 2.284 0 0 0-1.674 2.317l.306 6.52a2.275 2.275 0 0 0 1.881 2.144l2.065.368c.729.139 1.364.597 1.658 1.288.11.236.226.48.352.732a2.215 2.215 0 0 1-.09 2.094l-1.033 1.827c-.52.93-.326 2.105.45 2.815l4.835 4.399a2.29 2.29 0 0 0 2.847.187l1.735-1.198c.608-.416 1.392-.531 2.074-.27.254.104.5.19.763.277.714.237 1.228.828 1.433 1.537l.555 2.029c.274 1.027 1.246 1.718 2.309 1.673l6.528-.306a2.268 2.268 0 0 0 2.136-1.88l.384-2.082c.139-.72.597-1.356 1.272-1.65.252-.117.496-.227.732-.344.658-.343 1.46-.303 2.102.074l1.827 1.033c.938.52 2.105.326 2.815-.45l4.399-4.835a2.293 2.293 0 0 0 .195-2.847l-1.214-1.751a2.203 2.203 0 0 1-.262-2.058c.095-.254.182-.5.253-.738.237-.714.828-1.228 1.545-1.433l2.037-.572a2.296 2.296 0 0 0 1.673-2.3l-.306-6.545zm-23.859 14.224c-5.431.064-9.88-4.289-9.945-9.713-.064-5.424 4.282-9.88 9.713-9.945 5.424-.064 9.88 4.29 9.945 9.713.064 5.424-4.289 9.881-9.713 9.945z"/><path fill="#d7e7ff" d="M449.873 365.525c-6.023.07-10.844 5.007-10.772 11.03.07 6.022 5.007 10.844 11.03 10.773 6.022-.072 10.843-5.008 10.772-11.03-.07-6.023-5.007-10.844-11.03-10.773zm.245 20.73c-5.432.064-9.881-4.289-9.945-9.713-.064-5.424 4.282-9.88 9.713-9.945 5.424-.064 9.88 4.29 9.945 9.713.064 5.424-4.289 9.881-9.713 9.945z"/><path fill="#dae3f7" d="M590.532 352.503v15.06a4.164 4.164 0 0 1-4.165 4.164h-77.775a4.164 4.164 0 0 1-4.165-4.164v-15.06c0-2.3 1.864-4.165 4.165-4.165h77.775c2.301 0 4.165 1.864 4.165 4.165zM782.978 391.94c0 1.07-.865 1.926-1.926 1.926H506.354a1.924 1.924 0 0 1-1.926-1.927c0-.526.214-1.007.561-1.364a1.92 1.92 0 0 1 1.365-.562h274.698a1.93 1.93 0 0 1 1.926 1.926zM678.787 401.223c.348.357.562.838.562 1.364 0 1.07-.865 1.927-1.926 1.927h-171.07a1.92 1.92 0 0 1-1.925-1.927 1.93 1.93 0 0 1 1.926-1.926h171.069c.526 0 1.007.214 1.364.562zM504.428 381.291c0-.526.214-1.008.561-1.365a1.92 1.92 0 0 1 1.365-.561h274.698c1.061 0 1.926.865 1.926 1.926s-.865 1.926-1.926 1.926H506.354a1.93 1.93 0 0 1-1.926-1.926z"/><path fill="#1258ff" d="M409.379 471.516c0 22.436 18.19 40.626 40.626 40.626 22.43 0 40.62-18.19 40.62-40.626 0-22.43-18.19-40.62-40.62-40.62-22.436 0-40.626 18.19-40.626 40.62z"/><path fill="#dae3f7" d="M590.532 447.596v15.06a4.164 4.164 0 0 1-4.165 4.164h-77.775a4.164 4.164 0 0 1-4.165-4.164v-15.06c0-2.3 1.864-4.165 4.165-4.165h77.775c2.301 0 4.165 1.865 4.165 4.165zM782.978 487.032c0 1.07-.865 1.927-1.926 1.927H506.354a1.924 1.924 0 0 1-1.926-1.927c0-.526.214-1.007.561-1.364a1.92 1.92 0 0 1 1.365-.562h274.698a1.93 1.93 0 0 1 1.926 1.926zM678.787 496.316c.348.357.562.838.562 1.365 0 1.07-.865 1.926-1.926 1.926h-171.07a1.92 1.92 0 0 1-1.925-1.926 1.93 1.93 0 0 1 1.926-1.927h171.069c.526 0 1.007.214 1.364.562zM504.428 476.384c0-.526.214-1.008.561-1.364a1.92 1.92 0 0 1 1.365-.562h274.698a1.93 1.93 0 0 1 1.926 1.926 1.93 1.93 0 0 1-1.926 1.926H506.354a1.93 1.93 0 0 1-1.926-1.926z"/><path fill="#3cd278" d="M409.379 566.609c0 22.436 18.19 40.626 40.626 40.626 22.43 0 40.62-18.19 40.62-40.626 0-22.43-18.19-40.62-40.62-40.62-22.436 0-40.626 18.19-40.626 40.62z"/><path fill="#dae3f7" d="M590.532 542.69v15.059a4.164 4.164 0 0 1-4.165 4.165h-77.775a4.164 4.164 0 0 1-4.165-4.165v-15.06c0-2.3 1.864-4.165 4.165-4.165h77.775c2.301 0 4.165 1.865 4.165 4.165zM782.978 582.125c0 1.07-.865 1.927-1.926 1.927H506.354a1.924 1.924 0 0 1-1.926-1.927c0-.526.214-1.007.561-1.364a1.92 1.92 0 0 1 1.365-.562h274.698a1.93 1.93 0 0 1 1.926 1.926zM678.787 591.41c.348.356.562.838.562 1.364 0 1.07-.865 1.926-1.926 1.926h-171.07a1.92 1.92 0 0 1-1.925-1.926 1.93 1.93 0 0 1 1.926-1.927h171.069c.526 0 1.007.214 1.364.562zM504.428 571.477c0-.526.214-1.008.561-1.364a1.92 1.92 0 0 1 1.365-.562h274.698c1.061 0 1.926.865 1.926 1.926s-.865 1.926-1.926 1.926H506.354a1.93 1.93 0 0 1-1.926-1.926z"/><g opacity=".1"><path d="M476.594 477.687c-1.926 11.816-12.2 20.836-24.576 20.786v-.012c-13.704-.05-24.774-11.195-24.725-24.899a24.82 24.82 0 0 1 7.319-17.531 24.759 24.759 0 0 1 13.642-6.92l-.038 10.958c-5.889 1.69-10.2 7.12-10.213 13.53v.037c0 7.778 6.287 14.09 14.053 14.115h.062c6.398 0 11.815-4.274 13.53-10.114l10.946.05z"/><path d="m478.665 473.743-.003.864a.866.866 0 0 1-.87.863l-12.431-.046a.866.866 0 0 1-.863-.866v-.056c0-7.264-5.944-13.227-13.208-13.25a.866.866 0 0 1-.864-.87l.046-12.435a.866.866 0 0 1 .869-.863l.864.003c7.095.029 13.758 2.815 18.753 7.85 4.996 5.037 7.736 11.716 7.707 18.806z"/></g><path fill="#fff" d="M474.211 475.167c-1.925 11.816-12.2 20.837-24.575 20.787v-.013c-13.705-.05-24.775-11.194-24.726-24.898a24.82 24.82 0 0 1 7.319-17.532 24.759 24.759 0 0 1 13.642-6.92l-.037 10.958c-5.89 1.69-10.201 7.12-10.213 13.53v.038c0 7.778 6.286 14.09 14.052 14.114h.062c6.399 0 11.816-4.274 13.53-10.113l10.946.05z"/><path fill="#ffc837" d="m476.282 471.223-.003.864a.866.866 0 0 1-.87.864l-12.431-.046a.866.866 0 0 1-.863-.866v-.056c0-7.265-5.944-13.228-13.208-13.251a.866.866 0 0 1-.864-.87l.046-12.434a.866.866 0 0 1 .87-.863l.863.003c7.095.029 13.758 2.815 18.753 7.85s7.736 11.716 7.707 18.805z"/><path d="M453.208 544.288c-9.483-.702-17.396 6.778-17.396 16.127 0 16.862 16.177 31.954 16.177 31.954s14.692-13.723 16.06-29.617c.786-9.199-5.642-17.797-14.841-18.464zm-1.219 24.742c-4.474 0-8.097-3.64-8.097-8.114 0-4.458 3.623-8.097 8.097-8.097s8.097 3.64 8.097 8.097c0 4.474-3.622 8.114-8.097 8.114z" opacity=".1"/><path fill="#fff" d="M452.46 543.564c-9.483-.702-17.397 6.778-17.397 16.127 0 16.862 16.178 31.954 16.178 31.954s14.691-13.723 16.06-29.617c.785-9.199-5.643-17.797-14.842-18.464zm-1.22 24.742c-4.474 0-8.097-3.64-8.097-8.114 0-4.458 3.623-8.097 8.098-8.097 4.474 0 8.097 3.64 8.097 8.097 0 4.474-3.623 8.114-8.097 8.114z"/><path d="M923.025 721.78h35.829v5.958h-35.829zM942.353 706.452l-19.328 15.328h35.83v-15.328z"/><path fill="#fff" d="M940.79 722.033h-17.77a.25.25 0 1 1 0-.5h17.77a.25.25 0 1 1 0 .5zM951.325 726.137c0 .586.057 1.1.186 1.6h.714c0-.028 0-.057-.014-.085a6.38 6.38 0 0 1-.172-1.515c0-1.514.5-2.986 1.415-4.143.057-.072.114-.143.185-.214a6.79 6.79 0 0 1 5.215-2.458v-.714c-2.328 0-4.571 1.1-5.972 2.957-.057.072-.1.143-.157.215-.9 1.228-1.4 2.772-1.4 4.357z"/><path d="M977.852 721.78h35.829v5.958h-35.829zM997.18 706.452l-19.328 15.328h35.83v-15.328z"/><path fill="#fff" d="M995.617 722.033h-17.77a.25.25 0 1 1 0-.5h17.77a.25.25 0 1 1 0 .5zM1006.152 726.137c0 .586.057 1.1.186 1.6h.714c0-.028 0-.057-.014-.085a6.384 6.384 0 0 1-.172-1.515c0-1.514.5-2.986 1.415-4.143.057-.072.114-.143.185-.214a6.79 6.79 0 0 1 5.215-2.458v-.714c-2.329 0-4.571 1.1-5.972 2.957-.057.072-.1.143-.157.215-.9 1.228-1.4 2.772-1.4 4.357z"/><path fill="#1258ff" d="M1016.904 708.748c-3.682 5.669-29.73 3.04-31.425.347-.24-.387-.666-5.229-1.187-12.484-.08-1.068-.16-2.188-.24-3.349-1.774-25.822-4.348-97.908-4.348-97.908s-7.776 71.873-12.778 97.482c-.213 1.067-.413 2.094-.613 3.08-1.48 7.337-2.641 12.219-3.188 12.538-6.642 3.962-23.901 2.068-27.316.36-.534-.266-.48-3.467.013-8.682.067-.84.16-1.734.254-2.668 3.2-30.623 17.192-136.362 17.192-136.362s56.006-5.002 58.274.8"/><path fill="#fff" d="M956.468 699.023c.043.106-1.083.752-3.611 1.224a21.913 21.913 0 0 1-6.492.036c-2.53-.445-3.663-1.077-3.62-1.187.053-.167 1.25.211 3.715.52 2.084.302 4.214.29 6.294-.034 2.465-.336 3.657-.728 3.714-.559zM1009.754 697.644c.03.128-1.424.667-4.484 1.38-2.602.536-5.266.923-7.954.86-3.18-.157-4.647-.863-4.607-.96.044-.184 1.542.258 4.623.287 2.612.063 5.226-.315 7.803-.847 3.055-.585 4.582-.878 4.619-.72zM1013.627 582.313c-.022.056-.548-.054-1.52-.508-.958-.466-2.383-1.292-3.897-2.856a15.242 15.242 0 0 1-2.977-4.609 15.239 15.239 0 0 1-1.1-5.375c-.014-2.174.424-3.761.782-4.763.376-1.005.676-1.451.732-1.426.078.033-.093.532-.348 1.542-.24 1.01-.568 2.554-.494 4.632.04 1.757.39 3.509 1.05 5.136a14.57 14.57 0 0 0 2.845 4.403c1.404 1.537 2.72 2.41 3.599 2.964.89.542 1.361.78 1.328.86zM950.798 577.977c-.11-.13 1.182-1.169 3.496-3.49.483-.492.962-.998 1.338-1.544.364-.558.708-1.171.991-1.793.581-1.245.991-2.57 1.228-3.924.302-1.596.329-2.82.336-3.634.008-.816-.006-1.228.077-1.24.062-.01.214.385.323 1.215.11.827.18 2.1-.073 3.774a16.348 16.348 0 0 1-1.281 4.093c-.3.656-.644 1.273-1.047 1.89-.422.612-.916 1.128-1.416 1.637-2.457 2.289-3.896 3.112-3.972 3.016zM978.21 573.03c.066.033-.119.542-.54 1.536-.408.996-1.1 2.467-1.726 4.513-.542 1.723-.829 3.53-.655 5.31.175 1.775.8 3.507 1.792 4.99.562.892 1.22 1.543 1.747 2.194.53.64.88 1.294 1.01 1.852.265 1.148-.166 1.692-.197 1.647-.095-.021.157-.558-.186-1.53-.172-.483-.513-1.024-1.051-1.607-.525-.582-1.255-1.249-1.882-2.182a11.629 11.629 0 0 1-1.902-5.298c-.185-1.894.122-3.796.682-5.577.707-2.095 1.493-3.535 2.007-4.487.529-.948.835-1.394.902-1.361zM940.936 682.895c-.035-.006.014-.504.15-1.496l.645-4.464 2.55-17.937 5.684-40.64c1.17-7.981 2.113-13.94 2.817-17.892.337-1.978.634-3.453.832-4.434.2-.982.32-1.467.356-1.46.036.006-.013.504-.147 1.496l-.646 4.462-2.546 17.923-5.684 40.64c-1.174 7.99-2.116 13.95-2.82 17.905a140.89 140.89 0 0 1-.833 4.437c-.201.98-.32 1.467-.358 1.46zM1008.69 657.246c-.143.002-.354-4.929-.577-14.903l-.417-25.351c-.104-9.967-.056-14.902.091-14.904s.355 4.928.582 14.893l.416 25.35c.101 9.977.056 14.913-.094 14.915z"/><path fill="#ffc6b2" d="m1018.33 525.663 4.739 5.25 31.988-7.832c-1.096-8.32-13.18-18.15-18.004-21.5-2.473 6.175-17.237 25.8-18.723 24.082zM944.89 515.717c-2.286 1.365-21.54 9.768-27.213 7.048-9.89-4.763-32.613-30.904-32.613-30.904s-15.634-3.58-15.28-15.785c.324-11.953 15.32.637 15.968 1.183-.08-.243-1.092-3.003.88-4.783 2.063-1.871 4.5 6.947 4.5 6.947l31.733 19.456 10.537-5.228s11.67 21.944 11.488 22.066z"/><path fill="#f03232" d="m938.947 522.997 10.062-3.094.56 43.354c.11 6.2 47.946 5.408 60.725.45 1.985-.78 3.118-1.644 3.106-2.606l-.853-10.61-2.064-30.159 7.743 6.144c1.1 1.455 16.357-18.718 18.83-24.894.354-.877.45-1.474.244-1.717-.743-.159-19.137-16.994-30.6-20.965-11.658-4.032-37.628-2.728-49.335 1.182-9.513 3.191-27.006 14.155-27.006 14.155-1.705.56 6.883 29.32 8.588 28.76z"/><path fill="#ffc6b2" d="M1008.727 561.36s-8.68 3.321-8.338 5.084c.341 1.763 3.365 2.244 3.365 2.244s-11.083 10.98-.619 16.782c10.464 5.8 16.473-17.006 16.473-17.006l-10.88-7.105z"/><path fill="#ffc6b2" d="m1008.719 561.355 10.89 7.114s37.154-32.525 35.448-45.388l-31.988 7.832-14.35 30.442z"/><path fill="#fff" d="M949.633 499.566c.171.048-.365 1.833-.878 5.519a39.263 39.263 0 0 0-.264 9.428c.305 3.705.74 5.517.563 5.556-.07.017-.24-.42-.492-1.325a29.473 29.473 0 0 1-.74-4.17 39.928 39.928 0 0 1 .268-9.588c.645-3.734 1.434-5.459 1.543-5.42zM1004.534 504.525c.198.023-.163 1.596.247 4.699a16.856 16.856 0 0 0 2.763 7.36c1.73 2.604 3.037 3.552 2.9 3.703-.044.055-.39-.146-1.024-.641-.609-.52-1.5-1.356-2.434-2.685a17.525 17.525 0 0 1-2.873-7.653 14.08 14.08 0 0 1 .067-3.627c.153-.79.282-1.17.354-1.156z"/><path fill="#ffc6b2" d="M972.198 466.993c1.542 1.766.837 5.365.81 8.668-1.038 4.44 14.433 6.08 16.615.6-1.234-4.878-1.03-11.464.228-16.544 1.26-5.08-17.653 7.276-17.653 7.276z"/><path fill="#ffc6b2" d="M989.85 459.713h.012c.061-.085.11-.158.17-.22a1.446 1.446 0 0 0-.182.22z"/><path fill="#fff" d="M992.053 476.618s-9.164 8.915-9.339 8.916c-.03-.102-4.116-6.188-4.116-6.188l10.403-6.628c.015.117 3.052 3.9 3.052 3.9z"/><path fill="#fff" d="M978.663 479.523s-4.433 4.086-4.53 4.119-4.51-6.132-4.51-6.132l3.477-4.177 5.498 6.013"/><path fill="#ffc6b2" d="M971.444 467.887c7.26 3.727 14.764-3.789 17.675-7.273.292-.34.548-.657.73-.901.05-.073.11-.146.184-.22.012-.011.024-.036.048-.06.183-.244.28-.39.28-.39.013-.024.086-.061.195-.11 1.06-.463 5.981-2.326 4.374-7.09-.902-2.752-6.164.037-6.164.037s-2.68-10.281-7.297-10.67c-4.604-.403-12.291 5.859-12.291 5.859s-.183.67-.353 1.742a69.67 69.67 0 0 0-.402 2.594c-.756 5.433-1.243 14.277 3.02 16.482z"/><path d="M963.477 441.283c-.658 1.023-6.554 3.556-3.764 8.538.585 1.048 2.107 1.56 4.154 1.706 1.34.098 2.887.037 4.556-.122.134-.999.28-1.888.402-2.594.17-1.073.353-1.742.353-1.742s7.687-6.262 12.291-5.86c4.617.39 7.297 10.671 7.297 10.671s5.262-2.79 6.164-.036c1.607 4.763-3.314 6.626-4.374 7.09a8.526 8.526 0 0 0-.475.499c-.024.024-.036.049-.048.06a1.446 1.446 0 0 0-.183.22h.012c11.024-1.9 15.91-23.571 8.893-30.332-5.896-5.664-15.617-.658-20.648-.207-5.031.45-11.414-8.125-16.019-6.663-4.629 1.474.317 9.038-.621 10.55-.938 1.51-2.412.45-3.727 3.678-1.304 3.228 6.383 3.52 5.737 4.544z"/><path d="M988.766 451.88s-1.969-3.778-4.95-5.566c-.215-.13-14.71 3.882-15.896.258-1.186-3.623.755-8.93.755-8.93s6.6-2.76 7.42-2.89c.82-.129 11 3.797 11.82 4.056s3.796 4.4 3.796 4.4l-2.717 8.558M981.124 466.752c.032.042-.545.584-1.983 1.214-1.228.499-2.535.799-3.858.886-1.567.06-2.323-.175-2.312-.229.01-.091.772.014 2.29-.107a12.098 12.098 0 0 0 3.754-.862c1.42-.554 2.06-.982 2.109-.902z"/><path fill="#ffc6b2" d="M890.315 476.943c.023-.046.023-.069.012-.069-.035 0-.046.023-.012.07zM270.067 442.053l2.726 8.792 34.466-20.77 5.056 12.702s-32.066 45.082-45.925 42.363-16.178-28.09-16.178-28.09l11.823-9.976 8.032-5.021z"/><path fill="#ffc6b2" d="M307.2 430.143s2.632-9.204 4.418-7.73c1.786 1.473.625 4.51.625 4.51s10.493-13.039 11.52-8.752c1.027 4.286-7.1 10.27-7.1 10.27s6.118 5.447 5.627 9.064c-.728 5.362-10.033 5.34-10.033 5.34l-5.056-12.702z"/><path fill="#ffc837" d="M258.605 425.673s10.266 7.249 14.388 21.1c1.477 1.752-13.602 14.478-15.08 12.727l-9.594-10.734 10.286-23.093z"/><path d="M254.275 678.729h40.551v6.743h-40.551zM272.95 661.38l21.876 17.349h-40.551V661.38z"/><path fill="#fff" d="M294.832 678.982H274.72a.25.25 0 1 1 0-.5h20.112a.25.25 0 1 1 0 .5zM262.796 683.66a7.13 7.13 0 0 1-.21 1.812h-.808c0-.033 0-.065.016-.097.13-.534.194-1.1.194-1.715 0-1.714-.566-3.38-1.601-4.69a2.757 2.757 0 0 0-.21-.241 7.685 7.685 0 0 0-5.902-2.782v-.809c2.635 0 5.174 1.245 6.759 3.347.064.082.113.162.178.244 1.019 1.39 1.584 3.137 1.584 4.931z"/><path d="M192.221 678.729h40.551v6.743h-40.551zM210.897 661.38l21.876 17.349H192.22V661.38z"/><path fill="#fff" d="M232.778 678.982h-20.111a.25.25 0 1 1 0-.5h20.111a.25.25 0 1 1 0 .5zM200.743 683.66c0 .664-.064 1.246-.21 1.812h-.809c0-.033 0-.065.017-.097.13-.534.193-1.1.193-1.715 0-1.714-.565-3.38-1.6-4.69a2.754 2.754 0 0 0-.21-.241 7.685 7.685 0 0 0-5.903-2.782v-.809c2.636 0 5.175 1.245 6.76 3.347.064.082.113.162.177.244 1.02 1.39 1.585 3.137 1.585 4.931z"/><path fill="#1258ff" d="M188.57 663.983c4.17 6.412 33.648 3.435 35.574.393.262-.437.755-5.92 1.335-14.137.098-1.204.186-2.473.273-3.786 2.014-29.228 4.924-99.369 4.924-99.369s8.798 69.9 14.466 98.887c.241 1.204.46 2.364.69 3.49 1.674 8.295 2.987 13.821 3.611 14.182 7.517 4.486 27.05 2.342 30.912.416.602-.307.548-3.928-.01-9.826-.077-.952-.187-1.97-.285-3.02-3.633-34.666-19.467-142.898-19.467-142.898s-63.379-5.657-65.95.908l-6.073 154.76z"/><path fill="#fff" d="M256.978 652.965c.055-.166 1.401.29 4.194.684 2.359.367 4.773.38 7.136.04 2.794-.363 4.145-.805 4.2-.634.042.106-1.245.801-4.105 1.3-2.428.35-4.909.336-7.334-.041-2.856-.53-4.135-1.24-4.09-1.349zM196.668 651.405c.036-.153 1.76.19 5.217.865 2.918.603 5.88 1.03 8.842.96 3.493-.045 5.186-.559 5.231-.369.019.069-.389.243-1.245.489-.86.217-2.18.48-3.97.552-3.038.072-6.05-.366-8.993-.973-3.462-.8-5.114-1.391-5.082-1.524zM195.203 530.754c-.045-.066.362-.394 1.13-1.087a19.514 19.514 0 0 0 3.058-3.478c2.022-2.853 3.037-6.374 2.917-9.866a19.17 19.17 0 0 0-.64-4.582c-.263-1-.434-1.494-.354-1.528.055-.024.354.416.735 1.406.373.986.83 2.54.932 4.684.126 3.628-.934 7.302-3.04 10.272-1.268 1.733-2.502 2.783-3.355 3.403-.86.619-1.346.832-1.383.776zM262.805 527.192c-.037.055-.461-.124-1.227-.636-.756-.52-1.863-1.379-3.07-2.8-2.004-2.439-3.32-5.423-3.832-8.532-.264-1.843-.188-3.24-.071-4.151.116-.913.276-1.349.337-1.34.085.012.061.466.063 1.366 0 .897.02 2.25.334 4.015.494 2.998 1.761 5.87 3.69 8.216 1.115 1.407 2.125 2.31 2.795 2.909.678.592 1.025.885.98.953zM232.374 521.815c.063-.03.401.478.991 1.554.575 1.081 1.459 2.713 2.251 5.082.633 2.012.98 4.158.771 6.294a13.118 13.118 0 0 1-2.146 5.976c-.704 1.054-1.525 1.809-2.12 2.472-.608.664-.994 1.283-1.186 1.833-.383 1.112-.087 1.72-.187 1.74-.027.046-.502-.569-.196-1.856.15-.627.546-1.358 1.146-2.08.596-.732 1.345-1.47 1.984-2.483a12.445 12.445 0 0 0 2.036-5.668c.197-2.022-.129-4.073-.744-6.028-.711-2.319-1.5-3.981-1.969-5.107-.484-1.122-.7-1.695-.631-1.729zM272.331 616.975c-.141.025-1.39-6.282-3.715-19.072l-5.76-32.528c-2.205-12.798-3.198-19.15-3.053-19.176s1.39 6.282 3.716 19.058l5.76 32.529c2.204 12.811 3.2 19.163 3.052 19.19zM197.862 617.134c-.143-.002-.181-5.587-.055-16.879l.472-28.692c.244-11.278.466-16.86.613-16.857s.181 5.588.059 16.868l-.472 28.692c-.248 11.29-.466 16.87-.617 16.868z"/><path fill="#ffc837" d="M265.72 510.065c.546-20.258.39-71.79-5.372-82.11-7.527-13.481-53.906-15.512-70.022 0-3.504 3.372-.892 61.159.858 81.853 0 6.71 74.535 6.967 74.535.257z"/><path fill="#ffc6b2" d="m209.413 457.228-.374 8.48 32.988-12.33 1.96 13.278s-39.725 31.017-56.027 24.604c-8.612-3.387-5.682-34.825-5.682-34.825l27.135.793z"/><path fill="#ffc837" d="M196.662 423.477s10.103-.706 12.843 11.837c2.74 12.542 1.722 24.737 1.722 24.737.028.872-31.144 3.874-31.834 1.025 0 0-.775-31.837 17.269-37.6z"/><path fill="#fff" d="M211.26 446.648c.125-.017.501 1.454.688 4.498.1 2.578.015 5.163-.242 7.73-.055.392-.08.7-.157 1.09-.037.194-.192.475-.431.575-.223.098-.373.094-.513.12-.573.075-1.053.096-1.435.094-.767-.009-1.142-.1-1.14-.17 0-.077.376-.124 1.112-.23.368-.054.826-.127 1.368-.244.136-.03.287-.06.342-.097.047-.031.064-.059.092-.186.036-.26.059-.66.093-1.02.254-2.536.339-5.09.239-7.637-.062-3.009-.182-4.503-.016-4.523zM200.656 424.01c.035-.062.375.05 1.017.355.639.31 1.596.796 2.778 1.639.98.737 1.889 1.611 2.604 2.628a14.748 14.748 0 0 1 1.717 3.263c.94 2.762.745 4.249.642 4.243-.187.025-.258-1.409-1.27-4.003-.83-2.214-2.177-4.212-4.099-5.595-1.098-.858-1.997-1.42-2.573-1.829-.58-.403-.854-.636-.816-.702z"/><path fill="#ffc6b2" d="M247.4 453.495c.373-.223 2.45-1.997.916-4.722-1.608-2.89-6.284 4.601-6.284 4.601 1.688 1.888 3.408 3.198 5.369.121z"/><path fill="#719bff" d="m282.023 438.373-12.25 33.314a.966.966 0 0 1-.907.632h-24.72l12.96-35.245h24.01a.966.966 0 0 1 .907 1.3z"/><path fill="#5388f2" d="m257.105 437.074-12.96 35.245h-2.23a.966.966 0 0 1-.906-1.299l12.25-33.313a.966.966 0 0 1 .906-.633h2.94z"/><path fill="#f0e6ff" d="M266.473 453.793c.156-.027.446.375.49 1.308.032.9-.21 2.424-1.572 3.857-.587.554-1.323 1.06-2.227 1.257-.446.094-.943.126-1.466-.023a2.25 2.25 0 0 1-1.308-1.003c-.556-1.007-.373-1.945-.201-2.709.19-.757.47-1.488.827-2.178.928-1.592 2.028-2.461 2.793-2.904.783-.438 1.25-.483 1.336-.335.097.163-.185.499-.713 1.102-.518.608-1.296 1.512-1.946 2.905-.563 1.078-1.049 2.674-.674 3.265.143.256.467.366.998.26.501-.103.994-.422 1.439-.84 1.082-.939 1.505-2.05 1.733-2.768.227-.737.292-1.168.49-1.194z"/><path fill="#ffc6b2" d="m242.032 453.374.05 14.725s13.173 2.653 17.581-8.575c4.304-10.945-12.88-5.882-13.76-5.628l-3.871-.522zM217.482 404.36v13.268l14.997 11.02 1.15-16.053s12.008.996 12.565-6.016c.273-3.452.024-9.207-.095-13.027-.023-.819-.059-1.602-.095-2.325-2.1.64-4.39.64-6.56.26-2.896-.51-5.624-1.66-8.341-2.764-1.709-.688-3.833-1.305-5.22-.107-.89.783-1.128 2.053-1.211 3.24-.071 1.174-.071 2.42-.64 3.452-.582 1.032-1.84 1.471-2.8.771 0 0-6.657-4.698-9.113 0a5.97 5.97 0 0 0-.368.95v.07h-.023c-.95 4.212 5.754 7.262 5.754 7.262z"/><path fill="#ffc6b2" d="M221.231 388.51v7.57c.961.7 2.219.26 2.8-.772.57-1.032.57-2.278.64-3.453.084-1.186.321-2.456 1.211-3.239 1.388-1.198 3.512-.58 5.22.107 2.718 1.104 5.446 2.254 8.341 2.765 2.171.38 4.461.38 6.561-.261-.118-2.8-.249-4.746-.249-4.746s-6.774-5.743-7.474-5.743c-.712 0-11.45 3.405-11.96 3.595-.51.178-5.09 4.177-5.09 4.177z"/><path fill="#253066" d="M228.021 410.833c.04-.07.52.157 1.502.552.823.355 1.682.627 2.557.817 1.028.248 1.55.314 1.546.39 0 .071-.549.132-1.617-.06a14.334 14.334 0 0 1-2.618-.838c-.982-.461-1.403-.804-1.37-.86zM217.036 400.58c-.017.066-.172.106-.468.052a2.378 2.378 0 0 1-1.205-.657c-.743-.776-.931-2.204-.005-3.038.556-.422 1.12-.392 1.42-.28.312.118.39.285.355.338-.04.069-.185.04-.423.056-.23.016-.598.091-.914.397-.562.472-.493 1.51.065 2.075.643.733 1.238.887 1.175 1.056z"/><path fill="#2a0054" d="M217.482 404.36s-6.704-3.049-5.73-7.26v-.072a5.97 5.97 0 0 1 .367-.949c2.456-4.698 9.112 0 9.112 0 .961.7 2.219.261 2.8-.771.57-1.032.57-2.278.64-3.453.084-1.186.321-2.456 1.211-3.239 1.388-1.198 3.512-.58 5.22.107 2.718 1.104 10.688.27 13.566-.33 11.637-2.429 6.888-16.775-.218-18.88-4.323-1.282-8.86.232-13.366.426-19.347.83-21.894 11.197-22.69 14.9-2.86 13.299 5.183 21.188 9.088 19.522z"/><path fill="#719bff" d="m966.884 287.444 32.01-44.811-57.508 10.668a.05.05 0 0 0-.032.08l25.449 34.064a.05.05 0 0 0 .08-.001z"/><path fill="#5388f2" d="M995.453 245.123 956.92 274.21a.048.048 0 0 0-.006.006l-6.198 6.648a.05.05 0 0 1-.087-.033l-.326-15.44c0-.019.011-.037 2.2-1.061l42.949-19.207z"/><path fill="#5388f2" d="m950.815 280.898 8.919-2.804a.05.05 0 0 0 .025-.078l-2.805-3.755a.05.05 0 0 0-.077-.004l-6.114 6.559c-.035.037.002.097.052.082z"/><circle cx="332.437" cy="220.874" r="28.608" fill="#ff5d5d"/><circle cx="332.437" cy="220.874" r="22.83" fill="#fff"/><circle cx="332.437" cy="220.874" r="16.595" fill="#ff5d5d"/><circle cx="332.437" cy="220.874" r="10.334" fill="#fff"/><circle cx="332.437" cy="220.874" r="5.119" fill="#ff5d5d"/><path d="m308.772 189.925-6.596-6.09c-.62-.572-1.62-.109-1.585.733l.263 6.231a.945.945 0 0 1-.909.984l-6.232.233c-.842.032-1.225 1.067-.605 1.638l6.596 6.091c.183.17.427.26.677.25l8.12-.313a.945.945 0 0 0 .907-.983l-.333-8.118a.945.945 0 0 0-.303-.656z"/><path d="m332.507 218.595-34.363-31.732a1.723 1.723 0 1 0-2.338 2.532l34.363 31.732a1.723 1.723 0 0 0 2.338-2.532z"/><circle cx="881.307" cy="304.078" r="32.145" fill="#ffc837"/><path fill="#fff" d="M861.28 294.714v18.728c0 2.708 2.212 4.92 4.942 4.92h30.17c2.73 0 4.94-2.212 4.94-4.92v-18.728c0-2.708-2.21-4.92-4.94-4.92h-30.17c-2.73 0-4.941 2.212-4.941 4.92z"/><path fill="#ffc837" d="M881.295 307.244c.19 0 .381-.067.535-.199l15.027-12.929a.82.82 0 0 0-1.069-1.242l-14.493 12.47-14.47-12.447a.82.82 0 0 0-1.07 1.242l15.006 12.906a.818.818 0 0 0 .534.199z"/><path fill="#ffc837" d="M866.29 314.036c.19 0 .38-.066.535-.199l11.44-9.86a.82.82 0 0 0-1.07-1.242l-11.44 9.86a.82.82 0 0 0 .535 1.44zM896.323 313.99a.82.82 0 0 0 .534-1.44l-11.44-9.838a.82.82 0 0 0-1.068 1.242l11.44 9.838a.815.815 0 0 0 .534.199z"/></svg>