<svg xmlns="http://www.w3.org/2000/svg" data-name="Layer 1" viewBox="0 0 800 800"><defs><clipPath id="a"><path fill="none" d="M170.24 651.62c126.69 121.52 374.89 64.64 501.79 0S705.43 431.86 739 300c28.5-112-82.72-210.89-190-206.52-1.9.08-3.8.18-5.7.32a155.6 155.6 0 0 0-50.27 12.29C373.74 157.8 364.2 190.24 253 186.24-34 175.9 43.55 530.11 170.24 651.62Z"/></clipPath><clipPath id="b"><path fill="none" d="M44.65 167.92h326.07v420.5H44.65z" data-name="SVGID" transform="rotate(180 207.685 378.17)"/></clipPath><clipPath id="d"><path fill="none" d="M1305.71 101C1401 128.47 1561 213.22 1553.77 407.89s-177 94.27-304.63 270.16C1154 809.19 755.87 629.88 991 244.62c93.57-153.4 232-167.4 314.71-143.62Z" data-name="SVGID"/></clipPath><clipPath id="e"><path fill="none" d="M-772.7 355.42c-21.87 114.22 59.39 211.68 233.47 211s63.6 141.64 209 150.54 216.22-80.08 198.19-277.62S-153.3 10-452.85 83.37c-188.94 46.27-299.38 165.04-319.85 272.05Z" data-name="SVGID"/></clipPath><linearGradient id="c" x1="2633.08" x2="2633.08" y1="431.29" y2="188.5" gradientTransform="translate(-2155)" gradientUnits="userSpaceOnUse"><stop class="stopColorffffff svgShape" offset="0" stop-color="#fff" stop-opacity="0"/><stop class="stopColorffffff svgShape" offset="1" stop-color="#fff"/></linearGradient></defs><path fill="#e7ebef" d="M170.24 651.62c126.69 121.52 374.89 64.64 501.79 0S705.43 431.86 739 300c28.5-112-82.72-210.89-190-206.52-1.9.08-3.8.18-5.7.32a155.6 155.6 0 0 0-50.27 12.29C373.74 157.8 364.2 190.24 253 186.24-34 175.9 43.55 530.11 170.24 651.62Z" class="colore7ebef svgShape"/><path fill="#e7ebef" d="M170.24 651.62c126.69 121.52 374.89 64.64 501.79 0S705.43 431.86 739 300c28.5-112-82.72-210.89-190-206.52-1.9.08-3.8.18-5.7.32a155.6 155.6 0 0 0-50.27 12.29C373.74 157.8 364.2 190.24 253 186.24-34 175.9 43.55 530.11 170.24 651.62Z" class="colore7ebef svgShape" data-name="SVGID"/><path fill="#e7ebef" d="M259.28 138.45a10.81 10.81 0 0 0 8.27 11.94c21.88 5.05 85.5 13.35 138.71-42.82C468.41 42 267.09 77.54 259.28 138.45Z" class="colore7ebef svgShape"/><path fill="#010101" d="M99.67 723.04h593.36v4.51H99.67z" class="color010101 svgShape"/><g class="color000000 svgShape" clip-path="url(#a)"><path fill="#e7ebef" d="M44.99 172.58h325.78v417.66H44.99z" class="colore7ebef svgShape"/><g class="color000000 svgShape" clip-path="url(#b)"><path fill="#c6d1db" d="M241.56 496.61c-.93-5-5.61-6.44-4.42-12.3.68-3.33 2.58-4.94.4-8.4a14.69 14.69 0 0 0-4.71-4.32 7 7 0 0 0 2.45-8 1.17 1.17 0 0 0-1.94-.51 32 32 0 0 0-4.31 5.53c-.18-1.29-.36-2.59-.65-3.84a2.39 2.39 0 0 0-2.11-2c-2.06-.1-2.09 1.87-1.67 3.69-3.82-2.58-7.55-5.29-11.37-7.83-1.46-1-3-1.92-4.64-2.84a4.82 4.82 0 0 0 1.59-2.49c.54-2.14-1.1-4-3.24-2.81a13 13 0 0 0-3.3 2.72 62.12 62.12 0 0 0-7.6-3.11 5.32 5.32 0 0 0 1.82-1.93 2.2 2.2 0 0 0-1.68-3.27c-1.7-.25-3.29.91-4.49 2a10.63 10.63 0 0 0-1.52 1.7c-9.3-1.78-18.62-.32-25.41 7.87l-1.1 1.36a8.6 8.6 0 0 0-3.27-4.56 1 1 0 0 0-.87-.18 1.25 1.25 0 0 0-1.42.63 1.2 1.2 0 0 0-.38 1.08 18.84 18.84 0 0 0 2 5.74 7.63 7.63 0 0 1-1.92.12c-1.81-.09-3.12-.47-4.93.07a11.15 11.15 0 0 0-5.86 4.79 12.06 12.06 0 0 0-1.1 2.14c-3.3 8.42 3.77 16 10.29 20.24a.91.91 0 0 0 1 .07c9 5.4 18.8 13 29.27 14.43 2 .28 4.07-.26 6 0 .67.07 6 1.65 6.58 2.18s1 2 1.42 2.64a15.61 15.61 0 0 0 8 6.16c10.33 3.79 31 1.42 33.27-11.38a14.76 14.76 0 0 0-.18-5.39Z" class="colorc6d0db svgShape"/><path fill="#0085ff" d="M241.26 501.48a1.11 1.11 0 0 0-1.12-.31c-8.07 3.33-24.26 11.31-30.15 1.42-1-1.63-.7-2.62-2.49-3.67-1.11-.68-2.75-.66-3.93-1.28a10.3 10.3 0 0 1-5.28-8.77 1.17 1.17 0 0 0-1.47-1.12c-3.46 1.21-7.42 2.79-11.12 2.58-5.3-.28-10.93-3.51-10.19-9.65a1.16 1.16 0 0 0-1.46-1.12c-11.94 3.51-23.59-2.93-27.08-14.1a12.06 12.06 0 0 0-1.1 2.14c-3.3 8.42 3.77 16 10.29 20.24a.91.91 0 0 0 1 .07c9 5.4 18.8 13 29.27 14.43 2 .28 4.07-.26 6 0 .67.07 6 1.65 6.58 2.18s1 2 1.42 2.64a15.61 15.61 0 0 0 8 6.16c10.33 3.79 31 1.42 33.27-11.38a5 5 0 0 0-.44-.46Z" class="colorabb7c2 svgShape"/><path fill="#c6d1db" d="M162.34 476.23a1.48 1.48 0 0 0-.34-.23c0-.22.05-.44.09-.67.29-1.46-2-2.08-2.24-.61a13 13 0 0 0 2.35 10.6 1.18 1.18 0 0 0 2.13-.27 9.08 9.08 0 0 0-1.99-8.82ZM191.32 487.09a.9.9 0 0 0-.94-.14 24.06 24.06 0 0 1-1.26-3.76c-.35-1.46-2.59-.84-2.25.62a25.52 25.52 0 0 0 5 10.18 1.17 1.17 0 0 0 2-.51 6.28 6.28 0 0 0-2.55-6.39ZM213.75 498.85c-2.43 2.78-5.38 7.58-1.51 10.6a1.18 1.18 0 0 0 1.94-.51 16.91 16.91 0 0 0 .34-6.72 1 1 0 0 0-.2-.4c.36-.48.74-.94 1.08-1.32.98-1.12-.66-2.78-1.65-1.65Z" class="colorc6d0db svgShape"/><path fill="#0085ff" d="M181 458.52c-3.71-2.55-4.6 7.92-4.51 9.78-.75 1.16.8 2.69 1.7 1.54a17 17 0 0 0 3.17-6.24c.32-1.39 1.09-4.06-.36-5.08ZM200.18 473.27a.71.71 0 0 0 .07-.09 24.14 24.14 0 0 0 3.75-11.44 1.18 1.18 0 0 0-.85-1.12c-2.63-.83-3.8 2.36-4.47 4.34a19.79 19.79 0 0 0-.5 10.3c.31 1.46 2.55.84 2.25-.62-.12-.46-.19-.91-.25-1.37Z" class="colorabb7c2 svgShape"/><path fill="#c6d1db" d="M205.46 481.2a1.23 1.23 0 0 0-2 1 1.1 1.1 0 0 0-.13.56 7.33 7.33 0 0 0 2.79 5.6 1.18 1.18 0 0 0 1.82-.23c1.5-2.76-.44-5.21-2.48-6.93Z" class="colorc6d0db svgShape"/><path fill="#0085ff" d="M232.26 483.82c.12-2.24-2-3-3.85-2.25a21.7 21.7 0 0 0-4.79 2.81 32.6 32.6 0 0 0-3.33 1.7c-.92.55-.61 2.3.59 2.17h.12a1.18 1.18 0 0 0 1.5 0c3.81-.15 9.5.04 9.76-4.43Z" class="colorabb7c2 svgShape"/><path fill="#c6d1db" d="M94.76 459.11c-2-4.4-7.21-10.86-12.47-10.54a8.55 8.55 0 0 0-1.7.26 19.85 19.85 0 0 0-5.72 2.38c.19-.64.37-1.28.62-1.91.56-1.38-1.68-2-2.24-.62a22.22 22.22 0 0 0-1.25 4.48l-.29.21c-.24-1.6-.43-3.63-1.5-4.72a2 2 0 0 0-3.08.14c-.93 1.26-.28 2.94.24 4.21.44 1.08.93 2.12 1.46 3.16a13.48 13.48 0 0 0-1.39 1.9c-1.18 2-1.41 4-2.32 5.68L62.39 461a1.17 1.17 0 0 0-1.94 1.13 14.81 14.81 0 0 0 2 4.13c-.26.12-.47.26-.77.37-2.37.9-3.72.84-5.46 2.95a24.36 24.36 0 0 0-4.52 9.64 17.28 17.28 0 0 0 0 8.84 9.61 9.61 0 0 0 4.86 5.91 13.41 13.41 0 0 0 3 .81 12.33 12.33 0 0 1 7 2.19 5.9 5.9 0 0 0 1.32 1.32c12.1 4 13-18.31 21.52-22.45a.94.94 0 0 0 .56-1.12c4.17-4.35 7.59-9.42 4.8-15.61Z" class="colorc6d0db svgShape"/><path fill="#0085ff" d="M94.76 459.11c-2-4.4-7.21-10.86-12.47-10.54a8.55 8.55 0 0 0-1.7.26s0 0 0 .07c5.35 6.44 5.9 16-.1 22.29-2.18 2.3-6.32 3.39-7.14 6.74a9.82 9.82 0 0 0 .37 4.17c.93 5-4.44 6.21-8.49 6.81s-9.07.17-11.49-3.9c-1-1.77-1.37-3.89-2.12-5.84a17.28 17.28 0 0 0 0 8.84 9.61 9.61 0 0 0 4.86 5.91 13.41 13.41 0 0 0 3 .81 12.33 12.33 0 0 1 7 2.19 5.9 5.9 0 0 0 1.32 1.32c12.1 4 13-18.31 21.52-22.45a.94.94 0 0 0 .56-1.12c4.25-4.3 7.67-9.37 4.88-15.56Z" class="colorabb7c2 svgShape"/><path fill="#c6d1db" d="M67.35 485.76a.92.92 0 0 0-.91-.57 1.28 1.28 0 0 0-1.71 1 17.42 17.42 0 0 0 .42 6.31 1.18 1.18 0 0 0 2.13.27 7.8 7.8 0 0 0 .07-7.01ZM73 483.3a.94.94 0 0 0-1.15 0 1.18 1.18 0 0 0-1.6 1.59 10.08 10.08 0 0 0 4.12 4.11 1.17 1.17 0 0 0 1.71-1.31A7.73 7.73 0 0 0 73 483.3ZM88.26 462.57a12.4 12.4 0 0 0-4-.75 21.62 21.62 0 0 0 3.89-3.05 1.18 1.18 0 0 0-.82-2 7 7 0 0 0-6.57 4.07 1.28 1.28 0 0 0 1.08 1.76 1.6 1.6 0 0 0 .31.1 1.15 1.15 0 0 0 .21 1.12c.94 1.15 2.12 2.35 3.72 2.36a2.91 2.91 0 0 0 3-2.19 1.2 1.2 0 0 0-.82-1.42Z" class="colorc6d0db svgShape"/><path fill="#0085ff" d="M64.08 474.69a4.18 4.18 0 0 0-2.75.24 4.45 4.45 0 0 0-2.82 1.1 2.63 2.63 0 0 0-.37 3.22c1.88 3.13 5.09-1.26 6.45-2.61a1.17 1.17 0 0 0-.51-1.95ZM73.07 458.6a1.18 1.18 0 0 0-2.17.58A24.45 24.45 0 0 0 71 466c.17 1.13 1.52 1 2 .24a1 1 0 0 0 .48-.48 7 7 0 0 0-.41-7.16Z" class="colorabb7c2 svgShape"/><path fill="#c6d1db" d="m72.77 471.56-.39-1.17c-.47-1.41-2.72-.8-2.24.62l.39 1.17c.47 1.41 2.71.82 2.24-.62ZM261.07 371.58a5 5 0 0 0 1.72-1.17c2.77-3.26-.64-5.78-3.1-7.52q-4.65-3.27-9.28-6.56c-2.74-3.36-5.48-6.53-7.95-9.4a28.2 28.2 0 0 0 3.54-17.52 14 14 0 0 0 1.63-12.24c-1.12-3.41-6.13-2.31-6 .8a40.88 40.88 0 0 0-4.88-6.23 13.37 13.37 0 0 0 3.39-6 1.19 1.19 0 0 0-.82-1.43c-1.69-.36-2.91.54-4 1.78l-.29.36a6.75 6.75 0 0 0-.69.83l-1 1.19a72.41 72.41 0 0 0-25.77-14.1l-1.26-.41a10.92 10.92 0 0 0 1.21-8.09 1.17 1.17 0 0 0-1.94-.51 11.78 11.78 0 0 0-3.28 5.13 24.17 24.17 0 0 0-2.4-6 2.83 2.83 0 0 0-1.17-1.14 29.62 29.62 0 0 0-2.29-3 1.18 1.18 0 0 0-1.82.24 8.74 8.74 0 0 0-1.79 5.51c-.07.54-.13 1.07-.2 1.61a62.07 62.07 0 0 1-11.4-9.71 51.28 51.28 0 0 0-5-4.52c2.4-1.63-.36-7.15-1.15-9-.38-.86-1.58-.64-2 0a11.19 11.19 0 0 0-1.88 5.52 43.34 43.34 0 0 0-7.24-3.45c-11.35-4.23-23.61-3.81-35.08-.47a2.51 2.51 0 0 0-.67-2.42c-1.1-1.08-2.22-.17-2.81.87s-1.21 2.2-1.81 3.31c-1.4.53-2.78 1.08-4.14 1.69a85 85 0 0 1-14.08 4.92 24 24 0 0 0 .9-3.13c.22-1.16.67-3-.57-3.74s-2.73.35-3.66 1.07c-2.33 1.83-3.44 4.48-4.12 7.26a89.68 89.68 0 0 1-9.67.85A79.58 79.58 0 0 0 78 277.85c1-2.62 1-6.28-1.65-7.76-3.06-1.71-6.29 2.06-8.16 4a36.83 36.83 0 0 0-5.77 8.08 76.69 76.69 0 0 0-19.25 10.94c-1.27 1-2.4 1.88-3.54 2.75a23.81 23.81 0 0 0-11.26-7.27c-3.51-1-5.09 4-2.23 5.54a27.15 27.15 0 0 0 6.29 6.32c-4 1.76-8.28 2.21-14.62.63-22.29-5.51-36.63 1-46.41 14.41a10.63 10.63 0 0 0-.54-2c-.31-.86-1.64-1.25-2.12-.28a11.42 11.42 0 0 0-1.05 3.37 13.8 13.8 0 0 0-2.35-2.36.88.88 0 0 0-.24-.19c-.12-.1-.22-.19-.35-.28a1 1 0 0 0-1.18 0 5.58 5.58 0 0 0-3.13 4.67A17.7 17.7 0 0 0-37.83 333c-.49 1.29-1 2.63-1.42 4a15.29 15.29 0 0 0-7.75-3.14.9.9 0 0 0-1.05.71 1 1 0 0 0-.1 1.26 10.53 10.53 0 0 0 7.58 4.86l.11.07c-.29.92-.59 1.82-.86 2.76a.69.69 0 0 1-.31.06c-11.5 5.23-16.24 11.62-14.37 24.51 1 7 1.65 14.9 4.81 21.1-4.53 4.42-8.5 9.05-11.07 14.31l-.42-.31a2.64 2.64 0 0 0-2.91-1.87c-2.6-.63-4.64 2.69-3 4.77a18.68 18.68 0 0 0 1.91 9.35l-5.86-.58c-1.1-.1-1.41 1.3-.82 2a11.66 11.66 0 0 0 8.62 4.14 37.48 37.48 0 0 0 4.8 13.2 47.69 47.69 0 0 0 18.79 18c13.38 7.05 27.73 4.62 42 2 12.16-2.19 21-10.83 25.05-22 9.19 5.23 20 1.52 24.57-7.66a26.45 26.45 0 0 0 26.27-8.63c5.17-5.84 5.59-11.25 8-18.31s.42-4.74 7-5.53c3.47-.49 6.87-.37 10.28-1 8.75-1.52 14.9-5.42 22.8-8.76 4.56-1.89 11.07-6.32 16.54-2.31 1.58 1.15 3 5.59 4.2 7.29a36.22 36.22 0 0 0 14 11.32c8.64 3.95 19.1 1.33 26.39 7.42 10.95 9.12 18.43 20.43 34.18 21.28 8.88.48 14.78-2.25 19.82-7.12a61.34 61.34 0 0 0 6.63-8.08c6.93-9.92 20.61-9.37 19.76-24.33-.21-5.36-2.29-10.86-5.27-16.2Z" class="colorc6d0db svgShape"/><path fill="#0085ff" d="M226.59 427.05A23.76 23.76 0 0 0 240 420.2a13.37 13.37 0 0 0-3.4-5.41c-3.83-3.83-9.49-4.56-14.35-6.2-15.63-5.41-16.24-19.76-15.75-34a3.13 3.13 0 0 0-3.84-3 52.1 52.1 0 0 1-23.34-.67c-.43-.37-.92-.67-1.35-1.1-2.24-2.25-1-4.68-1.15-7.48v-.12a.45.45 0 0 0-.06-.24v.02a2.21 2.21 0 0 0-1.09-2c-1.83-1.58-5.29-.91-5 2.07a.76.76 0 0 1 .06.36c-.19 1.93-1.58 2.78-3.35 3.08a12.07 12.07 0 0 1-4.74-3.52 7.06 7.06 0 0 1-2.22-4.6 25.82 25.82 0 0 0-.37-3.62 1.06 1.06 0 0 0-.68-.7 1.2 1.2 0 0 0-2.18-.56 6.89 6.89 0 0 0-.88 5.84c-.45-.42-.9-.83-1.33-1.27-2.74-2.79-4.74-6.69-8.21-8.75-7.3-4.44-15-4.93-21-12.23a3 3 0 0 0-4.25 0 142.31 142.31 0 0 1-13.87 12.11c-3.46 0-6.69-.92-8.39-4-1.82-3.28-6.51-.67-5.41 2.49a2.49 2.49 0 0 0 .91 2.38c4.74 3.95-3.83 7.6-6.69 8.39a2.33 2.33 0 0 0-1.22.67c-7.17 1-14.35-.67-20.85-7.24a3.13 3.13 0 0 0-4.32 0c-8.21 7-7.79 16.66-13.56 24.57-4.5 3.59-20.86-1.16-19 2.25a13.59 13.59 0 0 0 6 5.47 37.73 37.73 0 0 0-6.33 2.25c-8.7 4.3-12.17 11.56-24.03 5.56a18.69 18.69 0 0 1-4-5.59c-1.64-3.53-6.94-.43-5.29 3.1a26.07 26.07 0 0 0 4 6c.85 16.24.43 34.3-16.42 42.63-14.1 6.93-29.37 3.16-43-2.92a47.69 47.69 0 0 0 18.79 18c9.92 5.23 20.38 5.24 31 3.83a15.69 15.69 0 0 0-1.06 2.27c-.39 1 .75 1.64 1.57 1.31a1.16 1.16 0 0 0 1.2.12 11.92 11.92 0 0 0 5.24-4.79l4.12-.73a31.1 31.1 0 0 0 13.53-6 2.32 2.32 0 0 0 2.56 1.63 1.77 1.77 0 0 0 .8-.34 1.14 1.14 0 0 0 1.12-1.11 41.31 41.31 0 0 0 0-4.31 36.38 36.38 0 0 0 7.07-11.92c9.19 5.23 20 1.52 24.57-7.66a27.51 27.51 0 0 0 8.29.56 7.36 7.36 0 0 0 .49 2.34 1.23 1.23 0 0 0 1.3.78.94.94 0 0 0 1.44-.11 11.1 11.1 0 0 0 2.08-4 27.23 27.23 0 0 0 12.67-8.22c5.17-5.84 5.59-11.25 8-18.31s.42-4.74 7-5.53c3.47-.49 6.87-.37 10.28-1a50.41 50.41 0 0 0 11.79-3.73 16.61 16.61 0 0 0 4.11 1.76 1.17 1.17 0 0 0 1.47-1.12 2.45 2.45 0 0 0-1.18-2.15 3.2 3.2 0 0 0-.57-.24l3.25-1.53c.16.39.34.77.54 1.15a1.18 1.18 0 0 0 2.13-.28 8.62 8.62 0 0 0 .5-2.28l.76-.34c4.56-1.89 11.07-6.32 16.54-2.31 1.58 1.15 3 5.59 4.2 7.29a36.1 36.1 0 0 0 12.2 10.36A34.65 34.65 0 0 0 162 404a1.16 1.16 0 0 0 1.94-.52 9.93 9.93 0 0 0-.14-3.5 88.3 88.3 0 0 0 9.82 1.54 6 6 0 0 0 1.86 4.94 1.18 1.18 0 0 0 2-.51 11.41 11.41 0 0 0 .15-3.77A19 19 0 0 1 186 406c10.83 9 18.27 20.16 33.67 21.23a20.79 20.79 0 0 0 7.61 3.07c1 .19 2.12-1.13 1.13-1.94-.57-.45-1.19-.89-1.82-1.31ZM1.57 343.63a25.82 25.82 0 0 0-7.22-11.57 3.12 3.12 0 0 0-5.06 1.42 2.72 2.72 0 0 0-.42 2.47 19.15 19.15 0 0 0 8.24 11.11c2.21 1.44 5.23-.95 4.46-3.43ZM64.49 319.88c.55-3.35-4.77-4.66-5.92-1.12a24.46 24.46 0 0 0-1.15 9.76c.24 2.73 4.23 4.49 5.67 1.54a15.8 15.8 0 0 0 1.4-10.18Z" class="colorabb7c2 svgShape"/><path fill="#c6d1db" d="M139.8 341.71a1 1 0 0 0-.61-.47v-.05c.46-1.43-1.78-2-2.25-.62-1 3.13-1.55 7 .53 9.61a1 1 0 0 0 .13.16 6 6 0 0 0 1.8 1.45 1.18 1.18 0 0 0 1.71-.7 15.8 15.8 0 0 0-1.31-9.38ZM113.78 340.87a1.19 1.19 0 0 0-1.53 1.63 8.86 8.86 0 0 0 5.08 4.28 1.18 1.18 0 0 0 1.43-1.44 5.72 5.72 0 0 0-4.98-4.47ZM100 354.3a29.36 29.36 0 0 0-7.53-7.13c-1.26-.83-2.43 1.19-1.18 2a27.39 27.39 0 0 1 3 2.33l-.42-.13h-.15c-.67-.14-1.41.2-1.32 1.06v.62a1.17 1.17 0 0 0-.91.33v-.32a1.17 1.17 0 0 0-2.29-.31c-1.42 4.05-1.24 8.72 2.66 11.27a1.17 1.17 0 0 0 1.71-.69 26.36 26.36 0 0 0 1.27-7.89 5.86 5.86 0 0 0 4.41.55 1.17 1.17 0 0 0 .75-1.69ZM37.62 383.7a57.3 57.3 0 0 0-9.66-3 5.88 5.88 0 0 0-1 4.15A11.23 11.23 0 0 0 37.62 386a1.18 1.18 0 0 0 0-2.3ZM46.57 380.93a21.94 21.94 0 0 0-4.31-6.19 1.15 1.15 0 0 0-1.89.48c-.91-1.13-2.89 0-2 1.2a25.56 25.56 0 0 0 6.6 6.1c1.08.68 2.03-.61 1.6-1.59ZM4.14 412.89a32.37 32.37 0 0 0-6-10.59c-1-1.14-2.61.51-1.65 1.65.37.44.7.9 1 1.35a1.1 1.1 0 0 0-.83 1.09 9.65 9.65 0 0 0 6 7.93c.87.34 1.75-.66 1.48-1.43ZM189.92 371c-.18-.86-1.21-1.5-1.88-.64-2.08 2.68-4.27 6.54-1.26 9.46a1.18 1.18 0 0 0 1.94-.52 34.4 34.4 0 0 0 1.83-7 1.22 1.22 0 0 0-.63-1.3ZM208.58 387.44a.91.91 0 0 0-.91-.43 4.62 4.62 0 0 0-3.84 2.18 3.42 3.42 0 0 0 .54 4 1.16 1.16 0 0 0 1.64 0 20.77 20.77 0 0 0 3.17-4.11 1.1 1.1 0 0 0-.6-1.64ZM220.81 404.62a1.07 1.07 0 0 0-1.09-.52 55.49 55.49 0 0 1-1-5.72c-.17-1.47-2.49-1.49-2.32 0a51.16 51.16 0 0 0 1.94 9.9c.61 1.92 1.41 3.4 3.32 4.19a1.16 1.16 0 0 0 1.47-1.12 15.74 15.74 0 0 0-2.32-6.73Z" class="colorc6d0db svgShape"/><path fill="#0085ff" d="M104.73 305.77c-.25-1.68-1.16-6.8-3.41-7.11s-2.81 3.61-3 5a14.08 14.08 0 0 0 2.11 9.23 1.31 1.31 0 0 0 .11.12c0 .25 0 .51.08.76a1.18 1.18 0 0 0 2.17.59 11.87 11.87 0 0 0 1.94-8.59ZM128 296.53a1.17 1.17 0 0 0-1.47-1.12 12.88 12.88 0 0 0-9.29 8.09l-.32.39a.88.88 0 0 0-.06 1 1.19 1.19 0 0 0 1.83.77 9.06 9.06 0 0 0 9.31-9.13ZM158 319.26a1.18 1.18 0 0 0-2 0 11.6 11.6 0 0 0-2 10.2 1 1 0 0 0 .17.34 5.48 5.48 0 0 0 2 3.63c.65.49 1.48-.07 1.71-.7 1.62-4.44 2.75-9.2.12-13.47ZM190.34 297.89a23.85 23.85 0 0 0-8 1.16 6.43 6.43 0 0 0-3.8 3.67 2.79 2.79 0 0 0-1 2.53c.7 5 9.62-.25 11.61-1.31 1.46-.78 3-1.87 3.37-3.61s-.64-2.43-2.18-2.44ZM215.38 327.62a19.15 19.15 0 0 0-10.66-2.41 2.47 2.47 0 0 0-2.08 3.36 1.9 1.9 0 0 0 .79 1.33 11.46 11.46 0 0 0 11.4 2c1.75-.71 2.45-3.24.55-4.28ZM225.6 358.92c-2.23-1.3-3.77 1-4.43 2.78a18 18 0 0 0-1.06 5.86c-.06 2.34 2.74 2.83 4 1.51a1.87 1.87 0 0 0 .78-.53 8.88 8.88 0 0 0 2.16-4.57c.28-1.71.24-4.06-1.45-5.05Z" class="colorabb7c2 svgShape"/><path fill="#c6d1db" d="M241.62 380.6a7.35 7.35 0 0 0-6.05-2.56 2.38 2.38 0 0 0-2.32 2.33 2.26 2.26 0 0 0 .15.71c0 .05-.07.09-.08.15a2.36 2.36 0 0 0 1.62 2.86 11.52 11.52 0 0 0 5.65.4c1.9-.29 2.02-2.71 1.03-3.89Z" class="colorc6d0db svgShape"/><path fill="#0085ff" d="M216.72 478.49a169.75 169.75 0 0 1-39.83 5.4c2.57-3.27 3.91-16.76 1.92-13.39a86.08 86.08 0 0 1-16.56 20.2c1.27-3.91-5.37-14.64-4.83-10.8a19.85 19.85 0 0 1-6.66 17.56c-.84.76-11.8 6.06-18 8.17.41-3.8.53-5.07.86-8.91 1.75-20.24-.84-39.68-1.86-59.83-1.15-22.72 5.39-47.23 7.13-73 .27-3.89-15.54 56.37-17.38 81a77.24 77.24 0 0 0-4.51-12.55 107.73 107.73 0 0 0-12.32-19.79c.15-.34-6.46-33.19-6.21-29.28.49 7.4.58 14.8.47 22.21-5.24-6.13-23.4-16.24-20.68-13.42 14.72 15.25 30.31 31.3 36.83 52 3.44 10.95 4.36 22.66 4.14 34.39-13.48-.29-24.68-1.54-40-10A60 60 0 0 0 119 484.51c-.37 7.67-1.14 15.28-2 22.63-4.2 37.81-5 101.34-4.71 140.74a2.71 2.71 0 0 0 1.89 3.9 69.09 69.09 0 0 0 17.59 1.65 3.24 3.24 0 0 0 2.93-3.85c-4.67-35.94-7.13-98.49-3-134.71a91.76 91.76 0 0 0 40.15-25.19 2.94 2.94 0 0 0 1.47.39c15.34.03 47.19-12.57 43.4-11.58ZM517.43 607.22a1.13 1.13 0 0 0-.66-.9 11.82 11.82 0 0 0-7.11.11c-2.54.88-3.82 3-4.93 5.31a41 41 0 0 0-3.84 2 14.46 14.46 0 0 0 .63-4.38c0-1.48-.24-5.83-2.8-5.21-1.92.46-3.36 4.61-3.85 6.24a9 9 0 0 0 .65 7.08 51.17 51.17 0 0 0-6.22 6 14.33 14.33 0 0 0 0-4c-.21-1.47-1-5.76-3.43-4.83-1.84.69-2.76 5-3 6.67a8.86 8.86 0 0 0 1.87 7.41 1.17 1.17 0 0 0-.14.87q-2 3-3.78 6.19c-.06.13-.12.24-.19.36a14.47 14.47 0 0 0-.92-4.33c-.53-1.38-2.24-5.39-4.44-3.93-1.63 1.09-1.55 5.49-1.44 7.19a8.86 8.86 0 0 0 3.5 6.8 1.2 1.2 0 0 0 0 .65c-.83 1.69-1.61 3.37-2.38 5.09a14.59 14.59 0 0 0-1.35-3.26 9.76 9.76 0 0 0-2.84-3.37c-.29-2.23-4-2.16-6-1.62a16.45 16.45 0 0 0-5.22 2.45q1.07-4.95 2.25-9.87c4.35 0 13.12-2.64 13.25-6 .09-2.61-3.91-2.56-6-2a16.46 16.46 0 0 0-5.94 3q1-4 2.21-8c4.58.29 12.33-1 12.91-4.09.48-2.56-3.49-3.1-5.68-2.87a16.48 16.48 0 0 0-5.57 1.66 80.82 80.82 0 0 1 3.32-8.31c4.41 1.3 12.17 1.74 13.42-1.1 1.06-2.38-2.68-3.8-4.88-4.07a16.5 16.5 0 0 0-6.07.43 49.89 49.89 0 0 1 5.56-7.87c3.85 2.05 12.75 4 14.48 1.05 1.34-2.24-2.19-4.11-4.34-4.64a16.52 16.52 0 0 0-6.3-.28 38.45 38.45 0 0 1 5.09-3.86.76.76 0 0 0 .27.06c2.54.12 5.91-.1 7.95-1.82a6.69 6.69 0 0 0 1.82-6.2 1.1 1.1 0 0 0-.78-.78 11.77 11.77 0 0 0-7 1.19c-2.37 1.26-3.3 3.57-4.05 6v.06a39.23 39.23 0 0 0-3.49 2.57 14.58 14.58 0 0 0-.05-4.42c-.25-1.47-1.14-5.73-3.58-4.73-1.82.76-2.6 5.08-2.83 6.77a9 9 0 0 0 1.73 6.89 50.71 50.71 0 0 0-5.22 6.89 14.47 14.47 0 0 0-.6-3.93c-.43-1.42-1.84-5.55-4.14-4.25-1.71 1-1.95 5.36-2 7.06a8.88 8.88 0 0 0 3 7 1.12 1.12 0 0 0 0 .88c-1 2.17-1.95 4.41-2.78 6.69-.05.13-.09.27-.13.4a14.62 14.62 0 0 0-1.58-4.14c-.74-1.29-3-5-5-3.21-1.45 1.33-.69 5.66-.32 7.32a8.87 8.87 0 0 0 4.51 6.18 1.19 1.19 0 0 0 .11.72c-.54 1.78-1.06 3.58-1.56 5.38a14.34 14.34 0 0 0-1.87-3.07c-.92-1.16-3.76-4.47-5.41-2.42-1.24 1.53.17 5.7.78 7.28a9 9 0 0 0 4.72 5.16c-.75 3.1-1.45 6.2-2.12 9.32a14.28 14.28 0 0 0-2.19-3.91l-.42-.51a3 3 0 0 0-.48-1.91 6.43 6.43 0 0 0-4.52 0 3.09 3.09 0 0 0-.48 1.91l-.54.58a14.31 14.31 0 0 0-2.2 3.91c-.66-3.12-1.37-6.22-2.11-9.32a9 9 0 0 0 4.71-5.16c.61-1.58 2-5.75.79-7.28-1.66-2.05-4.5 1.26-5.42 2.42a14.34 14.34 0 0 0-1.87 3.07c-.5-1.8-1-3.6-1.56-5.38a1.19 1.19 0 0 0 .11-.72 8.87 8.87 0 0 0 4.55-6.14c.37-1.66 1.13-6-.32-7.32-1.94-1.78-4.25 1.92-5 3.21a14.62 14.62 0 0 0-1.58 4.14c0-.13-.08-.27-.13-.4-.82-2.28-1.75-4.52-2.78-6.69a1.12 1.12 0 0 0 0-.88 8.88 8.88 0 0 0 3-7c0-1.7-.26-6.09-2-7.06-2.3-1.3-3.71 2.83-4.14 4.25a14.47 14.47 0 0 0-.6 3.93 50.71 50.71 0 0 0-5.22-6.89 8.92 8.92 0 0 0 1.73-6.89c-.23-1.69-1-6-2.83-6.77-2.44-1-3.33 3.26-3.58 4.73a14.58 14.58 0 0 0-.05 4.42 40.58 40.58 0 0 0-3.48-2.57.13.13 0 0 1 0-.06c-.75-2.43-1.68-4.74-4.05-6a11.77 11.77 0 0 0-7-1.19 1.1 1.1 0 0 0-.78.78 6.71 6.71 0 0 0 1.82 6.2c2 1.72 5.41 1.94 7.95 1.82a.76.76 0 0 0 .27-.06 39.22 39.22 0 0 1 5.1 3.86 16.58 16.58 0 0 0-6.31.28c-2.15.53-5.68 2.4-4.34 4.64 1.73 2.9 10.64 1 14.48-1.05a50.61 50.61 0 0 1 5.57 7.87 16.57 16.57 0 0 0-6.08-.43c-2.2.27-5.93 1.69-4.88 4.07 1.25 2.84 9 2.4 13.42 1.1a78.61 78.61 0 0 1 3.32 8.31 16.43 16.43 0 0 0-5.56-1.66c-2.2-.23-6.17.31-5.68 2.87.57 3.07 8.32 4.38 12.9 4.09q1.17 4 2.22 8a16.59 16.59 0 0 0-5.95-3c-2.14-.57-6.14-.62-6 2 .12 3.38 8.9 6 13.24 6q1.18 4.92 2.25 9.87a16.45 16.45 0 0 0-5.22-2.45c-1.94-.51-5.39-.6-6 1.33-1.72-.3-3.48 2.56-4.12 3.66a14.55 14.55 0 0 0-1.34 3.26c-.77-1.72-1.56-3.4-2.39-5.09a1 1 0 0 0 0-.65 8.9 8.9 0 0 0 3.51-6.8c.1-1.7.19-6.1-1.45-7.19-2.2-1.46-3.91 2.55-4.44 3.93a14.45 14.45 0 0 0-.91 4.33l-.2-.36q-1.75-3.2-3.78-6.19a1.16 1.16 0 0 0-.13-.87 8.85 8.85 0 0 0 1.86-7.41c-.28-1.67-1.19-6-3-6.67-2.48-.93-3.23 3.36-3.44 4.83a14.72 14.72 0 0 0 0 4 50.54 50.54 0 0 0-6.23-6 8.89 8.89 0 0 0 .65-7.08c-.49-1.63-1.92-5.78-3.84-6.24-2.57-.62-2.79 3.73-2.81 5.21a14.46 14.46 0 0 0 .64 4.38 42.5 42.5 0 0 0-3.85-2c-1.11-2.29-2.39-4.43-4.93-5.31a11.82 11.82 0 0 0-7.11-.11 1.13 1.13 0 0 0-.66.9 6.69 6.69 0 0 0 2.76 5.85c2.28 1.39 5.64 1.08 8.14.58a.8.8 0 0 0 .25-.11 39.36 39.36 0 0 1 5.63 3 16.6 16.6 0 0 0-6.19 1.25c-2 .86-5.24 3.25-3.57 5.25 2.16 2.6 10.66-.65 14.15-3.26a50.55 50.55 0 0 1 6.71 6.93 16.41 16.41 0 0 0-6.07.5c-2.13.6-5.6 2.58-4.19 4.78 1.67 2.61 9.28 1 13.43-1a82.69 82.69 0 0 1 4.57 7.71 16.23 16.23 0 0 0-5.76-.79c-2.21.1-6.05 1.25-5.17 3.7 1 2.94 8.92 3.06 13.39 2.06 1.26 2.66 2.32 5 3.4 7.56a16.43 16.43 0 0 0-6.32-2c-2.2-.22-6.16.33-5.67 2.9.64 3.32 9.75 4.56 14 3.91.62.8 2.26 0 2.11-1-.1-.23-.19-.45-.28-.68a9 9 0 0 0 3.86-5.81 20.54 20.54 0 0 0 .5-4.53c2.6 1.88 7.42 3.2 10.63 3.42l.84 4.1a16.63 16.63 0 0 0-5.39-2.65c-2.14-.56-6.13-.61-6 2 .11 3.24 8.19 5.78 12.69 6a1.17 1.17 0 0 0 1.8-.46 22.41 22.41 0 0 0 2.21-1.84 21.27 21.27 0 0 0 2.22 1.84 1.16 1.16 0 0 0 1.79.46c4.5-.24 12.58-2.78 12.7-6a2.45 2.45 0 0 0 0-.48 8.51 8.51 0 0 0 3.23 3.87l-.27.68c-.16 1 1.48 1.82 2.1 1 4.29.65 13.4-.59 14-3.91.5-2.57-3.46-3.12-5.67-2.9a16.48 16.48 0 0 0-6.32 2c1.08-2.54 2.14-4.9 3.4-7.56 4.48 1 12.35.88 13.4-2.06.87-2.45-3-3.6-5.17-3.7a16.2 16.2 0 0 0-5.76.79 82.6 82.6 0 0 1 4.56-7.71c4.16 2 11.76 3.59 13.44 1 1.41-2.2-2.07-4.18-4.19-4.78a16.47 16.47 0 0 0-6.08-.5 50.62 50.62 0 0 1 6.72-6.93c3.48 2.61 12 5.86 14.14 3.26 1.67-2-1.53-4.39-3.57-5.25a16.53 16.53 0 0 0-6.19-1.25 39.9 39.9 0 0 1 5.63-3 .76.76 0 0 0 .26.11c2.49.5 5.86.81 8.14-.58a6.74 6.74 0 0 0 2.72-5.88Zm-65.55 36.63a4.12 4.12 0 0 0 .28-.31c.09.11.19.21.28.31l-.28.27Zm10.94 5.15a16.63 16.63 0 0 0-5.37 2.56l.84-4.1a25.86 25.86 0 0 0 9.42-2.66 21.62 21.62 0 0 0 .5 3.77 10.93 10.93 0 0 0 .42 1.41c-.87-1.59-4-1.48-5.81-.98Z" class="colorabb7c2 svgShape"/><path fill="#c6d1db" d="M215.13 369.23c4.79 21.51 17.39 36.52 37.38 48.27 12.79 7.52 28.6 13.68 47.31 19.38 1.3.38 10.62.26 12.39-.06 54.82-10.25 82-57.26 85.56-98.21a126.64 126.64 0 0 0-9.52-59.14 149.46 149.46 0 0 0-33.12-48.77c-12.41-12.27-34.47-33.63-57.35-28.54-11.72 2.61-19.76 11.36-26.84 18.58a252.37 252.37 0 0 0-22.08 25.56c-27.56 36.7-43.31 80.24-33.73 122.93Z" class="colorc6d0db svgShape"/><path fill="#0085ff" d="M252.51 417.5c12.79 7.52 28.6 13.68 47.31 19.38 1.3.38 10.62.26 12.39-.06 54.82-10.25 82-57.26 85.56-98.21a126.64 126.64 0 0 0-9.52-59.14c1.07 16.25-1.89 33.25-5.34 49.11-3.65 16.86-10 33.64-23.06 47.5s-32.85 22.36-52.52 29.47c-17.57 6.35-35.77 10.94-54.82 11.95Z" class="colorabb7c2 svgShape"/><path fill="#c6d1db" d="M383.72 335.05a1.21 1.21 0 0 0 .57.59 1.75 1.75 0 0 0 1.83.8c5.88-.76 11.69-1.38 15.55-5.35 4.73-4.85 4.2-11.66 4.41-17.43a1.76 1.76 0 0 0-2.5-1.35c-9.96 4.46-24.91 11.97-19.86 22.74ZM369.08 281.91a1.53 1.53 0 0 0 .73.47 1.89 1.89 0 0 0 2 .44c5.49-1.8 11-3.45 13.59-8 3.2-5.57.73-12.11-.73-17.76a1.92 1.92 0 0 0-2.82-.86c-8.4 6.12-20.79 16.14-12.77 25.71ZM354 254.84a1.49 1.49 0 0 0 .73.46 1.9 1.9 0 0 0 2 .45c5.5-1.8 11-3.46 13.6-8 3.2-5.58.73-12.11-.74-17.76a1.91 1.91 0 0 0-2.82-.86c-8.42 6.12-20.77 16.13-12.77 25.71ZM337.79 241.3a1.44 1.44 0 0 0 .73.46 1.89 1.89 0 0 0 2 .45c5.49-1.8 11-3.45 13.59-8 3.2-5.57.73-12.11-.73-17.76a1.92 1.92 0 0 0-2.82-.86c-8.39 6.12-20.79 16.13-12.77 25.71ZM319.76 224.42a1.59 1.59 0 0 0 .79.39 2 2 0 0 0 2.08.24c5.16-2.35 10.32-4.55 12.17-9.34 2.27-5.86-1.24-12.08-3.61-17.54a2 2 0 0 0-2.94-.56c-7.34 6.94-18.01 18.13-8.49 26.81ZM230.72 256.18a1.91 1.91 0 0 0-2.82.86c-1.46 5.65-3.94 12.19-.73 17.76 2.62 4.57 8.1 6.22 13.59 8a1.89 1.89 0 0 0 2-.44 1.58 1.58 0 0 0 .73-.47c8.04-9.55-4.36-19.57-12.77-25.71Z" class="colorc6d0db svgShape"/><path fill="#0085ff" d="M245.82 239.22a1.9 1.9 0 0 0-2.82.86c-1.46 5.65-3.93 12.18-.73 17.75 2.62 4.57 8.1 6.23 13.59 8a1.91 1.91 0 0 0 2-.45 1.53 1.53 0 0 0 .73-.47c8.04-9.54-4.35-19.56-12.77-25.69Z" class="colorabb7c2 svgShape"/><path fill="#c6d1db" d="M262 215.57a1.91 1.91 0 0 0-2.82.86c-1.46 5.65-3.94 12.19-.73 17.76 2.62 4.57 8.09 6.22 13.59 8a1.9 1.9 0 0 0 2-.45 1.49 1.49 0 0 0 .73-.46c8.05-9.56-4.35-19.57-12.77-25.71ZM284.33 197.61a2 2 0 0 0-2.93.56c-2.37 5.46-5.89 11.68-3.62 17.54 1.86 4.79 7 7 12.18 9.34a2 2 0 0 0 2.07-.24 1.58 1.58 0 0 0 .8-.39c9.51-8.68-1.15-19.87-8.5-26.81ZM302.41 211.17a1.78 1.78 0 0 0 .88.26 2 2 0 0 0 2.09-.07c4.52-3.06 9.08-6 9.78-11 .86-6.09-4.05-11.69-7.66-16.7a2 2 0 0 0-3-.13c-5.61 7.94-13.5 20.47-2.09 27.64ZM382.72 350.83a1 1 0 0 0 .14.73A1.3 1.3 0 0 0 384 353c5.58 1.62 11 3.33 16.86 1.37 7.12-2.39 10.89-8.53 14.64-13.47a1.39 1.39 0 0 0-1.34-2.14c-11.48-.02-29.16.72-31.44 12.07Z" class="colorc6d0db svgShape"/><path fill="#0085ff" d="M350 374.75a.94.94 0 0 0 .14.73 1.3 1.3 0 0 0 1.1 1.41c5.59 1.62 11 3.33 16.87 1.37 7.12-2.39 10.88-8.53 14.63-13.47a1.39 1.39 0 0 0-1.34-2.14c-11.4.01-29.13.75-31.4 12.1Z" class="colorabb7c2 svgShape"/><path fill="#c6d1db" d="M325.94 384a1 1 0 0 0-.29.7 1.11 1.11 0 0 0 .17 1.66c4.06 3.44 7.94 6.92 14.26 7.26 7.72.42 14.58-3.7 20.75-6.77a1.26 1.26 0 0 0 0-2.39c-10.18-4.1-26.37-9.78-34.89-.46ZM299.62 399a1.07 1.07 0 0 0-.3.71 1.1 1.1 0 0 0 .18 1.65c4.05 3.44 7.93 6.92 14.26 7.27 7.72.41 14.58-3.71 20.75-6.77a1.27 1.27 0 0 0 0-2.4c-10.18-4.05-26.38-9.73-34.89-.46Z" class="colorc6d0db svgShape"/><path fill="#0085ff" d="M362 351.43a1.08 1.08 0 0 0 .33.69 1.49 1.49 0 0 0 1.46 1.2c5.89.65 11.67 1.42 16.85-1.47 6.33-3.52 8.37-10.15 10.72-15.61.4-.92-.53-2.1-1.88-1.87-11.16 1.92-28.26 5.63-27.48 17.06Z" class="colorabb7c2 svgShape"/><path fill="#c6d1db" d="M324.74 424a1 1 0 0 0-.39.49.86.86 0 0 0-.26 1.26c2.22 3.17 4.3 6.34 8.94 7.53 5.66 1.46 11.76-.61 17.1-2 .9-.24 1.39-1.24.59-1.79-6.67-4.59-17.42-11.23-25.98-5.49ZM376.56 382.18a1.11 1.11 0 0 0 .37.68 1.53 1.53 0 0 0 1.53 1.14c5.92.43 11.74 1 16.74-2.1 6.11-3.75 7.76-10.45 9.79-16 .34-.93-.66-2.08-2-1.8-11.05 2.35-27.91 6.65-26.43 18.08Z" class="colorc6d0db svgShape"/><path fill="#0085ff" d="M215 285.59a1.76 1.76 0 0 0-2.5 1.35c.21 5.76-.31 12.57 4.41 17.42 3.87 4 9.68 4.59 15.55 5.35a1.73 1.73 0 0 0 1.83-.8 1.25 1.25 0 0 0 .58-.58c5.02-10.78-9.94-18.28-19.87-22.74ZM194.28 309.73a1.39 1.39 0 0 0-1.34 2.15c3.75 4.94 7.51 11.08 14.64 13.47 5.83 2 11.28.24 16.86-1.37a1.31 1.31 0 0 0 1.11-1.41 1 1 0 0 0 .14-.73c-2.28-11.35-19.96-12.09-31.41-12.11Z" class="colorabb7c2 svgShape"/><path fill="#c6d1db" d="M201.32 383.51a1.31 1.31 0 0 0-.79 2.31c4.9 4.27 10.09 9.71 17.67 11 6.2 1 11.12-1.49 16.2-3.94a1.18 1.18 0 0 0 .74-1.55 1 1 0 0 0 0-.74c-5.06-10.82-22.59-8.83-33.82-7.08ZM229.78 406.32a1.31 1.31 0 0 0-.79 2.31c4.89 4.27 10.09 9.71 17.66 11 6.2 1 11.13-1.5 16.21-3.94a1.2 1.2 0 0 0 .74-1.56 1 1 0 0 0-.05-.74c-5.01-10.81-22.55-8.81-33.77-7.07Z" class="colorc6d0db svgShape"/><path fill="#0085ff" d="M250.82 421.68A1.31 1.31 0 0 0 250 424c4.89 4.27 10.09 9.71 17.66 11 6.21 1 11.13-1.5 16.21-3.95a1.18 1.18 0 0 0 .74-1.55 1 1 0 0 0 0-.74c-5.03-10.82-22.56-8.82-33.79-7.08Z" class="colorabb7c2 svgShape"/><path fill="#c6d1db" d="M276.88 436.29c-.68.44-.3 1.27.43 1.48 4.34 1.23 9.29 3.05 14 2 3.85-.89 5.65-3.46 7.57-6a.7.7 0 0 0-.18-1 .69.69 0 0 0-.3-.4c-6.86-4.94-15.91.3-21.52 3.92ZM328.41 436.29a.87.87 0 0 1-.37 1.48c-3.68 1.23-7.87 3.05-11.86 2-3.27-.89-4.8-3.46-6.42-6a.78.78 0 0 1 .14-1 .75.75 0 0 1 .26-.4c5.84-4.94 13.48.3 18.25 3.92Z" class="colorc6d0db svgShape"/><path fill="#0085ff" d="M205.41 335.12c-1.34-.28-2.33.87-2 1.8 2 5.54 3.67 12.23 9.78 16 5 3.08 10.83 2.53 16.75 2.1a1.51 1.51 0 0 0 1.52-1.14 1.13 1.13 0 0 0 .38-.68c1.48-11.44-15.38-15.74-26.43-18.08Z" class="colorabb7c2 svgShape"/><path fill="#c6d1db" d="M205.41 354c-1.34-.28-2.33.87-2 1.8 2 5.54 3.67 12.23 9.78 16 5 3.08 10.83 2.53 16.75 2.1a1.51 1.51 0 0 0 1.52-1.14 1.13 1.13 0 0 0 .38-.68c1.48-11.46-15.38-15.76-26.43-18.08ZM338.12 410.3a1.05 1.05 0 0 0-.3.7 1.1 1.1 0 0 0 .16 1.65c4 3.47 7.88 7 14.2 7.34 7.71.46 14.61-3.63 20.81-6.66a1.27 1.27 0 0 0 .05-2.4c-10.18-4.13-26.33-9.93-34.92-.63Z" class="colorc6d0db svgShape"/><path fill="#c6d1db" d="M352.54 401.17a1 1 0 0 0-.13.73 1.14 1.14 0 0 0 .56 1.6c4.77 2.8 9.39 5.67 15.69 5.09 7.68-.7 13.48-5.74 18.85-9.65a1.28 1.28 0 0 0-.52-2.35c-10.99-2.59-28.22-5.8-34.45 4.58ZM284.88 233.11a1.22 1.22 0 0 0 .57.12 1.24 1.24 0 0 0 1.31-.17c2.55-2.17 5.14-4.26 5.12-7.42 0-3.86-3.6-7.09-6.31-10a1.28 1.28 0 0 0-1.91.09c-2.78 5.27-6.55 13.56 1.22 17.38ZM242.55 320.88a1.29 1.29 0 0 0 .59 0 1.12 1.12 0 0 0 1.2-.44c1.73-2.63 3.51-5.19 2.43-8.24-1.32-3.71-5.87-6.06-9.48-8.31-.61-.38-1.69-.19-1.8.49-.9 5.62-1.72 14.47 7.06 16.5Z" class="colorc6d0db svgShape"/><path fill="#0085ff" d="M283.73 338.4a1.06 1.06 0 0 0 .55.18 1.23 1.23 0 0 0 1.32 0c2.91-1.86 5.85-3.64 6.4-6.77.68-3.82-2.29-7.42-4.45-10.63a1.28 1.28 0 0 0-1.9-.12c-3.65 4.88-8.93 12.69-1.92 17.34Z" class="colorabb7c2 svgShape"/><path fill="#c6d1db" d="M332.85 296.18a1.33 1.33 0 0 0 .57.58 1.75 1.75 0 0 0 1.84.8c5.87-.76 11.68-1.38 15.55-5.35 4.72-4.85 4.2-11.66 4.41-17.43a1.75 1.75 0 0 0-2.5-1.34c-9.96 4.45-24.92 11.96-19.87 22.74Z" class="colorc6d0db svgShape"/><path fill="#0085ff" d="M286.7 286.22a2.58 2.58 0 0 0 1.07 0 2.7 2.7 0 0 0 2.34-.57c4.06-3.82 8.21-7.53 7.31-12.13-1.09-5.61-8.52-9.37-14.28-12.93-1-.6-3-.38-3.44.63-3.63 8.39-8.24 21.46 7 25Z" class="colorabb7c2 svgShape"/><path fill="#c6d1db" d="M325.22 242.82a1.57 1.57 0 0 0 .58.51 2.08 2.08 0 0 0 1.73.79c5.05-.09 10.06-.08 12.91-2.89 3.48-3.43 2.08-8.87 1.47-13.42a2 2 0 0 0-2.39-1.29c-8.13 2.67-20.23 7.32-14.3 16.3ZM327.24 351.66a1.52 1.52 0 0 0 .59.51 2.08 2.08 0 0 0 1.72.8c5.05-.09 10.07-.08 12.92-2.9 3.47-3.43 2.07-8.87 1.46-13.42a2 2 0 0 0-2.38-1.28c-8.13 2.63-20.24 7.32-14.31 16.29ZM321.88 437c-4.62 7.1-5.17 14.94-2.65 24.22a100.45 100.45 0 0 0 8.31 19.76 34.53 34.53 0 0 0 3.61 3.83c18.77 14.36 39.81 10.56 52.28 1a44 44 0 0 0 13.76-18.39 57.15 57.15 0 0 0 4-23c-.17-7.06-.6-19.49-8.66-25.27-4.13-3-8.91-3.18-13-3.49a101.1 101.1 0 0 0-13.56-.2c-18.21.92-34.97 7.38-44.09 21.54Z" class="colorc6d0db svgShape"/><path fill="#0085ff" d="M319.23 461.17a100.45 100.45 0 0 0 8.31 19.76 34.53 34.53 0 0 0 3.61 3.83c18.77 14.36 39.81 10.56 52.28 1a44 44 0 0 0 13.76-18.39c-4.23 4.58-9.84 8.09-15.28 11.16-5.77 3.26-12.29 5.67-20 5.23s-15.79-4.38-23.48-8.63a89.39 89.39 0 0 1-19.2-13.96ZM384.28 407.55a1 1 0 0 0-1.37-.88c-2.84 1.71-6.4 3.34-7.51 7.06-.92 3 .39 6.13 1.64 9.29a1 1 0 0 0 .92.69.69.69 0 0 0 .45.13c6.81-.47 6.41-10.06 5.87-16.29Z" class="colorabb7c2 svgShape"/><path fill="#c6d1db" d="M354.44 411.29a1 1 0 0 0-1.38-.88c-2.83 1.71-6.39 3.34-7.5 7.06-.92 3 .39 6.14 1.64 9.29a1 1 0 0 0 .92.7.74.74 0 0 0 .45.12c6.8-.47 6.43-10.05 5.87-16.29ZM337.4 414.82a1 1 0 0 0-1.56-.44c-2.21 2.47-5.14 5.07-5.12 8.95 0 3.18 2.17 5.75 4.29 8.4a1 1 0 0 0 1.08.4.76.76 0 0 0 .47 0c6.37-2.45 3.18-11.5.84-17.31ZM399.7 417.94a1 1 0 0 0-.37-1.59c-3.23-.75-6.92-2.06-10.31-.17-2.78 1.55-4 4.67-5.29 7.81a1 1 0 0 0 .17 1.13.71.71 0 0 0 .23.41c5.21 4.41 11.61-2.75 15.57-7.59ZM407.1 433.47a.91.91 0 0 1 .64 1.38c-2.08 2.57-4.19 5.83-7.94 6.58-3.06.62-5.83-.88-8.67-2.34a.89.89 0 0 1-.53-.93.65.65 0 0 1-.05-.44c1.45-6.46 10.64-5.28 16.55-4.25Z" class="colorc6d0db svgShape"/><path fill="#0085ff" d="M404.27 459.35a.91.91 0 0 1 .64 1.38c-2.08 2.56-4.19 5.83-7.94 6.58-3.06.62-5.83-.88-8.67-2.34a.89.89 0 0 1-.53-.93.65.65 0 0 1 0-.44c1.43-6.46 10.59-5.28 16.5-4.25Z" class="colorabb7c2 svgShape"/><path fill="#c6d1db" d="M358.26 485.45a.9.9 0 0 1-.87 1.24c-3.26-.49-7.14-.66-9.69-3.51-2.09-2.33-2.19-5.48-2.37-8.66a.87.87 0 0 1 .53-.93.63.63 0 0 1 .36-.27c6.32-1.99 9.94 6.51 12.04 12.13Z" class="colorc6d0db svgShape"/><path fill="#0085ff" d="M338 484.82a1.19 1.19 0 0 0-.53.25 1.16 1.16 0 0 0-.93.88c-.53 3.1-1.13 6.17 1.08 8.52 2.7 2.88 7.81 3.21 12 3.82.7.11 1.62-.5 1.45-1.17-1.48-5.55-4.26-13.96-13.07-12.3ZM361.92 488.75a1.11 1.11 0 0 0-.37.46 1.15 1.15 0 0 0-.45 1.2c.88 3 1.68 6 4.69 7.19 3.69 1.4 8.43-.53 12.49-1.81.68-.22 1.24-1.17.79-1.7-3.73-4.36-9.9-10.7-17.15-5.34ZM383.08 480.93a1 1 0 0 0-.13.51 1 1 0 0 0 .06 1.12c1.8 2.13 3.52 4.28 6.37 4.13 3.48-.19 6.61-3.45 9.43-5.93.47-.42.58-1.39 0-1.65-4.54-2.19-11.81-5.11-15.73 1.82ZM353.51 440.12a1.14 1.14 0 0 0 .47.29 1.17 1.17 0 0 0 1.18.33c2.83-1 5.68-1.86 6.55-4.59 1.07-3.33-1.14-7.37-2.68-10.86-.26-.58-1.21-1-1.68-.59-3.9 3.55-9.53 9.38-3.84 15.42ZM333.84 454a1.11 1.11 0 0 0 .51.21 1.19 1.19 0 0 0 1.22.11c2.61-1.47 5.25-2.84 5.63-5.68.46-3.47-2.45-7.06-4.58-10.21-.36-.53-1.38-.79-1.76-.28-3.21 4.18-7.71 10.92-1.02 15.85Z" class="colorabb7c2 svgShape"/><path fill="#c6d1db" d="M373.33 438a1.13 1.13 0 0 0 .22.51 1.16 1.16 0 0 0 .8.92c2.89.78 5.74 1.63 8-.14 2.75-2.16 3.17-6.76 3.85-10.51.11-.63-.44-1.52-1.07-1.43-5.23.77-13.13 2.46-11.8 10.65ZM359.22 459.36a1.14 1.14 0 0 0-.19.52 1.16 1.16 0 0 0 0 1.22c1.58 2.54 3.09 5.11 5.94 5.35 3.49.28 6.93-2.79 10-5.07.52-.39.72-1.41.2-1.78-4.42-3-11.37-7.16-15.95-.24Z" class="colorc6d0db svgShape"/><path fill="#0085ff" d="M311.52 383.67s-2.49 248.42 5.56 341.7h-27.84s20.49-318.71 22.28-341.7Z" class="colorabb7c2 svgShape"/><path fill="#0085ff" d="M307.9 443.39s-22.56-30.17-28.22-42.45c0 0 22.73 45.13 26.91 60.76ZM307.81 497.64s16.11-15.21 33.56-30.67c0 0-22.21 33.36-32.25 49ZM308.81 430.5s13.15-17.71 16.55-25.08c0 0-13.26 26.69-15.77 36.07Z" class="colorabb7c2 svgShape"/><path fill="#c6d1db" d="M409.87 662.27A1.53 1.53 0 0 0 409 661c-2.75-1.06-7-.8-9.73.15-3.47 1.2-5.23 4.13-6.74 7.26v.07a58.09 58.09 0 0 0-5.26 2.74 19.8 19.8 0 0 0 .87-6c0-2-.32-8-3.84-7.14-2.62.63-4.59 6.32-5.25 8.55a12.21 12.21 0 0 0 .88 9.68 68.83 68.83 0 0 0-8.51 8.22 19.81 19.81 0 0 0 0-5.44c-.28-2-1.31-7.88-4.69-6.61-2.53 1-3.78 6.83-4.17 9.13a12.14 12.14 0 0 0 2.56 10.14 1.57 1.57 0 0 0-.18 1.18q-2.78 4.1-5.17 8.47l-.27.5a20 20 0 0 0-1.25-5.93c-.73-1.89-3.07-7.38-6.08-5.38-2.24 1.5-2.12 7.51-2 9.83a12.15 12.15 0 0 0 4.79 9.31 1.72 1.72 0 0 0 0 .9c-1.13 2.3-2.2 4.6-3.25 6.95a19.76 19.76 0 0 0-1.85-4.46c-.65-1.13-2.17-3.61-3.88-4.62-.39-3-5.46-2.94-8.24-2.21a22.49 22.49 0 0 0-7.14 3.35q1.47-6.76 3.08-13.5c5.94 0 17.95-3.61 18.12-8.24.12-3.56-5.35-3.49-8.27-2.72a22.6 22.6 0 0 0-8.13 4.09q1.42-5.51 3-10.94c6.26.4 16.86-1.4 17.65-5.59.66-3.5-4.76-4.24-7.77-3.92a22.34 22.34 0 0 0-7.62 2.27 112 112 0 0 1 4.55-11.38c6 1.78 16.65 2.39 18.36-1.49 1.44-3.27-3.67-5.21-6.67-5.58a22.58 22.58 0 0 0-8.32.6 68.34 68.34 0 0 1 7.62-10.78c5.25 2.81 17.43 5.41 19.8 1.44 1.83-3.06-3-5.62-5.93-6.35a22.64 22.64 0 0 0-8.63-.38 53.92 53.92 0 0 1 7-5.28 1.66 1.66 0 0 0 .37.09c3.48.15 8.09-.14 10.88-2.49 2.19-1.84 3.21-5.75 2.5-8.49a1.53 1.53 0 0 0-1.08-1.07c-2.88-.63-7 .28-9.59 1.64-3.24 1.71-4.53 4.88-5.54 8.2a.22.22 0 0 0 0 .08 56.45 56.45 0 0 0-4.77 3.52 20.14 20.14 0 0 0-.07-6c-.34-2-1.55-7.83-4.9-6.46-2.49 1-3.55 7-3.87 9.25a12.22 12.22 0 0 0 2.37 9.43 69.73 69.73 0 0 0-7.14 9.43 19.62 19.62 0 0 0-.82-5.38c-.59-1.95-2.52-7.59-5.66-5.81-2.35 1.32-2.68 7.33-2.7 9.66a12.12 12.12 0 0 0 4.09 9.62 1.56 1.56 0 0 0 0 1.2q-2.12 4.47-3.8 9.16c-.07.18-.12.37-.19.55a19.83 19.83 0 0 0-2.15-5.68c-1-1.76-4.17-6.82-6.83-4.38-2 1.81-.94 7.74-.44 10a12.17 12.17 0 0 0 6.17 8.46 1.65 1.65 0 0 0 .16 1q-1.12 3.66-2.14 7.36a20.06 20.06 0 0 0-2.55-4.2c-1.27-1.59-5.15-6.12-7.41-3.31-1.69 2.09.23 7.8 1.07 10a12.29 12.29 0 0 0 6.45 7q-1.53 6.35-2.89 12.74a19.67 19.67 0 0 0-3-5.34l-.57-.7a4.08 4.08 0 0 0-.65-2.61 8.69 8.69 0 0 0-6.19 0 4.14 4.14 0 0 0-.65 2.61l-.57.7a19.94 19.94 0 0 0-3 5.34q-1.35-6.39-2.89-12.74a12.29 12.29 0 0 0 6.45-7c.84-2.17 2.77-7.88 1.08-10-2.27-2.81-6.15 1.72-7.42 3.31a20.06 20.06 0 0 0-2.55 4.2q-1-3.71-2.14-7.36a1.51 1.51 0 0 0 .16-1 12.17 12.17 0 0 0 6.17-8.46c.5-2.27 1.55-8.2-.44-10-2.66-2.44-5.81 2.62-6.83 4.38a19.83 19.83 0 0 0-2.15 5.68c-.07-.18-.12-.37-.19-.55q-1.69-4.68-3.8-9.16a1.56 1.56 0 0 0 0-1.2 12.13 12.13 0 0 0 4.1-9.62c0-2.33-.36-8.34-2.7-9.66-3.15-1.78-5.07 3.86-5.66 5.81a20 20 0 0 0-.83 5.38 69.73 69.73 0 0 0-7.14-9.43 12.18 12.18 0 0 0 2.37-9.43c-.31-2.3-1.38-8.22-3.87-9.25-3.34-1.37-4.56 4.46-4.9 6.46a19.82 19.82 0 0 0-.06 6 59.872 59.872 0 0 0-4.77-3.52v-.08c-1-3.32-2.29-6.49-5.53-8.2-2.56-1.36-6.72-2.27-9.6-1.64a1.5 1.5 0 0 0-1.07 1.07c-.72 2.74.3 6.65 2.49 8.49 2.79 2.35 7.4 2.64 10.88 2.49a1.54 1.54 0 0 0 .37-.09 53.92 53.92 0 0 1 7 5.28 22.64 22.64 0 0 0-8.63.38c-2.93.73-7.76 3.29-5.93 6.35 2.37 4 14.55 1.37 19.81-1.44a68.94 68.94 0 0 1 7.61 10.78 22.53 22.53 0 0 0-8.31-.6c-3 .37-8.12 2.31-6.68 5.58 1.71 3.88 12.33 3.27 18.36 1.49a112 112 0 0 1 4.55 11.38 22.27 22.27 0 0 0-7.62-2.27c-3-.32-8.43.42-7.77 3.92.79 4.19 11.39 6 17.66 5.59q1.59 5.45 3 10.94a22.55 22.55 0 0 0-8.12-4.09c-2.93-.77-8.4-.84-8.27 2.72.16 4.63 12.17 8.2 18.11 8.24 1.09 4.49 2.1 9 3.08 13.5a22.49 22.49 0 0 0-7.14-3.35c-2.65-.7-7.38-.81-8.15 1.82-2.36-.41-4.77 3.5-5.63 5a19.76 19.76 0 0 0-1.85 4.46c-1-2.35-2.12-4.65-3.26-6.95a1.62 1.62 0 0 0 0-.9 12.18 12.18 0 0 0 4.79-9.31c.15-2.32.26-8.33-2-9.83-3-2-5.34 3.49-6.07 5.38a19.65 19.65 0 0 0-1.25 5.93l-.27-.5q-2.4-4.37-5.17-8.47a1.57 1.57 0 0 0-.18-1.18 12.13 12.13 0 0 0 2.47-10.07c-.38-2.3-1.64-8.18-4.16-9.13-3.38-1.27-4.41 4.6-4.69 6.61a19.43 19.43 0 0 0 0 5.44 68.83 68.83 0 0 0-8.51-8.22 12.25 12.25 0 0 0 .88-9.68c-.67-2.23-2.64-7.92-5.26-8.55-3.51-.84-3.8 5.11-3.84 7.14a19.8 19.8 0 0 0 .87 6 57.91 57.91 0 0 0-5.25-2.74s0 0 0-.07c-1.51-3.13-3.27-6.06-6.74-7.26-2.73-1-7-1.21-9.73-.15a1.53 1.53 0 0 0-.9 1.23 9.2 9.2 0 0 0 3.78 8c3.12 1.89 7.72 1.47 11.13.79a1.37 1.37 0 0 0 .35-.15 54 54 0 0 1 7.7 4.15 22.58 22.58 0 0 0-8.47 1.7c-2.78 1.18-7.16 4.44-4.88 7.19 3 3.55 14.59-.88 19.35-4.46a68.67 68.67 0 0 1 9.17 9.49 22.46 22.46 0 0 0-8.31.68c-2.91.83-7.66 3.53-5.74 6.54 2.29 3.57 12.69 1.34 18.38-1.34a113.25 113.25 0 0 1 6.25 10.54 22.5 22.5 0 0 0-7.88-1.08c-3 .15-8.27 1.71-7.07 5.08 1.43 4 12.19 4.17 18.32 2.81 1.72 3.63 3.17 6.87 4.65 10.33a23 23 0 0 0-8.65-2.78c-3-.31-8.43.45-7.75 4 .88 4.55 13.34 6.24 19.2 5.36.85 1.09 3.1-.05 2.88-1.41l-.38-.92a12.28 12.28 0 0 0 5.28-8 28.44 28.44 0 0 0 .69-6.19c3.55 2.57 10.14 4.37 14.54 4.67.38 1.87.77 3.74 1.15 5.61a22.5 22.5 0 0 0-7.34-3.5c-2.93-.77-8.4-.85-8.27 2.72.15 4.44 11.21 7.91 17.36 8.23a1.6 1.6 0 0 0 2.46-.63 28.68 28.68 0 0 0 3-2.51 29.77 29.77 0 0 0 3 2.51 1.6 1.6 0 0 0 2.46.63c6.15-.32 17.21-3.79 17.36-8.23a3.55 3.55 0 0 0 0-.66 11.66 11.66 0 0 0 4.43 5.3l-.39.92c-.21 1.36 2 2.5 2.89 1.41 5.86.88 18.32-.81 19.2-5.36.67-3.51-4.74-4.27-7.75-4a22.84 22.84 0 0 0-8.65 2.78c1.48-3.46 2.93-6.7 4.65-10.33 6.13 1.36 16.89 1.21 18.32-2.81 1.19-3.37-4.05-4.93-7.07-5.08a22.5 22.5 0 0 0-7.88 1.08 111.1 111.1 0 0 1 6.25-10.54c5.68 2.68 16.08 4.91 18.38 1.34 1.92-3-2.83-5.71-5.74-6.54a22.46 22.46 0 0 0-8.31-.68 68.09 68.09 0 0 1 9.19-9.48c4.76 3.58 16.39 8 19.35 4.46 2.28-2.75-2.1-6-4.89-7.19a22.49 22.49 0 0 0-8.46-1.7 54.46 54.46 0 0 1 7.69-4.15 1.61 1.61 0 0 0 .36.15c3.41.68 8 1.1 11.13-.79a9.19 9.19 0 0 0 3.78-7.98Zm-89.66 50.11c.13-.15.27-.28.39-.44a5.2 5.2 0 0 0 .38.44l-.38.36Zm15 7a22.5 22.5 0 0 0-7.34 3.5q.57-2.8 1.16-5.61a35.37 35.37 0 0 0 12.87-3.64 30.66 30.66 0 0 0 .69 5.16 15.2 15.2 0 0 0 .57 1.92c-1.23-2.12-5.51-1.98-7.99-1.33Z" class="colorc6d0db svgShape"/></g><path fill="#fff" d="M44.65 167.92h326.07v420.5H44.65z" class="colorffffff svgShape" opacity=".31" transform="rotate(180 207.685 378.17)"/><path fill="#fff" d="M257.42 580.83h34.13L146.48 172.74h-34.14l145.08 408.09zM317.7 580.83h17.06L189.69 172.74h-17.07L317.7 580.83zM151.81 580.83h17.07L48.57 216.88l-3.63 23.7 106.87 340.25z" class="colorffffff svgShape" opacity=".6"/><path fill="#fff" d="M366.11 163.11h9.62v430.73h-9.62z" class="colorffffff svgShape" transform="rotate(180 370.92 378.48)"/><path fill="#fff" d="M257.42 165.28h9.62v426.39h-9.62z" class="colorffffff svgShape" transform="rotate(180 262.225 378.48)"/><path fill="#fff" d="M203.07.07h9.62v335.7h-9.62z" class="colorffffff svgShape" transform="rotate(-90 207.885 167.925)"/><path fill="#fff" d="M203.07 420.57h9.62v335.7h-9.62z" class="colorffffff svgShape" transform="rotate(-90 207.885 588.415)"/><path fill="#fff" d="M148.72 165.28h9.62v426.39h-9.62z" class="colorffffff svgShape" transform="rotate(180 153.535 378.48)"/><path fill="#fff" d="M40.03 163.11h9.62v430.73h-9.62z" class="colorffffff svgShape" transform="rotate(180 44.845 378.48)"/><path fill="#fff" d="M40.04 373.66h335.7v9.62H40.04z" class="colorffffff svgShape"/><path fill="#0085ff" d="M49.71 383.29h316.35v3.4H49.71zM49.71 580.83h316.35v3.4H49.71zM49.62 172.74h316.53v3.4H49.62zM548.26 268.22h248.01v149.52H548.26z" class="colorabb7c2 svgShape"/><path fill="#e7ebef" d="M560.58 280.67h223.38V405.3H560.58z" class="colore7ebef svgShape" transform="rotate(180 672.27 342.985)"/><path fill="#c6d1db" d="M580.44 297.58h183.67v90.81H580.44z" class="colorc6d0db svgShape"/><path fill="#0085ff" d="m764.11 388.39-29-42a2.73 2.73 0 0 0-4.55.09l-15.93 25.23-12.77-13.54a2.73 2.73 0 0 0-4.38.55l-16.32 29.67Z" class="colorabb7c2 svgShape"/><path fill="#fff" d="M708 318.94a9.07 9.07 0 1 0 9.07-9.07 9.07 9.07 0 0 0-9.07 9.07ZM640.62 322.09c.46 1 1.47 1.11 2.43 1.29 3.43.65 7.46.32 11 .38h6.39a16 16 0 0 0 6.71 1.83c2.56-.06 4.65-1.62 7.22-1.84 1.51-.12 5.93.47 4.69-2.66-1.41-3.53-9.55-2.77-12.37-3.65a24 24 0 0 0-4.15-.93c-2-.27-1.62-.34-3.4-1.46a8.64 8.64 0 0 0-2.2-1.16 6.74 6.74 0 0 0-5 .24c-1.81.83-2.6 2.73-4.55 3.27-1.71.47-8.66.7-6.77 4.69ZM616.83 330a25 25 0 0 0 9.77.95c1.81-.18 4.71-.34 6-1.77a2.35 2.35 0 0 0-.15-3.45 3.22 3.22 0 0 0-3.22-.61A11.45 11.45 0 0 0 623 324a11.94 11.94 0 0 1-2.6.57 23.82 23.82 0 0 1-2.28-.69 4.55 4.55 0 0 0-2.43.13c-3.8 1.48-1.64 5.09 1.14 5.99Z" class="colorffffff svgShape"/><path fill="#0085ff" d="m659.76 388.39-18.06-32.31a1.68 1.68 0 0 0-2.9-.06l-13.7 22.36-5.8-9a1.68 1.68 0 0 0-2.93.2l-8.94 18.85-15-34.91a1.68 1.68 0 0 0-3.13.1l-8.82 24.8v10Z" class="colorabb7c2 svgShape"/><path fill="#c6d1db" d="M480.1 238.54A56.62 56.62 0 0 1 423.55 182h2.66A53.89 53.89 0 1 0 534 182h2.66a56.62 56.62 0 0 1-56.56 56.54Z" class="colorc6d0db svgShape"/><path fill="#0085ff" d="m479.34 137.75-71.33 59.1h157.27l-85.94-59.1z" class="colorabb7c2 svgShape"/><path fill="url(#c)" d="m443.89 188.5-75.33 242.79h219.05L516.42 188.5h-72.53z" opacity=".22"/><path fill="#c6d1db" d="M476.07 96.3v59.64h6.92V99.41l-6.92-3.11z" class="colorc6d0db svgShape"/><path fill="#5cb0fd" d="M470.55 145.57h18a2.62 2.62 0 0 1 2.62 2.62v22.52h-23.24V148.2a2.62 2.62 0 0 1 2.62-2.63Z" class="colorfdbe5c svgShape"/><path fill="#c6d1db" d="M492.73 198.84a13.51 13.51 0 1 0-13.51 13.51 13.51 13.51 0 0 0 13.51-13.51Z" class="colorc6d0db svgShape"/><path fill="#fff" d="M479.4 207.3c-3.2-.58-7.59-3.1-8.42-6.48-.29-1.2-2.15-.69-1.86.51 1 4 5.91 7.13 9.77 7.83 1.22.22 1.74-1.64.51-1.86Z" class="colorffffff svgShape"/><path fill="#c6d1db" d="m479.34 137.75-78.63 59.1h157.27l-78.64-59.1z" class="colorc6d0db svgShape"/><rect width="14.61" height="14.61" x="472.04" y="130.45" fill="#c6d1db" class="colorc6d0db svgShape" rx="4.07"/></g><path fill="#fff" d="M138.33 440a7.92 7.92 0 0 1-7.91-7.92V196.26A10.27 10.27 0 0 1 140.67 186h323.69a10.26 10.26 0 0 1 10.26 10.25v235.81a7.93 7.93 0 0 1-7.93 7.92Z" class="colorffffff svgShape"/><path fill="#010101" d="M464.36 186.52a9.74 9.74 0 0 1 9.74 9.73v235.81a7.41 7.41 0 0 1-7.41 7.4H138.33a7.41 7.41 0 0 1-7.39-7.4v-235.8a9.74 9.74 0 0 1 9.73-9.74Zm0-1H140.67a10.77 10.77 0 0 0-10.77 10.78v235.8a8.43 8.43 0 0 0 8.43 8.44h328.36a8.45 8.45 0 0 0 8.45-8.44V196.25a10.77 10.77 0 0 0-10.78-10.77Z" class="color010101 svgShape"/><path fill="#010101" d="M475.14 222.6H129.89v-26.35a10.78 10.78 0 0 1 10.78-10.77h323.69a10.78 10.78 0 0 1 10.78 10.77Z" class="color010101 svgShape"/><path fill="#0085ff" d="M189.27 204a5.71 5.71 0 1 1 5.71 5.7 5.71 5.71 0 0 1-5.71-5.7Z" class="colorabb7c2 svgShape"/><path fill="#3298f5" d="M167.33 204a5.71 5.71 0 1 1 5.71 5.7 5.71 5.71 0 0 1-5.71-5.7Z" class="colorf58132 svgShape"/><path fill="#fff" d="M151.1 209.21a5.18 5.18 0 1 1 5.18-5.17 5.18 5.18 0 0 1-5.18 5.17Z" class="colorffffff svgShape"/><path fill="#010101" d="M151.1 199.38a4.66 4.66 0 1 1-4.66 4.66 4.66 4.66 0 0 1 4.66-4.66Zm0-1a5.71 5.71 0 1 0 5.7 5.71 5.71 5.71 0 0 0-5.7-5.71Z" class="color010101 svgShape"/><path fill="#fff" d="m454.82 205.99-4.03 4.03-2.09-2.09 4.04-4.03-4.04-4.03 2.09-2.09 4.03 4.03 4.04-4.03 2.08 2.09-4.03 4.03 4.03 4.03-2.08 2.09-4.04-4.03z" class="colorffffff svgShape"/><path fill="#010101" d="m450.79 198.52 3.3 3.29.73.74.74-.74 3.29-3.29 1.35 1.35-3.29 3.29-.74.74.74.74 3.29 3.29-1.35 1.35-3.29-3.3-.74-.73-.73.73-3.3 3.3-1.35-1.35 3.3-3.29.73-.74-.73-.74-3.3-3.29 1.35-1.35Zm8.06-1.47-4 4-4-4-2.85 2.82 4 4-4 4 2.82 2.82 4-4 4 4 2.83-2.82-4-4 4-4-2.83-2.82ZM249.16 271.91v.44l-36.53-.35 18.2-30.84 1.68.84a34.65 34.65 0 0 1 16.65 29.91Z" class="color010101 svgShape"/><path fill="#3298f5" d="M159.45 280.83v1.78a34 34 0 0 0 .91 6.56 35.69 35.69 0 0 0 4.08 10.06 34.56 34.56 0 0 0 2.1 3.11c.1.14.2.27.31.4a32.26 32.26 0 0 0 22 12.62 51.15 51.15 0 0 0 12.87-.15l.78-.12c17-2.87 24.92-15.41 27.07-27.17 0-.25.09-.51.13-.76a38.34 38.34 0 0 0 .47-4.43c0-.52 0-1 .05-1.57l-31.44-.36H196l-4-26.86-.11-.76v-.26l-.31-2-.63-4.2-2.28.45a34.46 34.46 0 0 0-28.89 29.45 33.93 33.93 0 0 0-.33 4.21Z" class="colorf58132 svgShape"/><path fill="#0085ff" d="m200.17 276.32-5.4-36.94 2.27-.45a34.09 34.09 0 0 1 9.89 0 33.61 33.61 0 0 1 12.76 4.59Z" class="colorabb7c2 svgShape"/><path fill="#010101" d="M261.85 247.12v3.04h31.21l.04-3.04h-31.25zM261.85 256.28v3.04h56.4l.03-3.04h-56.43zM261.85 265.43v3.05h52.36l.04-3.05h-52.4zM296.33 250.16h9.63l.04-3.04h-9.63l-.04 3.04zM261.85 273.99v3.04h31.21l.04-3.04h-31.25zM261.85 283.14v3.05h56.4l.03-3.05h-56.43zM261.85 292.3v3.04h52.36l.04-3.04h-52.4zM296.33 277.03h9.63l.04-3.04h-9.63l-.04 3.04z" class="color010101 svgShape"/><path fill="#0085ff" d="M378.37 296.43h20.06v18.45h-20.06z" class="colorabb7c2 svgShape"/><path fill="#3298f5" d="M349.51 303.48h20.06v11.4h-20.06z" class="colorf58132 svgShape"/><path fill="#010101" d="M405.84 284.76h20.06v30.12h-20.06z" class="color010101 svgShape"/><path fill="#3298f5" d="M433.31 273.29h20.06v41.59h-20.06zM347.38 296a1.47 1.47 0 0 1-1-.25 1.28 1.28 0 0 1-.3-1.87l14.12-18.08a1.53 1.53 0 0 1 1.72-.46l16.68 6.46 13.1-21.2a1.51 1.51 0 0 1 2.12-.41L410.38 272l9.75-21.66a1.4 1.4 0 0 1 .82-.74 1.47 1.47 0 0 1 1.13 0l15.45 7L448 240.87a1.51 1.51 0 0 1 2-.47 1.3 1.3 0 0 1 .47 1.85l-11.13 16.89a1.51 1.51 0 0 1-1.86.52l-15.25-7-9.87 22a1.41 1.41 0 0 1-1 .78 1.5 1.5 0 0 1-1.24-.22l-16.74-12-12.92 20.89a1.49 1.49 0 0 1-1.8.58l-16.8-6.5-13.42 17.23a1.46 1.46 0 0 1-1.06.58Z" class="colorf58132 svgShape"/><path fill="#3298f5" d="M452.85 248.91a1.42 1.42 0 0 1-1.51-1l-1.8-7.06-8.62 2.74a1.45 1.45 0 0 1-1.81-.84A1.34 1.34 0 0 1 440 241l10.1-3.21a1.53 1.53 0 0 1 1.15.1 1.35 1.35 0 0 1 .7.85l2.16 8.48a1.36 1.36 0 0 1-1.06 1.63Z" class="colorf58132 svgShape"/><path fill="#0085ff" d="M172.33 423.27H425.9s.25-59.47-15.28-58.07-14.77 38.71-25.94 42.21-23-29.85-37.93-28.92c-9.28.58-24 23.83-34.77 24-13.22.24-22.34-16.09-34.45-14.65-6.76.81-19.68 18.68-61 15.26-12.49-1-25.08 2.24-33.64 9.05a48.76 48.76 0 0 0-10.56 11.12Z" class="colorabb7c2 svgShape"/><path fill="#3298f5" d="M323.3 361.35H175.43c-2.74 0-5-1.64-5-3.67 0-2 2.23-3.67 5-3.67H323.3c2.75 0 5 1.64 5 3.67-.02 2.03-2.25 3.67-5 3.67Z" class="colorf58132 svgShape"/><path fill="#010101" d="M276.47 372.52h-101c-2.74 0-5-1.64-5-3.67 0-2 2.23-3.67 5-3.67h101c2.74 0 5 1.64 5 3.67-.02 2.03-2.26 3.67-5 3.67Z" class="color010101 svgShape"/><path fill="#0085ff" d="M574.74 703.25H582a4.82 4.82 0 0 0 4.83-4.82v-33.85h-16.92v33.85a4.83 4.83 0 0 0 4.83 4.82Z" class="colorabb7c2 svgShape"/><path fill="#0085ff" d="M478.52 712.83A16.41 16.41 0 0 1 489 692.12l76.64-25.2v-45.57h25.53v45.92l75.57 24.85a16.4 16.4 0 0 1 10.46 20.71l-99.32-32.67Z" class="colorabb7c2 svgShape"/><path fill="#0085ff" d="M563.42 669.71h28.85v-55.13a8.24 8.24 0 0 0-8.24-8.24h-12.37a8.24 8.24 0 0 0-8.24 8.24Z" class="colorabb7c2 svgShape"/><path fill="#010101" d="M652.86 706.9A16.15 16.15 0 1 1 669 723.05a16.15 16.15 0 0 1-16.14-16.15Z" class="color010101 svgShape"/><path fill="#0085ff" d="M656.37 706.9A12.64 12.64 0 1 1 669 719.54a12.64 12.64 0 0 1-12.63-12.64Z" class="colorabb7c2 svgShape"/><path fill="#010101" d="M562.23 706.9a16.15 16.15 0 1 1 16.15 16.15 16.15 16.15 0 0 1-16.15-16.15Z" class="color010101 svgShape"/><path fill="#0085ff" d="M565.74 706.9a12.64 12.64 0 1 1 12.64 12.64 12.64 12.64 0 0 1-12.64-12.64Z" class="colorabb7c2 svgShape"/><path fill="#010101" d="M468.9 706.9a16.15 16.15 0 1 1 16.1 16.15 16.15 16.15 0 0 1-16.1-16.15Z" class="color010101 svgShape"/><path fill="#0085ff" d="M472.4 706.9a12.64 12.64 0 1 1 12.6 12.64 12.64 12.64 0 0 1-12.6-12.64Z" class="colorabb7c2 svgShape"/><path fill="#3298f5" d="M475.11 584.63A12.85 12.85 0 0 0 488 597.48h107.05l7.7-2.4c19.33-6.15 68.7-22.24 72-27.4 4.09-6.43 13.85-97.2 13.85-97.2H581.51a12.86 12.86 0 0 0-13.84 11.81l-2.49 56.77a35.72 35.72 0 0 1-35.42 32.71H488a12.85 12.85 0 0 0-12.89 12.86Z" class="colorf58132 svgShape"/><path fill="#010101" d="M555.68 613.85h42.21c6.19 0 11.21-8.9 11.21-19.87h-64.63c0 11.02 5.01 19.87 11.21 19.87Z" class="color010101 svgShape"/><path fill="#3298f5" d="M475.11 584.63A12.85 12.85 0 0 0 488 597.48h114.75v-25.71H488a12.85 12.85 0 0 0-12.89 12.86Z" class="colorf58132 svgShape"/><path fill="#010101" d="M595.06 597.48h41.81a61.55 61.55 0 0 0 61-56.39l2.49-56.77a12.86 12.86 0 1 0-25.63-2l-2.49 56.77a35.71 35.71 0 0 1-35.41 32.72h-41.77a12.86 12.86 0 0 0 0 25.71Z" class="color010101 svgShape"/><path fill="#fff" d="M552.76 447.49a93.78 93.78 0 0 1-8.41 16.83c-8.05 13-21.72 28.27-40.47 25.64-11.73-1.36-42.86-39-50-48.1-1.73-2.17 11.72-5.79 11.72-5.79.89.61 33.1 28.27 42 25.41.72-.24 19.74-36.87 21.37-38.46 15.8-15.12 25.59 17.98 23.79 24.47Z" class="colorffffff svgShape"/><path fill="#010101" d="M508.12 491a32.58 32.58 0 0 1-4.35-.3c-13.5-1.57-50.12-47.93-50.48-48.4a1.38 1.38 0 0 1-.29-1.3c.78-2.39 9.67-4.95 12.37-5.68l.35-.09.3.2 1.19 1c28.56 23.53 37.37 25 39.92 24.4.86-1.25 5.19-9.3 9-16.44 7-13 11.33-21 12.22-21.89 5.71-5.46 10.41-4.51 13.35-2.76 8.58 5.13 13.1 23.09 11.75 28a95.75 95.75 0 0 1-8.51 17C537.37 477 525 491 508.12 491Zm-42.68-54.12c-5.68 1.57-10.64 3.63-10.92 4.56 10.13 12.81 38.76 46.56 49.48 47.75 18.32 2.55 31.68-12.34 39.72-25.28A95.88 95.88 0 0 0 552 447.3c1.2-4.34-3.33-21.63-11-26.23-3.59-2.15-7.45-1.3-11.46 2.54-.84.86-7.25 12.79-11.94 21.5-9.09 16.92-9.2 17-9.72 17.13-6.93 2.27-26.46-12.16-41.59-24.63-.39-.3-.66-.53-.85-.69Z" class="color010101 svgShape"/><path fill="#fff" d="M473 674.3c.77-2.07 15.43-4.15 15.85-3.28 1.3 2.66 5.25 13.12 4.33 14.86s-15.09 5.17-16.2 2.55c-.98-2.26-4.74-12.13-3.98-14.13Z" class="colorffffff svgShape"/><path fill="#010101" d="M479.94 690.16h-.51c-1.77-.08-2.81-.54-3.18-1.41-.05-.12-5-12.08-4-14.71s12.32-3.87 14.69-4c1.7-.08 2.33.08 2.6.63.51 1 5.61 13.13 4.32 15.57-.92 1.76-9.46 3.92-13.92 3.92Zm-6.23-15.57c-.49 1.41 2.29 9.55 4 13.53 0 .08.3.3 1.16.41 4.06.51 12.87-2 13.65-3 .56-1.23-2.55-10.28-4.25-13.89-2.27-.45-13.69 1.62-14.56 2.95Zm14.43-3.23Z" class="color010101 svgShape"/><path fill="#010101" d="M493.17 682.39s9.65 8.32 7.37 17.31c0 0-33.67 10.22-44.52 11.09 0 0-4.41-13.31 4.09-16.65a126.14 126.14 0 0 1 17.46-5.22s11.43 2.47 15.6-6.53ZM586.53 556.63c-12 17-44.14 19-68.16 21.33C504 579.4 492.5 581 490 586.2c-9.62 20.29 5.05 68 5.17 88.72-1.23 2.92-5.17 4.07-9.52 4.39a65 65 0 0 1-15.14-1.1C459.72 635.05 447 587.66 459 558.51c20.15-49 94.74-59.26 94.74-59.26 15.07-12.54 53.88 27.49 32.79 57.38Z" class="color010101 svgShape"/><path fill="#fff" d="M572.33 684.41c-.17-2.31 11.61-10.93 12.32-10.3 2.19 1.94 9.82 10.07 9.72 12.14S583.47 698 581.45 696c-1.73-1.7-8.96-9.35-9.12-11.59Z" class="colorffffff svgShape"/><path fill="#010101" d="M582.21 697.07a1.79 1.79 0 0 1-1.3-.49c-.1-.09-9.15-9.2-9.36-12.11-.19-2.69 9.39-9.59 11.86-10.82.59-.29 1.26-.56 1.76-.12 1.45 1.28 10.1 10.08 10 12.76-.1 2.25-7.84 9-11.38 10.43a4.45 4.45 0 0 1-1.58.35Zm-9.1-12.71c.13 1.63 5.94 8.19 8.89 11.11 0 0 .29.1 1-.11 3.66-1.23 10.46-7.9 10.65-9.15.06-1.42-6.19-8.52-9.22-11.3-2.28.75-11.26 7.89-11.32 9.45ZM561.67 512.3c-.94-.51-1.73.15-2 1a2.18 2.18 0 0 0-.46.14c-15.79 7.92-35.25 8.76-48.61 22.16-5.3 5.36-8.28 12.29-11 19.37-4.18 10.89-10 19.08-16.21 28.63-11.07 17-9.28 35-7.36 55.5a140.87 140.87 0 0 0 6 30.36 75.57 75.57 0 0 0 3.64 9.83c4.35-.32 8.29-1.47 9.52-4.39-.12-20.71-14.79-68.43-5.17-88.72 2.47-5.19 14-6.8 28.34-8.24a236.91 236.91 0 0 1 19.84-16.6c8.95-6.7 18.85-11.83 27.65-18.78 12.85-10.18 8.55-23.62-4.18-30.26Z" class="color010101 svgShape"/><path fill="#010101" d="M593 682.94s11.66 3.52 13.33 13.09c0 0-24.87 25-33.87 30.72 0 0-9.15-10.63-3.18-17.66a123.56 123.56 0 0 1 12.93-12.87S593 693.36 593 682.94ZM634.85 557.25c-16.44 27.74-70 14.73-75.18 28.49-7.57 20.19 20.59 78.56 31.89 87.14-.34 1-21.12 21-21.12 21-22.17-22.48-59.85-80.31-58.89-113.12 1.5-50.88 85-75.34 85-75.34 11.24-10.83 41.68 10.38 42.65 35a30.07 30.07 0 0 1-4.35 16.83Z" class="color010101 svgShape"/><path fill="#010101" d="M639.19 540.41c-2.37-1.52-10.6 27.2-62.89 28.14-14.26.26-25.74 5-30.15 20.68-2.63 9.27 3 16.28 5.88 25.47 2.83 9 5.44 18.17 8.83 27 6.21 16.15 12 26.41 25.19 36.88.58-1 5.17-4.79 5.51-5.74-11.3-8.58-39.46-67-31.89-87.14 5.16-13.76 58.74-.75 75.18-28.49a30.07 30.07 0 0 0 4.34-16.8Z" class="color010101 svgShape"/><path fill="#0085ff" d="M561.26 460.66a54.11 54.11 0 0 1-21.32-2.36 29.08 29.08 0 0 1-3.59-1.34l-.36-.17a57.1 57.1 0 0 1-9.53-6.13A111 111 0 0 1 513 438.82c1-3.64 15.3-22 29-32.25a62.41 62.41 0 0 1 12.65-7.41 26 26 0 0 1 6-1.8 11.66 11.66 0 0 1 5.2.22 7.92 7.92 0 0 1 2.06 1 7.29 7.29 0 0 1 1.58 1.38c10.24 11.9.09 40.37-8.23 60.7Z" class="colorabb7c2 svgShape"/><path fill="#010101" d="M565.5 398.27c.22-.22 4.4-.71 4.4-.95-1.57-.47-9.86 8-11.73 8.33-42.3 11.33-5.44 40.76-24 50.37 10 5.8 27.07 4.64 27.07 4.64 6.2-5.93-6.34-18.72-2.87-24.47 7.18-11.8 4.69-24.39 7.13-37.92Z" class="color010101 svgShape"/><path fill="#0085ff" d="m633.13 512.76-.79.32c-1.23.54-2.49 1-3.71 1.48a1.36 1.36 0 0 0-.29.11c-1.19.43-2.38.79-3.57 1.15-.83.25-1.66.5-2.52.72-.51.15-1 .29-1.48.4-.83.21-1.66.43-2.52.61-38.42 8.54-83.37-12.2-85.67-12.92a.12.12 0 0 0-.08 0 .11.11 0 0 1 0-.07c.07-.21.32-.86.68-1.91a4.89 4.89 0 0 1 .26-.65c.14-.36.28-.79.47-1.22.53-1.48 1.26-3.32 2.12-5.48.29-.76.61-1.59.94-2.41.07-.19.14-.37.21-.58.29-.69.58-1.37.87-2.09 1.91-4.8 4.25-10.38 6.78-16.15.75-1.73 1.51-3.46 2.3-5.19 1.66-3.6.72-1.06 2.45-4.49.22-.43.44-.86.62-1.29a11 11 0 0 0 .54-1.23c3.24-7.71 1.76-11.93-1.37-16-1.77-2.34-4.11-4.65-6.38-7.57-2.88-3.64-5.19-7.74-5.41-13.15-.32-7.78 5-17.73 14.1-23.42 3-1.92 6.2-3.64 9.19-5.16a153.13 153.13 0 0 1 16.43-7.1 105.84 105.84 0 0 1 16 .11 51.44 51.44 0 0 1 11 2.09c25.19 7.93 15.71 33.66 11.35 55.35-.5 2.49-.93 4.91-1.22 7.25-.15 1.19-.25 2.38-.29 3.57-.11 3 3.79 26.17 3.79 26.17s1.22 3.17 1.58 4c.76 1.73 1.55 3.42 2.38 5 .51 1 1 1.95 1.51 2.89l.76 1.4c.39.72.83 1.44 1.23 2.17 1 1.73 1.94 3.35 2.88 4.93.36.65.76 1.3 1.11 1.91 1.48 2.3 2.74 4.5 3.75 6.45Z" class="colorabb7c2 svgShape"/><path fill="#010101" d="M581.5 460.29c2.26 7.66 6.92 10.85 11.13 47.3 0-1.19 21.71-52.21 21.85-53.4.28-2.34.72-4.75 1.22-7.24a38.37 38.37 0 0 0-8-10.06c-10.46-9.87.06-36.27.06-36.27-26.21 7.29-28.64 51.57-26.26 59.67Z" class="color010101 svgShape"/><path fill="#fff" d="M571.35 381.61v10.17s-2.73 5 0 5.56c6 1.2 14.68-8.17 14.68-8.17v-13.64Z" class="colorffffff svgShape"/><path fill="#010101" d="M572.45 398.23a6.46 6.46 0 0 1-1.25-.12 2.11 2.11 0 0 1-1.59-1.21c-.79-1.68.5-4.43 1-5.32v-10.49l16.24-6.73v15.12l-.21.22c-.38.37-8 8.53-14.19 8.53Zm-.32-16.09-.09 10c-.65 1.21-1.4 3.27-1 4.09a.57.57 0 0 0 .49.33c5.07 1 12.41-6.34 13.74-7.71V376.7Z" class="color010101 svgShape"/><path fill="#fff" d="M564.08 353.91s-2.64 11.93-1.52 22.18c.79 7.26 16 13.4 24 .91s1.44-26.95 1.44-26.95Z" class="colorffffff svgShape"/><path fill="#010101" d="M574.38 385a15.12 15.12 0 0 1-3.49-.42c-4.95-1.17-8.7-4.62-9.11-8.38-1.12-10.25 1.43-21.93 1.54-22.43l.12-.51 25.06-4 .24.54c.28.61 6.72 15-1.49 27.69-3.15 4.81-7.8 7.51-12.87 7.51Zm-9.64-30.37c-.48 2.39-2.36 12.6-1.41 21.4.34 3.07 3.67 6 7.92 7 5.72 1.36 11.2-1.06 14.69-6.45 6.88-10.66 2.67-22.95 1.61-25.66Z" class="color010101 svgShape"/><path fill="#010101" d="M562.28 342.59a14.81 14.81 0 0 0 6.28-1c6.18-2.33 19.8-3.09 26.3 4.78 3.86 4.68 2.54 15.49.49 21.32-1.62 4.58-5.69 9-9.58 4.41-3-3.51-3.55-7.31-4.28-11.66a20.18 20.18 0 0 0-1-4.1c-2.76-2.31-6.06-3.6-9.23-2.84-.6 1-10.31 6.1-14.12 3.52-9.95-6.76.45-14.76 5.14-14.43Z" class="color010101 svgShape"/><path fill="#fff" d="M580.9 360.3s3.74-3 5.41.19-.92 5.94-2.7 5.72-3.35-4.21-2.71-5.91Z" class="colorffffff svgShape"/><path fill="#010101" d="M583.82 367h-.31a3.55 3.55 0 0 1-2.39-1.92c-.85-1.42-1.48-3.67-1-5.05l.08-.19.16-.14c.23-.18 2.34-1.81 4.35-1.38a3.28 3.28 0 0 1 2.25 1.81 4.82 4.82 0 0 1-.21 5.1 3.82 3.82 0 0 1-2.93 1.77Zm-2.24-6.23a5.79 5.79 0 0 0 .88 3.49c.49.81 1 1.14 1.24 1.17a2.18 2.18 0 0 0 1.81-1.09 3.26 3.26 0 0 0 .11-3.49 1.73 1.73 0 0 0-1.18-1 4.37 4.37 0 0 0-2.86.92Z" class="color010101 svgShape"/><path fill="#fff" d="M550.18 543.34s5.8 10.53 6.34 11.43c0 0 46.57-16.87 57-31.16 18.56-25.46 24-55.48 12.31-82.09-.07-.07-34.11 7.7-30.47 9.61 1.33.72-1.54 52.51-3 54.06s-38.09 34.58-42.18 38.15Z" class="colorffffff svgShape"/><path fill="#010101" d="m556.19 555.72-.34-.55c-.54-.91-6.12-11-6.35-11.45l-.31-.55.48-.42c3.87-3.37 40.85-36.69 42.11-38.08 1.27-2.55 3.89-49.1 3-53a1.09 1.09 0 0 1-.45-.95c.06-.82.91-1.57 5-3 2.12-.74 26.18-7.66 27.06-6.72l.14.22c11.48 26.09 7 56.29-12.4 82.86-10.43 14.31-55.43 30.74-57.34 31.43Zm-5-12.21c1.06 1.92 4.57 8.28 5.71 10.3 5.53-2.06 46.48-17.62 56-30.66 18.9-25.92 23.43-55.31 12.48-80.75-4.26.87-26.33 6.22-29.29 8.38a1.8 1.8 0 0 1 .23.71c.77 4.63-1.58 52.33-3.35 54.24-1.34 1.43-35.97 32.61-41.8 37.78Z" class="color010101 svgShape"/><path fill="#0085ff" d="M590.2 456.35c-.88-3.71-6.05-28.58.91-44.21 3.18-7.11 11.5-22.58 20.73-19.24 14.8 5.37 19.87 35.19 22.59 57-13.43 8.72-27.26 11.93-44.23 6.45Z" class="colorabb7c2 svgShape"/><path fill="#fff" d="M549.52 543.91c-2.3-1.62-6.65-4.53-9-4.57-1.42 0-3.17.75-1.82 2.3a7.82 7.82 0 0 0 3.4 1.88c-5.56.65-11.56 3-14.2 7.72-1.7 3.08.24 4.23 2.78 2.3 4.91-3.72 9.42-4.76 1.76.34-1.54 1-4.23 3.93-3.48 5.09 1.61 2.48 6.64-1.92 9.1-3.53 2.54-.24-2.61 4.5-2.94 5.88-1.5 6.25 8.31-2.34 9.15-1.94 2.36 1.12-5.16 5.87-1 6.4 3.12.39 8.14-6.77 10.57-7.91 2-.93 5.85-1.51 6.65-4 1.51-4.49-6.64-8.6-10.97-9.96Z" class="colorffffff svgShape"/><path fill="#010101" d="M543.56 566.6a2.17 2.17 0 0 1-.36 0c-.36-.05-1.48-.19-1.85-1.1-.45-1.07.47-2.25 1.43-3.49a10.86 10.86 0 0 0 1.12-1.64c-.46.26-1.18.72-1.79 1.12-3.34 2.16-5.81 3.62-7.19 2.64-1.07-.75-.67-2.4-.54-2.94a9.21 9.21 0 0 1 1.82-2.75c.34-.42.79-1 1.16-1.5l-.3.22c-2.3 1.66-5.15 3.73-7.18 3.33a2.25 2.25 0 0 1-1.55-1.05c-.85-1.29.54-3.23 1.91-4.63a2.71 2.71 0 0 1-3.1.05c-.42-.37-1.26-1.49.1-4 2.7-4.86 8.28-6.86 12.15-7.69a5.6 5.6 0 0 1-1.31-1.05 2 2 0 0 1-.52-2.23c.49-1 2-1.36 3-1.36 1.9 0 5 1.55 9.37 4.64 3.06 1 9.15 3.74 11 7.39a4.5 4.5 0 0 1 .36 3.6c-.71 2.19-3.27 3.07-5.33 3.77a17 17 0 0 0-1.72.65 17.75 17.75 0 0 0-3.4 3c-2.49 2.48-5.04 5.02-7.28 5.02Zm-.76-1.71a2.46 2.46 0 0 0 .6.14c1.54.19 4.3-2.54 6.3-4.55a18.15 18.15 0 0 1 3.84-3.29c.53-.24 1.19-.47 1.89-.71 1.81-.62 3.87-1.33 4.35-2.78a3 3 0 0 0-.27-2.39c-1.54-3-7-5.63-10.22-6.66l-.21-.1c-5.15-3.63-7.52-4.41-8.6-4.43-.88 0-1.41.26-1.5.46 0 0 0 .25.28.54a7.63 7.63 0 0 0 3 1.66l3.33 1.11-3.42.43c-3.07.36-10.54 1.79-13.61 7.33-.66 1.18-.62 1.85-.44 2s.91.17 2.06-.71c0 0 5.16-3.84 6.59-3.22l.43.19.1.55c0 .45.09 1.07-4.45 4.09-1.67 1.11-3.48 3.48-3.26 4a.76.76 0 0 0 .53.36c1.39.25 4.14-1.74 6-3.07.56-.4 1.07-.77 1.51-1.06l.36-.12a1.34 1.34 0 0 1 1.42.59c.49.92-.4 2.1-2 4.11a12.09 12.09 0 0 0-1.53 2.15c-.25 1-.08 1.29-.07 1.3.68.42 4.26-1.92 5.43-2.68 2.15-1.39 2.75-1.76 3.36-1.46a1.47 1.47 0 0 1 .88 1c.24 1-.6 2.08-1.48 3.22a6.27 6.27 0 0 0-1.22 1.95Z" class="color010101 svgShape"/><path fill="#fff" d="M548.69 544.35a6.46 6.46 0 0 0 3.27-1.47c1.57-1.32 10.65-.24 12.22 1.86s-1.81 7.08-1.81 7.08a6 6 0 0 0-2.74 2.44c-.75 1.6-12.91-4.15-13-6.25s2.06-3.66 2.06-3.66ZM465.55 434.17c-.14-2.82-.55-8-2-9.93-.86-1.13-2.54-2-2.93 0a7.9 7.9 0 0 0 .61 3.84v.05c-3.95-4-9.47-7.26-14.85-6.4-3.47.56-3.18 2.79-.09 3.61 6 1.56 9.56 4.47.82 1.6-1.76-.59-5.7-.92-6.15.4-1 2.79 5.6 4 8.39 5 1.76 1.85-5.15.73-6.44 1.32-5.84 2.68 7 5.09 7.18 6 .57 2.55-7.81-.44-5.65 3.17 1.62 2.7 10.35 2.23 12.75 3.44 2 1 4.79 3.67 7.21 2.78 4.6-1.68 2.75-10.64 1.15-14.88Z" class="colorffffff svgShape"/><path fill="#010101" d="M463.42 450c-1.75 0-3.51-1.14-5-2.09-.57-.36-1.1-.71-1.57-.95a17.88 17.88 0 0 0-4.44-.83c-3.65-.44-7.42-.9-8.63-2.91a2.21 2.21 0 0 1-.28-2.14c.57-1 2.06-1 3.64-1a11.4 11.4 0 0 0 2-.12c-.48-.21-1.29-.48-2-.72-3.77-1.29-6.44-2.33-6.53-4-.06-1.31 1.48-2 2-2.24a9.38 9.38 0 0 1 3.3-.26h1.89l-.36-.11c-2.72-.78-6.1-1.75-7.06-3.59a2.34 2.34 0 0 1-.13-1.87c.51-1.47 2.89-1.57 4.83-1.35-1.27-.57-2-1.44-1.95-2.41 0-.56.39-1.92 3.16-2.36 5.49-.87 10.52 2.28 13.55 4.81a5.19 5.19 0 0 1 0-1.67 2 2 0 0 1 1.42-1.8 3.21 3.21 0 0 1 2.9 1.48c1.15 1.52 1.84 4.87 2.13 10.23 1.11 3 2.7 9.52 1 13.25a4.57 4.57 0 0 1-2.61 2.5 3.8 3.8 0 0 1-1.26.15Zm-18.53-8.15a3.06 3.06 0 0 0 .26.57c.81 1.35 4.66 1.82 7.48 2.15a18.17 18.17 0 0 1 4.95 1 19.73 19.73 0 0 1 1.72 1c1.61 1.05 3.45 2.24 4.88 1.71a3 3 0 0 0 1.72-1.69c1.41-3.06.13-8.94-1.08-12.15l-.05-.24c-.33-6.28-1.17-8.62-1.82-9.49a2 2 0 0 0-1.29-.89c-.06 0-.18.17-.25.56a7.52 7.52 0 0 0 .58 3.42l1.2 3.33-2.48-2.46c-2.18-2.19-8-7.19-14.16-6.18-1.33.21-1.84.66-1.85.9s.43.81 1.83 1.18c.06 0 6.22 1.68 6.6 3.2l.11.45-.36.42c-.33.31-.8.73-6-1-2-.67-4.92-.55-5.17-.09a.75.75 0 0 0 0 .64c.64 1.24 3.93 2.19 6.11 2.81.66.19 1.26.36 1.75.53l.32.2a1.32 1.32 0 0 1 .41 1.49c-.42.95-1.91 1-4.47 1a12.51 12.51 0 0 0-2.62.12c-1 .45-1.08.74-1.08.75.1.78 4.14 2.17 5.47 2.62 2.43.83 3.07 1.08 3.22 1.75a1.52 1.52 0 0 1-.26 1.32c-.64.8-2 .81-3.46.82a6.61 6.61 0 0 0-2.21.22ZM642.25 378.07c-3.78.47-12.42 2.77-16.08-4.45-1.37-2.71-1.55-7.45-1.82-10.66-.39-4.54-.43-9.15-1.36-13.64-1.15-5.53-3.44-11.46-8.19-14.91-7.54-5.46-21.82-1.36-25.84 6.8a1.64 1.64 0 0 0 .4 2 1.51 1.51 0 0 0 .23.43c4.59 5.38 9.93 5.55 11.68 14.29.9 4.5-.28 9.22-.18 13.76.17 8.3 3.33 17.51 10.44 22.43 11.41 7.88 30.65-1.45 33.49-14.24.37-1.64-1.48-2.45-2.77-1.81Z" class="color010101 svgShape"/><path fill="#3298f5" d="M598.72 348c-1.64-4.36-5.65-6.59-9.82-8.08-2.17-.77-3.69 2.5-1.5 3.28 3.19 1.14 6.65 2.61 7.93 6 .82 2.18 4.21.96 3.39-1.2Z" class="colorf58132 svgShape"/><path fill="#fff" d="M464.77 434.33a13.64 13.64 0 0 0 4.89 6c3.53 2.31-.92 14.93-.92 14.93l-7.8-6.11s-2.2-3.71-4.23-4 1.92-9.79 1.92-9.79ZM581.23 359l1.52 2.27c.41.59-.51 4 .22 5.83s-6.58.72-6.91-1.05a36.15 36.15 0 0 1 .07-6.29Z" class="colorffffff svgShape"/><path fill="#010101" d="m438.54 446.6 13 6.39-4.87 9.89c-.14.22-3.11-1-6.68-2.78s-6.37-3.37-6.29-3.6Z" class="color010101 svgShape"/><path fill="#0085ff" d="m464.15 396.5-6.61 13.42 11.46 5.66 6.61-13.43a3.89 3.89 0 0 0-1.78-5.23l-4.46-2.2a3.91 3.91 0 0 0-5.22 1.78Z" class="colorabb7c2 svgShape"/><path fill="#0085ff" d="m436.83 447.19 15.26 7.52a2.6 2.6 0 0 0 3.48-1.19l20.52-41.64a2.6 2.6 0 0 0-1.19-3.48l-15.26-7.51a2.59 2.59 0 0 0-3.48 1.18l-20.51 41.64a2.59 2.59 0 0 0 1.18 3.48Z" class="colorabb7c2 svgShape"/><path fill="#010101" d="m464.58 395.61-1.05 2.16 11.47 5.65 1.06-2.15a2.92 2.92 0 0 0-1.33-3.92l-6.22-3.07a2.94 2.94 0 0 0-3.93 1.33ZM454.83 495.68c20-2.07 31.28-14 31.28-31.33 0-15.48-8.12-26.8-22.87-29.36l-.28-7.7h.47a37.07 37.07 0 1 1-8.6 73.13Z" class="color010101 svgShape"/><path fill="#010101" d="M461.91 421.88a8 8 0 1 1 3.64 10.69 8 8 0 0 1-3.64-10.69Z" class="color010101 svgShape"/><path fill="#3298f5" d="M463.54 422.68a6.17 6.17 0 1 1 2.81 8.26 6.16 6.16 0 0 1-2.81-8.26Z" class="colorf58132 svgShape"/><path fill="#010101" d="M457.79 436.09a4.4 4.4 0 1 1 2 5.89 4.4 4.4 0 0 1-2-5.89Z" class="color010101 svgShape"/><path fill="#3298f5" d="M458.68 436.53a3.41 3.41 0 1 1 1.55 4.56 3.41 3.41 0 0 1-1.55-4.56Z" class="colorf58132 svgShape"/><path fill="#0085ff" d="M467.66 509.49h20.86l-1.85-15.7a8.88 8.88 0 0 0-8.58-8.11 8.88 8.88 0 0 0-8.58 8.11ZM452.14 501.42a4.94 4.94 0 0 0 4.94-4.94v-7.22h-9.89v7.22a4.94 4.94 0 0 0 4.95 4.94Z" class="colorabb7c2 svgShape"/><path fill="#010101" d="M435.7 485.68h32.87v4.47H435.7z" class="color010101 svgShape"/><path fill="#3298f5" d="M436.62 484.26h31.04v1.41h-31.04z" class="colorf58132 svgShape"/><path fill="#010101" d="M507 514.27h-72.21v-1.78a5.73 5.73 0 0 1 5.73-5.73h60.77a5.73 5.73 0 0 1 5.73 5.73Z" class="color010101 svgShape"/><path fill="#0085ff" d="M446.64 462.86c-.19.43-3.53-.63-7.18-2.24s-6-3.7-5.79-4.13 2.83.72 6.49 2.34 6.67 3.6 6.48 4.03Z" class="colorabb7c2 svgShape"/><path fill="#3298f5" d="m610.8 514.27-6.59 11.16H263l-6.6-11.16h354.4zM627.24 723.19h5.89l-32.58-197.76h-12.48l39.17 197.76zM563.25 723.19h5.89l-32.58-197.76h-12.48l39.17 197.76zM242.34 723.19h-5.89l32.57-197.76h12.49l-39.17 197.76zM304.16 723.19h-5.89l32.58-197.76h12.48l-39.17 197.76z" class="colorf58132 svgShape"/><path fill="#0085ff" d="m610.8 514.27-6.59 11.16h-84.78l-3.81-11.16h95.18z" class="colorabb7c2 svgShape"/><path fill="#010101" d="m183.43 723.19 2.13-.05-3.04-65.94-2.13.05 3.04 65.94z" class="color010101 svgShape"/><path fill="#010101" d="M134.34 653.42c0-4.53 29.51-4.88 38.56-4.88s38.55.35 38.55 4.88-29.51 4.87-38.55 4.87-38.56-.35-38.56-4.87Zm38.56-2.75c-19.86 0-32.75 1.49-35.9 2.75 3.15 1.24 16 2.74 35.9 2.74s32.75-1.5 35.89-2.74c-3.14-1.26-16.04-2.75-35.89-2.75Z" class="color010101 svgShape"/><path fill="#fff" d="M172.9 672.07a38.43 38.43 0 0 1-38.39-38.39 38 38 0 0 1 2.55-13.76h71.68a38.39 38.39 0 0 1-35.84 52.15Z" class="colorffffff svgShape"/><path fill="#010101" d="M208.15 620.76a37.55 37.55 0 1 1-70.5 0Zm1.16-1.69h-72.83a39.24 39.24 0 1 0 72.83 0Z" class="color010101 svgShape"/><path fill="#010101" d="M136.48 619.07c0 3.18 16.3 5.76 36.41 5.76s36.42-2.58 36.42-5.76-16.3-5.77-36.42-5.77-36.41 2.58-36.41 5.77Z" class="color010101 svgShape"/><path fill="#5a7084" d="M140.07 619.07c0 2.35 14.69 4.26 32.82 4.26s32.84-1.91 32.84-4.26-14.7-4.27-32.84-4.27-32.82 1.91-32.82 4.27Z" class="color84605a svgShape"/><path fill="#fff" d="M140.05 632.31c.09-2.94 4.66-2.95 4.57 0-.21 7 .7 13.93 5.73 19.17 2.05 2.12-1.18 5.36-3.23 3.24-5.86-6.1-7.31-14.21-7.07-22.41Z" class="colorffffff svgShape" opacity=".42"/><path fill="#010101" d="M172.9 658.29c9 0 38.55-.35 38.55-4.87h-2.13a.6.6 0 0 1 .11-.37c-1.29 1.31-14.7 3.11-36.53 3.11s-35.25-1.8-36.54-3.11a.59.59 0 0 1 .12.37h-2.14c0 4.52 29.51 4.87 38.56 4.87Z" class="color010101 svgShape"/><path fill="#010101" d="m216.95 723.15 2.13-.15-8.15-69.02-2.13.14 8.15 69.03zM130.73 723.15l6.81-68.75-2.12-.16L128.6 723l2.13.15z" class="color010101 svgShape"/><path fill="#010101" d="M133.91 689.12h65.93v2.13h-65.93z" class="color010101 svgShape" transform="rotate(-88.83 166.876 690.182)"/><path fill="#fff" d="M172.88 622.48h-2c-1.57 0-3.08 0-4.56-.06-.67 0-1.33 0-2-.08-1 0-2-.06-2.9-.11-.66 0-1.27-.06-1.86-.09-14.37-.84-18.34-2.55-18.67-3.14.31-.37 4.06-2 17.39-2.9l2.61-.13 2.67-.13 2-.07c2.12-.06 4.31-.1 6.57-.1h2.06c3.72 0 7.28.12 10.56.29l2.08.11c13.86.86 17.74 2.55 18.07 3.12-.52.72-6.73 2.41-21.18 3.07l-2.07.08c-2.78.1-5.71.16-8.75.16Z" class="colorffffff svgShape"/><path fill="#010101" d="M174.18 616.5c3.72 0 7.27.12 10.52.29l2 .1h.21c9.09.55 13.82 1.5 16 2.18-2.63.82-8.71 1.83-19.12 2.31H181.72c-2.94.1-5.87.15-8.73.15h-2c-1.55 0-3.05 0-4.52-.06-.66 0-1.3 0-2-.07-1 0-1.9-.06-2.89-.12-.67 0-1.32-.06-2-.1-9.41-.54-14.27-1.5-16.45-2.19 2.15-.68 6.78-1.57 15.32-2.14l1.05-.06h1c1.06-.06 2.14-.12 3.23-.16h2c2.11-.05 4.3-.09 6.55-.09Zm0-1.7h-2.06c-2.27 0-4.47 0-6.6.1l-2 .08c-1.11 0-2.2.1-3.28.16-.68 0-1.36.08-2 .1-10.78.72-18.17 2.16-18.17 3.84s7.89 3.21 19.26 3.87c.66 0 1.34.08 2 .1 1 .06 1.9.1 2.9.12.64 0 1.3.06 2 .08h6.56c3.05 0 6-.06 8.78-.15l2.08-.08c12.79-.59 22-2.15 22-4 0-1.7-7.66-3.18-18.75-3.86l-2.19-.12c-3.31-.18-6.88-.27-10.6-.3ZM172.41 580.9a18.84 18.84 0 0 1-3.76-3.1c-1.64-1.67-4.24-4.39-4.2-6.95 0-2.09 2.2-2.56 3.66-1.32 1.29 1.1 1.84 2.78 2.86 4.09a12.91 12.91 0 0 0 5.33 3.71c2.83-4 3.29-9.57 2.34-14.42-1.1-5.6-4.79-13.58-10.32-21a29.66 29.66 0 0 1-2.55 5.2c-1.05 1.73-2.72 5-4.71 5.73s-2.54-1.21-2.22-2.8a.61.61 0 0 1 .06-.25 4.17 4.17 0 0 1 .13-.42.55.55 0 0 1 .23-.28c1.16-2.24 2.5-4.38 3.51-6.68a36 36 0 0 0 1.69-5.25c-4.84-5.45-10.67-10.22-17.14-13a60.64 60.64 0 0 1 3.06 8.52c.86 2.76 3.13 8.64 1 11.35a2.21 2.21 0 0 1-2.66.71c-1.47-.82-1.29-3.84-1.31-5.2-.06-3.31-.08-6.17-1.16-9.39a30.87 30.87 0 0 0-4.12-7.7 27.59 27.59 0 0 0-12.66-.08 7.31 7.31 0 0 1 2.54 4.19c.24 1.53-.69 5.05-2.69 5.17-2.64.15-2.83-6-3.15-8.38A33.75 33.75 0 0 0 119 527a31.46 31.46 0 0 0-9.73 10.29.51.51 0 0 1 .1.25c.85 6.7 9.41 9 14.5 11.6 1.58.81 7.51 3.58 6.74 6-.41 1.27-2.52 1.27-3.52 1.09-2.55-.47-4.84-2.51-6.82-4-4.58-3.56-9.1-7-12.89-11.29-4.19 9-5.14 19.28-5 26.92a.51.51 0 0 1 .45 0 20.36 20.36 0 0 0 9.54 1.49c2-.18 4.13-.66 6.17-.36 1.71.25 4.4 2.35 2.47 4.06-1.65 1.47-5.32 1.12-7.34.86a35.06 35.06 0 0 1-11.2-3.58 56.45 56.45 0 0 0 .55 5.62 27.6 27.6 0 0 0 11.94 18.42 28.28 28.28 0 0 0 6.75 3.27 32.31 32.31 0 0 0 10.14-14.4c.81-2.39 2.52-9 5.94-8.79 1.52.1 2.58 2 2.86 3.28.5 2.25-.87 4.49-2.1 6.24-1.82 2.58-3.82 5-5.59 7.61s-3.5 5-5.38 7.43a30.86 30.86 0 0 0 13-1c6.57-2 13.45-8.86 9.81-15.88 7.05 1.42 15.73 2.48 22.02-1.23Zm-57.94-18.65a2.93 2.93 0 0 1-.29 0 .55.55 0 0 1-.82.08l-.26-.29a3.67 3.67 0 0 1-1.35-2.17.51.51 0 0 1 .07-.44 7.22 7.22 0 0 1-.16-1.29c0-1 .47-2.18 1.7-2a3.8 3.8 0 0 1 2.87 3 2.83 2.83 0 0 1-1.76 3.11Zm42.91 1.65a1.89 1.89 0 0 1-2.83.24 3.38 3.38 0 0 1-.86-3.41.52.52 0 0 1 .34-.35h.05a3.37 3.37 0 0 1 3.36.31 2.29 2.29 0 0 1-.06 3.21Z" class="color010101 svgShape"/><path fill="#0085ff" d="M228.42 542.18a46.22 46.22 0 0 0 11.08 2.69c2.09-7.22 1.77-15.07 1-22.59a31.53 31.53 0 0 1-9.18 6.74c-3 1.42-8.23 3.8-10.93.65a.55.55 0 0 1 0-.78c2.93-2.42 6.83-2.18 10.29-3.26a20 20 0 0 0 9.48-6.39c-.08-.62-.16-1.25-.23-1.86-.7-5.57-1.67-11.08-2.77-16.57l-.15.31c-.47 1-1.36 3-2.62 3.19s-1.6-1.19-1.36-2.1c.36-1.39 1.7-2.5 2.25-3.85a25.53 25.53 0 0 0 .86-2.46c-.93-4.36-1.93-8.71-2.93-13a.57.57 0 0 0-.68-.39c-4.32.6-8.68 1.2-13 1.91-4.73 4.66-8.11 10.15-8.66 17-.16 1.94 1.06 12.11-3.58 10.86-4.9-1.31-2.59-10.45-1.64-13.5a44.17 44.17 0 0 1 6.93-13.08c-9.87 1.94-19.54 4.73-28.41 9.45-3.33 7-2.87 14.21 1.45 21 .95 1.49 6.43 8.44 2 9.21-3.73.64-6.64-6.68-7.27-9.4-.93-4.06-.39-8.26-.1-12.36a26.63 26.63 0 0 1 1.38-7.06l-.32.18c-6.69 4-13 9.13-15.09 17a29.47 29.47 0 0 0-.63 10.63 50.67 50.67 0 0 0 5.71 7.11c2.21 2.22 4.75 3.21 7.29 4.9 1.81 1.2 4.91 5 2.23 6.93-2.15 1.57-6.2-.35-8.26-1.21-.84-.35-1.66-.73-2.47-1.12-.33 21.22 18.16 10.24 18.16 10.34-.14 19.44 19.69 19.61 31.9 15.07-1.23-.24-2.46-.46-3.69-.67-2.43-.4-4.91-.53-7.32-1-2.63-.51-6.29-2.16-5.75-5.52.47-2.9 4.23-.55 5.61.21 4.75 2.61 10.3 5 15.82 4.74.59-.35 1.17-.71 1.74-1.11a34.28 34.28 0 0 0 10.26-11.46 95.91 95.91 0 0 1-14.06-1.26c-3.38-.59-8.72-1.49-10.34-5a.56.56 0 0 1 .48-.83 21.4 21.4 0 0 1 11.5 2.65 22.26 22.26 0 0 0 13.34 2.64 32 32 0 0 0 1.43-3.49 1.87 1.87 0 0 0 .07-.22 46.89 46.89 0 0 1-11-2.7c-.77-.35-.48-1.43.18-1.17Zm-7.3-39.9a.45.45 0 0 1 .26-.36 2.14 2.14 0 0 1 1.88-1.77c2.58-.39 4.38 2.65 2.23 4.42a3.35 3.35 0 0 1-3.1.73c-1.29-.45-1.45-1.85-1.27-3.02Zm-23.87 52.09a2 2 0 0 1-2.66.13.47.47 0 0 1 .11-.81 3 3 0 0 1 .74-2 1.57 1.57 0 0 1 2.47.31 1.88 1.88 0 0 1-.66 2.37Zm2.22-41.73c-.2 1.3-.83 3.2-2.12 3.84-1.54.75-2.17-1.17-2.35-2.32a.63.63 0 0 1 0-.24 7.15 7.15 0 0 1-.86-4c.26-2 2.21-2.47 3.81-1.53s1.78 2.68 1.52 4.25Zm14.61 20.61a2.35 2.35 0 0 1-2.71.47 2.72 2.72 0 0 1-1.49-3 .62.62 0 0 1 .85-.48 1.85 1.85 0 0 1 2.8-.26c.82.8 1.37 2.31.55 3.27ZM134.65 625.15A28 28 0 0 1 137 632c-4.68 1.69-9.9 1.89-14.92 1.76a20.08 20.08 0 0 0 4-6.15c.79-2 2.12-5.4-.09-7a.4.4 0 0 0-.52 0c-1.46 2-1.11 4.43-1.66 6.68a12.72 12.72 0 0 1-3.81 6.41l-1.25-.05c-3.72-.16-7.42-.49-11.11-.91l.2-.12c.61-.34 1.91-1 2-1.81s-.87-.95-1.46-.76c-.9.3-1.58 1.2-2.44 1.62-.52.25-1 .47-1.59.67-2.93-.37-5.86-.78-8.79-1.2a.35.35 0 0 1-.28-.4c.18-2.76.38-5.55.64-8.34a17.88 17.88 0 0 1 10.81-6.33c1.28-.2 8.07 0 7-2.82-1.1-3-7-1.1-9-.35a29.77 29.77 0 0 0-8.33 5 62.52 62.52 0 0 1 4.9-18.44 14.35 14.35 0 0 1 14-.15c1 .53 5.9 3.64 6.19.8.25-2.39-4.73-3.86-6.57-4.12-2.73-.39-5.49.17-8.19.56a18.54 18.54 0 0 0-4.61 1.23c0-.07.07-.15.1-.21 2.32-4.43 5.42-8.71 10.52-10.4a20.52 20.52 0 0 1 7-.94 33.6 33.6 0 0 1 5 3.26c1.58 1.28 2.36 2.84 3.6 4.36.89 1.08 3.54 2.85 4.7 1.06.94-1.45-.53-3.91-1.2-5.17-.27-.51-.56-1-.86-1.5 14-1.28 7.66 11 7.72 11 12.87-1.07 13.94 11.46 11.52 19.41-.21-.76-.42-1.53-.62-2.3-.38-1.51-.59-3.07-1-4.58s-1.75-3.86-3.94-3.35c-1.9.44-.17 2.7.41 3.53 2 2.87 3.82 6.27 3.9 9.77-.2.39-.42.78-.65 1.15a22.37 22.37 0 0 1-7.09 7.07 58.85 58.85 0 0 0-1.52-8.83c-.55-2.1-1.4-5.43-3.82-6.28a.37.37 0 0 0-.52.34 13 13 0 0 0 2.3 7.14 13.6 13.6 0 0 1 2.39 8.31 21 21 0 0 1-2.24 1.08h-.14a28.91 28.91 0 0 0-2.32-6.84c-.22-.36-.91-.12-.71.29Zm-26.78-2.6a.26.26 0 0 0-.22.18 1.38 1.38 0 0 0-1.08 1.28 1.68 1.68 0 0 0 3 1.18 2 2 0 0 0 .33-2c-.33-.79-1.25-.82-2.03-.64Zm33.35-17.73a1.27 1.27 0 0 0 0-1.69.32.32 0 0 0-.53.11 2 2 0 0 0-1.29.57 1 1 0 0 0 .33 1.54 1.27 1.27 0 0 0 1.49-.53Zm-27.53 3.51a3.53 3.53 0 0 0 2.44-1.53c.43-1-.88-1.32-1.65-1.37a.29.29 0 0 0-.16 0 4.72 4.72 0 0 0-2.69-.34 1.48 1.48 0 0 0-.84 2.48 2.71 2.71 0 0 0 2.9.76Zm14.36 8.2a1.48 1.48 0 0 0 .18-1.74 1.85 1.85 0 0 0-2-.79.39.39 0 0 0-.28.56 1.14 1.14 0 0 0 0 1.79 1.73 1.73 0 0 0 2.1.18Z" class="colorabb7c2 svgShape"/><path fill="#010101" d="M246 579.7c-1.3-.07-2.6-.16-3.91-.26-2.64-.22-6.34.23-8.52-1.58a.61.61 0 0 1 0-.91c4.09-3.44 8.58.35 13 .53a40.8 40.8 0 0 0 .23-9.88 24.37 24.37 0 0 0-1.64-7.07c-2.43 3.32-4.58 6.85-7.77 9.43-1.28 1-4.58 4.1-6.25 2.86-1.84-1.36 1.38-3.55 2.36-4.2 4.05-2.7 8-5.32 11.13-9.27a15.72 15.72 0 0 0-7.35-7.43 33.72 33.72 0 0 0-7.61-2.55c.59 4.12-.05 10.22-3.85 11.24-2.68.71-4.36-2.42-4.54-4.89-.21-2.88 1.63-5.46 3.86-7.08a64.89 64.89 0 0 0-12.05-.15q-1.08.09-2.16.21a.62.62 0 0 1-.07.23c-1.91 3.71-4.08 7.94-4.46 12.18-.14 1.57.52 3.64-.31 5.12-1.31 2.33-3.76.4-4.12-1.48-.66-3.44 1-7.77 2.06-11 .46-1.35 1-2.79 1.5-4.21a36.22 36.22 0 0 0-13.78 5.64 28.33 28.33 0 0 0-3.86 3.31 24.34 24.34 0 0 0 1.11 12.17c1.11 2.71 4.19 7.81 1.18 10.64-2.07 2-3.29-1.77-3.73-3.32a68.21 68.21 0 0 1-2.14-15.22 45.74 45.74 0 0 0-5.1 9.91 76.35 76.35 0 0 0-3.11 10.64c2.54 1.8 5.53 2.53 8.29 4.11 1.29.74 3.84 2.3 2.6 4.26-2.56 4.08-8.38-.64-11.65-4.14a10.12 10.12 0 0 0 3.11 8.3c5 5.15 12.75 6.82 18.79 2.15-.24 6 4.27 11 10.15 10.13a10.08 10.08 0 0 0 5.41-2.78 28.3 28.3 0 0 1-4.11.15c-1.76-.06-4.76-.2-5.47-2.3s1.16-2.14 2.45-1.65c1.59.61 2.6 1.49 4.41 1.53a15.59 15.59 0 0 0 6-1.39c2.21-2.64 4.35-5 7.49-6.61a33.32 33.32 0 0 1 3.72-1.64c-2.46-.21-6.08-.65-6.9-2.9-1.35-3.75 4.36-4 6.28-3.69 2.57.42 5 1.24 7.65 1.42a19.46 19.46 0 0 0 6.5-.71c.43-.31.87-.64 1.28-1a13.38 13.38 0 0 0 3.9-6.85Zm-46.3 2.76c-1.16 0-1.71-1.44-1.85-2.49a5.4 5.4 0 0 1 .48-3 .6.6 0 0 1 0-.26c.25-.73.65-1.59 1.42-1.82a1.54 1.54 0 0 1 1.52.54 4.87 4.87 0 0 1 1 4c-.17 1.21-1.21 3.07-2.56 3.03Zm14.47-13.93a3.1 3.1 0 0 1 .86-3.69.5.5 0 0 1 .33-.12 1.8 1.8 0 0 1 2.85.66 3.17 3.17 0 0 1-1.06 3.89 2 2 0 0 1-2.97-.74Zm-2.29 26.28c-.72 1.2-2.38 1.71-3.33.67a3 3 0 0 1-.38-3.08.54.54 0 0 1 0-.82 2.5 2.5 0 0 1 3.72 3.23Z" class="color010101 svgShape"/><path fill="#010101" d="m181.67 623.17 2.08-.08a66 66 0 0 1 2.44-6.24c.25-.54.5-1.09.78-1.63a76 76 0 0 1 21.4-26.45c1-.82-.43-2.24-1.44-1.45a77.58 77.58 0 0 0-21.81 27c-.12.25-.24.5-.34.76a61.65 61.65 0 0 0-3.11 8.09ZM170.83 623.3h2c.38-2.84.82-5.69 1.31-8.52.84-4.91 1.83-9.8 2.9-14.65 2.3-10.25 5-20.41 7.74-30.56 2.67-9.92 5.54-19.81 11.66-28.23.78-1.05-1-2.06-1.76-1-5.88 8.07-8.83 17.48-11.42 27-3.08 11.33-6.1 22.69-8.6 34.15-.95 4.41-1.85 8.83-2.58 13.27-.45 2.87-.88 5.72-1.25 8.54ZM146.56 576.64a117.45 117.45 0 0 1 6.63 16.72c.27.83.5 1.64.74 2.46a157.42 157.42 0 0 1 4.29 19.42c.42 2.55.78 5.14 1.09 7.71.66 0 1.34.08 2 .1-.34-2.65-.69-5.28-1.12-7.91a162.28 162.28 0 0 0-3.68-17.39c-.29-1-.58-2.12-.92-3.18a122.92 122.92 0 0 0-7.35-19c-.49-1.15-2.24-.12-1.68 1.07Z" class="color010101 svgShape"/><path fill="#010101" d="M127.69 607.87c5.27-3.49 10.51-7.06 15.81-10.49 3-1.91 5.89-3.33 9.43-2a8.41 8.41 0 0 1 1 .47 11.31 11.31 0 0 1 2.65 1.93 16.91 16.91 0 0 1 2.65 3.35c2.44 4 3.64 8.85 4.31 13.88.37 2.71.58 5.48.74 8.19.64 0 1.3.05 2 .08-.18-2.73-.37-5.56-.75-8.35-.87-6.9-2.7-13.56-7.13-18.1a14.73 14.73 0 0 0-2.73-2.23 12.28 12.28 0 0 0-2.47-1.21 9.72 9.72 0 0 0-6.76.1c-3.07 1.19-5.93 3.57-8.66 5.38-3.68 2.46-7.37 4.89-11.05 7.35-1.06.65-.09 2.35.96 1.65Z" class="color010101 svgShape"/><path fill="#0085ff" d="M347.38 514.47h-32.55a10.05 10.05 0 0 1-10.05-10.05 10.05 10.05 0 0 1 10.05-10.06h32.55Z" class="colorabb7c2 svgShape"/><path fill="#fff" d="M336.55 512.05a7.78 7.78 0 1 1 0-15.55h57.88v15.55Z" class="colorffffff svgShape"/><path fill="#010101" d="M394 496.92v14.71h-57.45a7.36 7.36 0 1 1 0-14.71Zm.83-.84h-58.28a8.19 8.19 0 1 0 0 16.38h58.29v-16.38Z" class="color010101 svgShape"/><path fill="#010101" d="M398.29 511H337a6.61 6.61 0 1 1 0-13.21h61.26v-3.45H337a10.06 10.06 0 0 0 0 20.11h61.26Z" class="color010101 svgShape"/><path fill="#3298f5" d="M353.32 465.77h-25.21a7.79 7.79 0 0 1-7.79-7.79 7.79 7.79 0 0 1 7.79-7.79h25.21Z" class="colorf58132 svgShape"/><path fill="#fff" d="M344.93 463.8a5.93 5.93 0 0 1 0-11.86h44.73v11.86Z" class="colorffffff svgShape"/><path fill="#010101" d="M389.24 452.36v11h-44.31a5.51 5.51 0 1 1 0-11Zm.84-.83h-45.15a6.34 6.34 0 0 0 0 12.68h45.15v-12.68Z" class="color010101 svgShape"/><path fill="#010101" d="M392.75 463.1h-47.44a5.12 5.12 0 1 1 0-10.24h47.44v-2.67h-47.44a7.79 7.79 0 0 0 0 15.58h47.44Z" class="color010101 svgShape"/><path fill="#0085ff" d="M356.39 477.69H329a6 6 0 0 1-6-6 6 6 0 0 1 6-6h27.4Z" class="colorabb7c2 svgShape"/><path fill="#010101" d="M323.21 473.2a5.94 5.94 0 0 1 5.78-7.43h27.4v2.76l-6.67-.68h-20.55a6.08 6.08 0 0 0-5.96 5.35Z" class="color010101 svgShape"/><path fill="#fff" d="M354 476.09a4.45 4.45 0 0 1 0-8.89h43.76v8.89Z" class="colorffffff svgShape"/><path fill="#010101" d="M397.3 467.62v8.05H354a4 4 0 1 1 0-8.05Zm.83-.83H354a4.86 4.86 0 1 0 0 9.71h44.17v-9.71Z" class="color010101 svgShape"/><path fill="#010101" d="M400.18 475.65h-45.93a3.92 3.92 0 0 1 0-7.84h45.93v-2h-45.93a6 6 0 1 0 0 11.92h45.93Z" class="color010101 svgShape"/><path fill="#3298f5" d="M333.33 494.36h50.07a8.33 8.33 0 0 0 8.34-8.33 8.33 8.33 0 0 0-8.34-8.34h-50.07Z" class="colorf58132 svgShape"/><path fill="#010101" d="M383.4 477.69a8.33 8.33 0 0 1 8.34 8.34 8.85 8.85 0 0 1-.05.89 10.13 10.13 0 0 0-9.14-5.73c-6.74-.07-35.84 0-35.84 0l-7.92-3.5Z" class="color010101 svgShape"/><path fill="#fff" d="M313.48 492.28v-12.75h28.82a6.38 6.38 0 0 1 0 12.75Z" class="colorffffff svgShape"/><path fill="#010101" d="M342.3 480a6 6 0 1 1 0 11.91h-28.4V480Zm0-.83h-29.24v13.57h29.24a6.79 6.79 0 1 0 0-13.57Z" class="color010101 svgShape"/><path fill="#010101" d="M310.21 491.5h31.69a5.48 5.48 0 1 0 0-10.95h-31.69v-2.86h31.69a8.34 8.34 0 0 1 0 16.67h-31.69Z" class="color010101 svgShape"/><g class="color000000 svgShape" clip-path="url(#d)"><path fill="#fff" d="M799.28 53.65h600.4v684.56h-600.4z" class="colorffffff svgShape" opacity=".35"/><path fill="#fff" d="M2028.27 177.13v-7.83h-21.56V45.82h-1214v15.67h13.08V67H1193v102.3H792.71v7.83H1193v201H792.71V386H1193v201H792.71v7.83H1193v131H805.91v4.53h-13.2v18.14h1214V594.86h21.56V587h-21.56V386h21.56v-7.84h-21.56v-201ZM1406.3 386h187v201h-187Zm0-7.84v-201h187v201Zm0-208.86V67h187v102.3Zm0 425.56h187v131h-186.93v4.53h-.07Zm200.14 131v-131h187v131Zm0-138.82V386h187v201Zm0-208.87v-201h187v201Zm0-208.86V67h187v102.3ZM1206.11 67h187v102.3h-187Zm0 110.11h187v201h-187Zm0 208.87h187V587h-187Zm0 208.86h187v135.54h-.11v-4.53h-186.89Z" class="colorffffff svgShape"/></g><g class="color000000 svgShape" clip-path="url(#e)"><path fill="#c6d1db" d="M-52.63 227.77h219.97v505.31H-52.63z" class="colorc6d0db svgShape"/><path fill="#0085ff" d="M109.82 251.97h34.35v13.46h-34.35zM51.97 251.97h34.35v13.46H51.97zM109.82 300.99h34.35v13.46h-34.35zM51.97 300.99h34.35v13.46H51.97zM-5.87 300.99h34.35v13.46H-5.87zM109.82 350.02h34.35v13.46h-34.35zM-5.87 350.02h34.35v13.46H-5.87zM51.97 374.53h34.35v13.46H51.97zM109.82 399.04h34.35v13.46h-34.35zM51.97 423.55h34.35v13.46H51.97zM109.82 448.06h34.35v13.46h-34.35zM-5.87 448.06h34.35v13.46H-5.87zM109.82 493.36h34.35v13.46h-34.35zM51.97 493.36h34.35v13.46H51.97zM109.82 542.38h34.35v13.46h-34.35zM51.97 542.38h34.35v13.46H51.97zM-5.87 542.38h34.35v13.46H-5.87zM109.82 591.4h34.35v13.46h-34.35zM-5.87 591.4h34.35v13.46H-5.87zM51.97 615.91h34.35v13.46H51.97zM-5.87 615.91h34.35v13.46H-5.87zM109.82 640.42h34.35v13.46h-34.35zM51.97 664.93h34.35v13.46H51.97zM109.82 689.44h34.35v13.47h-34.35zM-5.87 689.44h34.35v13.47H-5.87z" class="colorabb7c2 svgShape"/><path fill="#fff" d="M-248.74 6h600.4v684.56h-600.4z" class="colorffffff svgShape" opacity=".35"/><path fill="#fff" d="M-149.44 691.74h-46.6L53.75 27.38h46.6l-249.79 664.36zM-231.72 691.74h-23.3L-5.23 27.38h23.3l-249.79 664.36z" class="colorffffff svgShape" opacity=".5"/><path fill="#fff" d="M150.78 691.74h-23.3L341.64 98.7v47.79L150.78 691.74z" class="colorffffff svgShape" opacity=".6"/><path fill="#fff" d="M376.7 143v-7.83h-21.57V11.71h-1214v15.67h13.08v5.53h387.19v102.28h-400.27V143h400.27v201h-400.27v7.84h400.27v201h-400.27v7.83h400.27v131h-387.06v4.53h-13.21v18.2h1214V560.75h21.57v-7.83h-21.57v-201h21.57v-7.84h-21.57V143Zm-622 208.87h187v201h-187Zm0-7.84V143h187v201Zm0-208.86V32.91h187v102.28Zm0 425.56h187v131h-186.91v4.53h-.06Zm200.13 131v-131h187v131Zm0-138.82v-201h187v201Zm0-208.87V143h187v201Zm0-208.86V32.91h187v102.28ZM155 32.91h187v102.28H155Zm-600.46 0h187v102.28h-187Zm0 110.11h187v201h-187Zm0 208.87h187v201h-187Zm0 208.86h187v135.52h-.07v-4.53h-186.93ZM342 696.27h-.07v-4.53H155v-131h187Zm0-143.35H155v-201h187Zm0-208.87H155V143h187Z" class="colorffffff svgShape"/></g></svg>