<svg xmlns="http://www.w3.org/2000/svg" enable-background="new 0 0 4000 4000" viewBox="0 0 4000 4000"><path fill="none" stroke="#1a1a1a" stroke-linecap="round" stroke-linejoin="round" stroke-miterlimit="10" stroke-width="3" d="M3334.7,2056c0,0-273.2,442.9-116.9,816" class="colorStroke1a1a1a svgStroke"/><path fill="#124777" d="M3529.1,2094c-13.8,27-48.6,36.7-77.6,21.8c29.1,14.9,41.4,48.9,27.6,75.8c-13.8,27-48.6,36.7-77.7,21.9
					c-10.6-5.4-23.8-27.5-29.5-36.7c5.4,14.1,10.1,44,3,57.9c-11.6,22.7-38.1,33.4-63.6,27.4c-5-1.2-9.9-2.9-14.7-5.4
					c-4.8-2.5-9.1-5.4-13-8.8c-15.9-13.9-23.4-34.5-19.6-54c-13.6,14.4-34.7,20.4-55.3,15.6c-5-1.2-9.9-2.9-14.7-5.4
					c-4.8-2.5-9.1-5.4-13-8.8c-19.7-17.2-26.6-44.9-14.9-67.7c7.1-13.9,38.3-26.3,52.9-30.2c-10.8,0.7-40.6,1.6-51.2-3.8
					c-29.1-14.9-41.4-48.8-27.6-75.8c13.8-27,48.6-36.7,77.7-21.8c-29.1-14.9-41.5-48.9-27.7-75.8c13.8-27,48.6-36.7,77.7-21.9
					c10.6,5.4,23.3,20.2,29,29.3c-5.4-14.1-9.6-36.7-2.5-50.6c11.7-22.7,38.1-33.4,63.6-27.4c5,1.2,9.9,2.9,14.7,5.4
					c4.8,2.5,9.1,5.4,13,8.8c15.9,13.9,23.4,34.5,19.7,54c13.5-14.4,34.7-20.4,55.3-15.6c5,1.2,9.9,2.9,14.7,5.4s9.1,5.4,13,8.8
					c19.7,17.2,26.6,44.9,14.9,67.7c-7.1,13.9-28.4,23.3-43,27.1c10.8-0.7,30.7,1.4,41.3,6.8C3530.5,2033.1,3542.9,2067,3529.1,2094
					z" class="color127755 svgShape"/><path fill="none" stroke="#1a1a1a" stroke-linecap="round" stroke-linejoin="round" stroke-miterlimit="10" stroke-width="2" d="M3217.9,1996.1c32.9,35.8,70.8,58.6,116.8,59.8c-38.4,32.6-58,82.2-70.7,138" class="colorStroke1a1a1a svgStroke"/><path fill="none" stroke="#1a1a1a" stroke-linecap="round" stroke-linejoin="round" stroke-miterlimit="10" stroke-width="2" d="M3405.4,1917.9c-10.7,60.4-34.7,105.8-70.7,138c27.7,29.2,69.8,46.5,116.8,59.8" class="colorStroke1a1a1a svgStroke"/><path fill="none" stroke="#1a1a1a" stroke-linecap="round" stroke-linejoin="round" stroke-miterlimit="10" stroke-width="3" d="M3771.3,2526.6c0,0-403.5,59.1-548.8,340.9" class="colorStroke1a1a1a svgStroke"/><path fill="#336b9e" d="M3846.1,2662c-23,5.3-46.3-10.6-52-35.5c5.7,24.9-8.4,49.3-31.5,54.6c-23.1,5.3-46.4-10.6-52-35.5
					c-2.1-9,4.5-28,7.1-36.1c-5.7,10.3-21.2,28.1-33.1,30.9c-19.4,4.5-39.1-6.1-48.3-24.3c-1.8-3.6-3.2-7.4-4.1-11.5
					c-0.9-4.1-1.3-8.2-1.3-12.2c0.3-16.5,8.9-31.3,22.4-38.8c-15.4-0.9-29.6-10.5-37-25.2c-1.8-3.6-3.2-7.4-4.1-11.5
					c-0.9-4.1-1.3-8.2-1.3-12.2c0.4-20.4,13.5-38.4,33-42.9c11.9-2.7,35,9.7,44.6,16.5c-5.9-6.1-21.3-23.4-23.4-32.5
					c-5.7-24.9,8.4-49.3,31.5-54.6c23-5.3,46.4,10.6,52,35.5c-5.7-24.9,8.4-49.3,31.5-54.6c23.1-5.3,46.4,10.6,52,35.5
					c2.1,9.1-0.4,24-3,32.1c5.7-10.3,17.1-24.1,29-26.8c19.5-4.4,39.1,6.1,48.3,24.3c1.8,3.6,3.2,7.4,4.1,11.5
					c0.9,4.1,1.3,8.2,1.3,12.2c-0.3,16.5-8.9,31.3-22.4,38.8c15.4,0.9,29.6,10.5,37,25.2c1.8,3.6,3.2,7.4,4.1,11.5
					c0.9,4.1,1.3,8.2,1.3,12.2c-0.4,20.4-13.5,38.4-33,42.8c-11.9,2.7-28.2-5.3-37.8-12.1c5.9,6.1,14.6,19.1,16.6,28.1
					C3883.2,2632.3,3869.2,2656.7,3846.1,2662z" class="color339e7e svgShape"/><path fill="none" stroke="#1a1a1a" stroke-linecap="round" stroke-linejoin="round" stroke-miterlimit="10" stroke-width="2" d="M3748.4,2426.8c-4.9,37.7,0.4,71.7,22.8,99.9c-38.7-6.6-78.2,6.6-118,27" class="colorStroke1a1a1a svgStroke"/><path fill="none" stroke="#1a1a1a" stroke-linecap="round" stroke-linejoin="round" stroke-miterlimit="10" stroke-width="2" d="M3889.3,2499.7c-41.4,23.9-80.7,32.3-118,27c-3.6,31.2,7.2,65.1,22.8,99.9" class="colorStroke1a1a1a svgStroke"/><path fill="#d7ecff" d="M612.6,2953.2c-1.3-38-6-275.3,164.7-420.4c189-160.6,520.6-146.5,762.8,73.7
			c302.9-335.8,726.7-457.8,1044.5-316.4c179.8,80,284.3,225.9,338.1,320.7c105.9-155.2,288.1-211.1,407.4-156
			c148.4,68.6,227.6,322,82.3,528.7C2479.2,2973.5,1545.9,2963.3,612.6,2953.2z" class="colord7efff svgShape"/><linearGradient id="a" x1="226.812" x2="3493.323" y1="3011.972" y2="3011.972" gradientUnits="userSpaceOnUse"><stop class="stopColor68b2fc svgShape" offset="0" stop-color="#68b5fc"/><stop class="stopColor529bf7 svgShape" offset="1" stop-color="#0085ff"/></linearGradient><ellipse cx="1860.1" cy="3012" fill="url(#a)" rx="1633.3" ry="252.5"/><ellipse cx="1786.3" cy="3012" fill="#153552" class="color152a52 svgShape" opacity=".5" rx="987.8" ry="164.9"/><path fill="#3385d1" d="M1579.4,1097.9l12.1,35.7c0,0,174.9-41.2,273.2-25.2
				c98.4,16,155.2,116,202.3,141.2c17.9,9.6,34.1,5.5,47.2-3.3c-76-60.8-132.4-144.3-226.1-168.8
				C1786.4,1052.5,1680.1,1065.2,1579.4,1097.9z" class="colord1334a svgShape"/><path fill="#56a6ef" d="M2148.9,1205.5c0,0-73.1-124-182.4-189.6c-109.3-65.6-427.1-36.1-427.1-36.1l40.1,118.2
				c100.6-32.6,206.9-45.4,308.7-20.4c93.8,24.5,150.1,107.9,226.1,168.8C2135.6,1232,2148.9,1205.5,2148.9,1205.5z" class="coloref5668 svgShape"/><path fill="#3385d1" d="M1579.4,1022.3l56.4,102h18.3C1654.2,1124.3,1602.3,1027.6,1579.4,1022.3z" class="colord1334a svgShape"/><path fill="#1a1a1a" d="M2065,2797.2c0,0-6.8,124.8,27.8,137.4c34.6,12.6,299.5-10.5,299.5-10.5s15.7-75.5-57.7-87.1
				c-73.4-11.5-121.4-10.5-121.4-10.5l-10.8-55.6L2065,2797.2z" class="color1a1a1a svgShape"/><path fill="#153552" d="M2207.8,2777.9c35.3-42.9-111-663.3-214.4-892.8c-103.4-229.5-339.2-433.8-339.2-433.8l-193,53l25.2,204.3
				c11.8,25.7,26.9,48.1,44.2,68.7c49.7,7.6,98.6,16.9,142.1,45.4c50.7,33.8,86.6,76,116.1,126.7c46.4,76,95,143.5,126.7,221.7
				c71.8,168.9,130.9,337.8,192.1,510.9c14.4,41.9,30.1,83.1,52.2,121C2180.3,2798,2198,2789.8,2207.8,2777.9z" class="color152a52 svgShape"/><path fill="#102940" d="M1915.6,2171c-31.7-78.1-80.2-145.7-126.7-221.7
				c-29.6-50.7-166.2-299.6-216.8-333.4c-43.5-28.5,8.3,168.9-41.4,161.3c67.7,80.6,170,134.7,248.3,259.2
				c98.4,156.4,254.7,703.6,254.7,741.5c0,27.4,72.6,37.6,126.1,24.9c-22.1-37.8-37.8-79.1-52.2-121
				C2046.4,2508.8,1987.3,2339.9,1915.6,2171z" class="color102140 svgShape"/><path fill="#1a1a1a" d="M1384.6,2887.6c0,0,44.9,116.7,15.9,139.3c-29.1,22.6-217.5,123-285,84.3c-67.5-38.7-41.4-69.1,24.9-102.7
				c66.3-33.6,112.2-47.4,112.2-47.4l-6.8-56.2L1384.6,2887.6z" class="color1a1a1a svgShape"/><path fill="#153552" d="M1282.3,2314.5c2.1-78.1,16.9-156.2,42.2-230.1c19-63.3,44.3-120.3,78.1-179.4
				c55.8-99.2,113.6-188.3,169.5-289.1l-12.5-131.8l-199.3,32.8c0,7.6-244.6,557.4-242.1,749c2.5,191.7,38.2,670.9,117.5,680.9
				c40.7,5.2,82.9-8,115-27.9C1257,2727.5,1280.2,2516.2,1282.3,2314.5z" class="color152a52 svgShape"/><path fill="#102940" d="M1586.1,1764.1l-14-148.1c-55.9,100.7-113.7,189.9-169.5,289.1
				c-33.8,59.1-59.1,116.1-78.1,179.4c-25.3,73.9-40.1,152-42.2,230.1c-2,201.7-25.2,413,68.4,604.5c30.3-18.8,51.6-43.5,54.1-64.3
				c5-42.9-85.9-506.1-41.9-666.9C1398.6,2057.1,1586.1,1819.6,1586.1,1764.1z" class="color102140 svgShape"/><path fill="#489deb" d="M1286.5,1303.4c-32.9-21.3-45.9-49.7-49.7-81.1
				c1.3,139.7,146.3,375.4,146.3,375.4s253.5-34,301.4-167.7c18.9-52.6,8.2-132.8-14.7-210.9
				C1571.6,1324.1,1421.1,1389,1286.5,1303.4z" class="coloreb485c svgShape"/><path fill="#3385d1" d="M1287.2,1279.7c-1.5,6.8-14.6,213.7,52.9,224.2s177.9-183.4,246-169.5
				c68.1,13.9,13.4-9.6,13.4-9.6s-45.9-19.7-82,9.6c-36.1,29.3-153,146.1-177.3,98C1315.8,1384.3,1287.2,1279.7,1287.2,1279.7z" class="colord1334a svgShape"/><path fill="#56a6ef" d="M1539.4,979.7c-50.4-5-120.6,22.8-120.6,22.8s-183,89.7-182,219.3c0,0.1,0,0.3,0,0.4
				c3.8,31.4,16.8,59.8,49.7,81.1c134.6,85.7,285.1,20.8,383.2-84.4C1634.4,1098.5,1569.9,982.8,1539.4,979.7z" class="coloref5668 svgShape"/><path fill="#90c8fc" d="M1394.8,802.3c-1.4,4.1-11.8,229.5-11.8,229.5s33.6,33.6,66.4,33.6c32.8,0,39.5-25.2,39.5-25.2v-73.1
				c0,0,39.5,4.2,46.2-19.3c6.7-23.5,11.8-156.4-39.5-169.8C1444.4,764.5,1403.2,778,1394.8,802.3z" class="colorfc9590 svgShape"/><path fill="#102940" d="M1373,901.5c0,0,24.4,9.7,42.9-2.9c18.5-12.6-19.3-45,0-51.7c19.3-6.7,28.2,27.7,28.2,31.5
				c0,3.8,14.3,8,19.3,0s10.1-51.7,2.9-66c40.8,18.5,102.1,10.5,101.7-27.7c-0.4-38.3-7.6-49.2-7.6-49.2s-32.8,27.3-71,13.9
				c-38.3-13.5-87.4-15.6-89.1,20.2C1370.9,759.9,1342.3,866.2,1373,901.5z" class="color102140 svgShape"/><rect width="1327.4" height="969.2" x="1654.2" y="1271.5" fill="#6598c6" class="color6584c6 svgShape"/><rect width="1257.5" height="905.7" x="1689.1" y="1303.3" fill="#fff" class="colorffffff svgShape"/><polygon fill="#3385d1" points="2142.7 1303.3 1986.4 1560 2199.3 2209 1712.8 2209 1712.8 1303.3" class="colord1334a svgShape"/><polygon fill="#70bbff" points="2119 1303.3 1962.7 1560 2175.6 2209 1689.1 2209 1689.1 1303.3" class="colorffde70 svgShape"/><path fill="#67a3db" d="M1624.2,1341.4c-14,11.2-28.9,20.8-43.3,30.8c17.1,5.3,36.2,7.4,36.2,7.4
				s56.1-49.7,68.7-51.8c12.6-2.1,29.4-18.9,30.4-27.8c0.9-8,70-7.6,87.8-22.3c-15.9-3.6-31.6-8.5-46.7-14.3
				C1704.5,1244.3,1668.6,1307.6,1624.2,1341.4z" class="colordb6767 svgShape"/><path fill="#90c8fc" d="M1808,1271.5c4.2-21-71.3-51.4-113.8-43c-42.5,8.4-137.9,117.5-137.9,117.5c-7.3,12.5,7.7,20.9,24.7,26.1
				c14.4-9.9,29.3-19.5,43.3-30.8c44.3-33.8,80.2-97.1,133-78.1c15.2,5.8,30.9,10.7,46.7,14.3
				C1806.1,1275.8,1807.5,1273.8,1808,1271.5z" class="colorfc9590 svgShape"/><path fill="#3385d1" d="M1470.1,1552.5c-40.1,44.3-116.1,92.9-166.8,48.6
				c-110.6-100.1-130.7-264.4-88.2-405.5c-39.4,62.8-69.7,140.1-56.6,219.3c27.7,168.2,141.3,296.3,201.2,293.8
				c59.9-2.5,294.4-335.4,294.4-335.4s-14.6-14.8-34.9-28.3C1558.2,1398.2,1522.8,1491,1470.1,1552.5z" class="colord1334a svgShape"/><path fill="#56a6ef" d="M1539.4,1329c-46.6,25.2-163.9,195.5-194.2,153.8c-30.3-41.6-68.1-112.2-45.4-146.3l40.3-286.2
				c0,0-71,59.1-124.9,145.1c-42.5,141.1-22.4,305.4,88.2,405.5c50.7,44.3,126.7-4.2,166.8-48.6c52.7-61.4,88.1-154.3,149.1-207.6
				C1595.7,1329.2,1564.4,1315.5,1539.4,1329z" class="coloref5668 svgShape"/><circle cx="426" cy="2063.7" r="73.4" fill="#148fff" class="colorffb114 svgShape" transform="matrix(.00435 -1 1 .00435 -1639.538 2480.814)"/><linearGradient id="b" x1="68.27" x2="172.094" y1="2738.876" y2="2738.876" gradientUnits="userSpaceOnUse"><stop class="stopColor68b2fc svgShape" offset="0" stop-color="#68b5fc"/><stop class="stopColor529bf7 svgShape" offset="1" stop-color="#0085ff"/></linearGradient><path fill="url(#b)" d="M172.1,2738.9c0,28.7-23.2,51.9-51.9,51.9s-51.9-23.2-51.9-51.9c0-28.7,23.2-51.9,51.9-51.9
			S172.1,2710.2,172.1,2738.9z"/><linearGradient id="c" x1="3101.992" x2="3236.949" y1="1606.996" y2="1606.996" gradientUnits="userSpaceOnUse"><stop class="stopColor68b2fc svgShape" offset="0" stop-color="#68b5fc"/><stop class="stopColor529bf7 svgShape" offset="1" stop-color="#0085ff"/></linearGradient><circle cx="3169.5" cy="1607" r="67.5" fill="url(#c)"/><circle cx="3585.1" cy="2291.7" r="50.9" fill="#56a6ef" class="coloref5668 svgShape"/><rect width="587.7" height="47.2" x="426" y="1803.6" fill="#102940" class="color102140 svgShape"/><path fill="#90c8fc" d="M2238.6,1322.7c-4-17.8-41-52.4-35.4-52.3c44.3,0.6,78.7,3.8,95.2,1.2c10.4-1.7-157.3-67.9-157.3-67.9
			c-38.4-22-61.7-3.8-61.9,27.9c19.1,9.2,43.3,12.7,64.5,12.7c29.6-2.1,46.4,27.4,50.7,52.8c1.8,12.4,5,24.8,11,33.4
			c1.4,0.5,2.7,0.8,3.8,0.9C2212.2,1331.5,2241.1,1333.9,2238.6,1322.7z" class="colorfc9590 svgShape"/><path fill="#67a3db" d="M2143.5,1244.3c-21.2,0-45.4-3.5-64.5-12.7c0,3.1,0.2,6.3,0.6,9.6
			c0,0,43,30.4,62.4,34.6c4.7,1,44.4,47.8,63.2,54.7c-6-8.7-9.3-21-11-33.4C2190,1271.7,2173.1,1242.1,2143.5,1244.3z" class="colordb6767 svgShape"/><path fill="#148fff" d="M1918.5,1594.6c0,0-85.2,113.6-72.7,113.8c12.5,0.2,32.7-3.9,32.7-3.9s18.5,72.2,28.6,61.4
			c10.1-10.8,49-149.7,49-149.7L1918.5,1594.6z" class="colorffb114 svgShape"/><path fill="#148fff" d="M1991.5,1624c0,0,73.2,142.4,85.8,125.9c12.6-16.5,0-57.1,0-57.1l91.3,7.6l-155.8-128.2L1991.5,1624z" class="colorffb114 svgShape"/><circle cx="1952.2" cy="1554.8" r="89.2" fill="#3385d1" class="colord1334a svgShape" transform="matrix(.00581 -1 1 .00581 386.116 3497.876)"/><circle cx="1952.2" cy="1554.8" r="71.6" fill="#56a6ef" class="coloref5668 svgShape"/><rect width="346.9" height="47.8" x="2369.2" y="1484.1" fill="#c4c8cc" class="colorccc4cc svgShape"/><rect width="644.5" height="33" x="2213.2" y="1369.1" fill="#c4c8cc" class="colorccc4cc svgShape"/><rect width="592.4" height="26" x="2248.8" y="1848.2" fill="#c4c8cc" class="colorccc4cc svgShape"/><rect width="394.2" height="26" x="2347.9" y="1917.9" fill="#c4c8cc" class="colorccc4cc svgShape"/><circle cx="2676.8" cy="2056" r="65.3" fill="#fff" stroke="#1a1a1a" stroke-linecap="round" stroke-linejoin="round" stroke-miterlimit="10" stroke-width="2" class="colorffffff svgShape colorStroke1a1a1a svgStroke"/><g class="color000000 svgShape"><path fill="#1a1a1a" d="M2575.9,2116.6c16-23,35.7-43.5,58.2-60.2c11-8.2,28.3-19.6,40.2-6.6c10.7,11.7,6.1,28.7,2.1,42.2
					c-0.4,1.4,1.1,2.2,2.2,1.7c20-8.6,40-17.2,60-25.8c5-2.1,10.4-5.3,16-5.4c6.8-0.1,10.6,5.2,8.4,11.5c-2.4,6.8-7.2,12.7-4.8,20.3
					c4.2,13.4,20.9,16.6,30.9,7.8c11.5-10.1,10-26.9,1.1-38.1c-3-3.8-8.2-6.4-10.6-10.5c-3.6-6.1,4.2-10,8.8-11.6
					c9.9-3.4,28.9-6.9,31,8c0.2,1.1,1.4,1.2,2.2,0.9c16.1-7,32.3-14,48.4-21c1.8-0.8,0.2-3.4-1.5-2.6c-16.1,7-32.3,14-48.4,21
					c0.7,0.3,1.5,0.6,2.2,0.9c-2.6-18.4-28.5-14.2-39.8-7.9c-4.8,2.7-8.8,7.6-5.8,13.1c1.9,3.5,5.5,5.5,8.2,8.1
					c4.1,4.1,7.3,9.2,8.8,14.8c2.5,9.7-1.5,20.8-10.8,25.4c-10.7,5.2-25.1-4.3-21.7-16.6c1.8-6.6,8.5-13.5,4.8-20.7
					c-3.2-6.4-11.4-6.6-17.3-4.8c-11.6,3.7-22.9,9.6-34.1,14.4c-12.4,5.3-24.9,10.7-37.3,16c0.7,0.6,1.5,1.1,2.2,1.7
					c4.2-14.2,8.4-31-1.8-43.8c-9.2-11.5-23.7-8.8-35-2c-13.6,8.1-26.1,19.2-37.4,30.2c-11.8,11.6-22.5,24.3-31.9,37.9
					C2572.2,2116.6,2574.8,2118.1,2575.9,2116.6L2575.9,2116.6z" class="color1a1a1a svgShape"/></g><path fill="#148fff" d="M2684.4,1733.1c-102.7-31.6-212.5-31.6-315.2,0c-7-22.8-14-45.5-21-68.3
			c116.4-35.8,240.8-35.8,357.2,0C2698.4,1687.5,2691.4,1710.3,2684.4,1733.1z" class="colorffb114 svgShape"/><rect width="89.7" height="381.8" x="490.4" y="1421.8" fill="#6598c6" class="color6584c6 svgShape"/><polygon fill="#fff" points="569.9 1484.1 507.8 1484.1 507.8 1525.6 580.1 1525.6 580.1 1484.1" class="colorffffff svgShape"/><polygon fill="#fff" points="569.9 1575 507.8 1575 507.8 1616.5 580.1 1616.5 580.1 1575" class="colorffffff svgShape"/><rect width="89.7" height="381.8" x="640.8" y="1421.8" fill="#6598c6" class="color6584c6 svgShape"/><polygon fill="#fff" points="720.3 1484.1 658.2 1484.1 658.2 1525.6 730.5 1525.6 730.5 1484.1" class="colorffffff svgShape"/><polygon fill="#fff" points="720.3 1575 658.2 1575 658.2 1616.5 730.5 1616.5 730.5 1575" class="colorffffff svgShape"/><rect width="81.8" height="245.7" x="787.8" y="1557.9" fill="#70bbff" class="colorffde70 svgShape"/><circle cx="828.7" cy="1608.6" r="29.9" fill="#fff" class="colorffffff svgShape"/><rect width="81.8" height="245.7" x="898" y="1557.9" fill="#148fff" class="colorffb114 svgShape"/><circle cx="938.9" cy="1608.6" r="29.9" fill="#67a3db" class="colordb6767 svgShape"/><path fill="#fff" d="M1340.1,1050.4c0,0,19.7-58.9,35.4-55.7c15.7,3.1,71.6,73.2,75.5,77.1
			C1455,1075.7,1340.1,1050.4,1340.1,1050.4z" class="colorffffff svgShape"/><path fill="#fff" d="M1457.3,1072.1c0,0,30.2-91.4,40.9-86.8c10.8,4.6,9.4,37.3,9.4,37.3S1521.9,1070.2,1457.3,1072.1z" class="colorffffff svgShape"/><path fill="#67a3db" d="M1438.4,954.6l50.5,12.5v18.1C1489,985.2,1442.2,971.9,1438.4,954.6z" class="colordb6767 svgShape"/></svg>