<svg xmlns="http://www.w3.org/2000/svg" enable-background="new 0 0 156 156" viewBox="0 0 156 156"><path fill="#0085ff" d="M96.8790359,37.6948662c-1.6699829,0.0300293-3.4100342,0.75-4.0499878,2.2099609l-0.0400391,0.3601074
			c-0.2699585-1.9799805-0.5099487-3.880127-1.4599609-5.6799316c-1.5200195-2.880127-4.2399902-4.9899902-7.2800293-5.6101074
			c-4.5633774-0.9339638-11.5761719-1.2998085-15.8599854,0.3400879c-2.8499756,1.1000977-4.6400146,2.9399414-6.3599854,5.5300293
			c-0.9100342,1.369873-1.3699951,3.7299805-1.5200195,5.7399902l-0.1599731-0.9501953
			c-0.5700073-1.2197266-1.9100342-1.8999023-3.3200073-2.079834c-0.1300049-0.8400879-0.1900024-1.6999512-0.3200073-2.5400391
			c-0.9226112-6.1390991,6.1414948-11.7374344,11.4699707-8c0.3200073,0.2299805,0.8200073,0.1501465,1.0300293-0.1799316
			c1.9808197-3.0739288,6.0383835-3.9380894,9.6900024-4.1401367c4.5100098-0.25,9.0599976,0.380127,12.4500122,3.3300781
			C94.9402237,29.3364716,95.1572037,34.5969429,96.8790359,37.6948662z" class="color2c56fe svgShape"/><path d="M56.1402702,51.7335892c-4.9688568,0-8.0194855-4.5707817-7.296875-8.4838867
			c0.5693359-3.0834961,3.4414063-5.6430664,6.6826172-5.9536133c1.7480469-0.1586914,4.0253906,0.4628906,4.8496094,2.2333984
			c0.1409111,0.3006134-0.3173447,0.5105934-0.453125,0.2109375c-0.7236328-1.5512695-2.7714844-2.0957031-4.3496094-1.9462891
			c-3.0263672,0.2895508-5.7080078,2.6743164-6.2373047,5.5463867c-0.53125,2.8710938,1.1328125,5.9956055,3.8691406,7.2680664
			c2.6748047,1.2456055,6.2138672,0.5898438,8.2333984-1.5263672c0.2281036-0.2385788,0.5902252,0.1062927,0.3613052,0.3457031
			C60.3756218,50.9196243,58.2447624,51.7335892,56.1402702,51.7335892z" class="color000000 svgShape"/><path d="M91.7994308,49.8581009c-0.2310333-0.2392998,0.1343689-0.584465,0.3593903-0.3466797
			c2.0263672,2.1020508,5.1240234,2.5732422,7.8886719,1.1992188c2.703125-1.3320313,4.2841797-4.4936523,3.6777344-7.3540039
			c-0.5976563-2.8579102-3.3378906-5.1801758-6.375-5.4023438c-1.5107422-0.1064453-3.4677734,0.4448242-4.2089844,1.8945313
			c-0.1499481,0.2940483-0.5951385,0.06744-0.4453125-0.2275391c0.8476563-1.6606445,2.9492188-2.2851563,4.6904297-2.1660156
			c3.2519531,0.2382813,6.1875,2.730957,6.828125,5.7983398c0.6523438,3.0766602-1.0439453,6.4755859-3.9453125,7.9052734
			C97.2880402,52.6403923,93.9654541,52.1062126,91.7994308,49.8581009z" class="color000000 svgShape"/><path d="M61.5719109,49.7755814c-3.0683594-6.3344727-2.0185547-15.890625,3.9794884-19.1977539
			c0.2916946-0.1608944,0.5296936,0.278553,0.2421875,0.4375c-5.7607384,3.1767578-6.7421837,12.4091797-3.7724571,18.5424805
			c2.2626915,4.6713867,7.5165977,7.5556641,12.7529259,7.0205078c0.3278275-0.0456467,0.3822479,0.4641571,0.0507813,0.4970703
			C69.3864594,57.6362953,63.9267197,54.6398811,61.5719109,49.7755814z" class="color000000 svgShape"/><path d="M82.4762039,56.606636c6.9011688-1.1855316,12.0190277-8.2491379,10.0791016-17.4287109
			c-0.070137-0.3238258,0.4226532-0.4269867,0.4882813-0.1035156c1.995163,9.4302368-3.2768936,16.7875366-10.4833984,18.0253906
			C82.2359772,57.1576958,82.149498,56.6626434,82.4762039,56.606636z" class="color000000 svgShape"/><path d="M74.7555008,67.5548782c-0.0703659-3.4823608-0.1245193-6.8642197-0.2001953-10.7807617
			c-0.0071716-0.338356,0.4955292-0.3264885,0.5-0.0097656c0.0770569,3.987915,0.1275024,7.1841698,0.2001953,10.7807617
			C75.2625427,67.8759766,74.7626877,67.8891144,74.7555008,67.5548782z" class="color000000 svgShape"/><path d="M83.7574539,66.738472c0.0077744-2.0062866-0.6220245-8.0566139-0.6142578-10.1015625
			c0.0023804-0.3347321,0.5023422-0.3288841,0.5,0.0019531c-0.0077667,2.0062866,0.6220322,8.0566101,0.6142578,10.1015625
			C84.2550812,67.0751572,83.7551193,67.0693054,83.7574539,66.738472z" class="color000000 svgShape"/><path d="M56.8180046,44.2130814c-1.1982422-1.1889648-3.25-1.5063477-4.7783203-0.7353516
			c-0.2916718,0.1493645-0.5227547-0.2972183-0.2246094-0.4462891c1.7089844-0.8623047,4.0107422-0.5073242,5.3544922,0.8271484
			C57.404377,44.0899124,57.0543022,44.4470177,56.8180046,44.2130814z" class="color000000 svgShape"/><path d="M54.2799187,45.9308548c-0.2421875-0.9208984-0.0566406-1.9355469,0.4990234-2.7133789
			c0.1902504-0.2691383,0.600647,0.0206909,0.40625,0.2900391c-0.4697266,0.6586914-0.6269531,1.5166016-0.4208984,2.2954102
			C54.8480721,46.1217461,54.3666344,46.2511406,54.2799187,45.9308548z" class="color000000 svgShape"/><path d="M95.9107742,44.0592728c1.3095703-1.3662109,3.6035156-1.7744141,5.3349609-0.9516602
			c0.2982788,0.1409798,0.0843582,0.5938148-0.2148438,0.4511719c-1.5449219-0.7333984-3.5917969-0.3710938-4.7587891,0.8461914
			C96.0435181,44.6449928,95.6820145,44.2973709,95.9107742,44.0592728z" class="color000000 svgShape"/><path d="M98.3648758,45.9464798c0.1875-0.7802734,0.0087891-1.6342773-0.4785156-2.284668
			c-0.1987534-0.2653999,0.2049179-0.5639267,0.4003906-0.2998047c0.5751953,0.7680664,0.7861328,1.777832,0.5644531,2.7006836
			C98.7745056,46.3845634,98.2877731,46.2677498,98.3648758,45.9464798z" class="color000000 svgShape"/><path d="M77.0465164,43.2326126c0.925827-0.2965088,1.654335-0.3259888,2.4335938-0.8237305
			c0.9423828-0.5976563,0.8144531-1.34375,0.6386719-2.3764648c-0.0583267-0.3424721-0.9423447-6.1495667-1.0292969-6.7729492
			c-0.0444489-0.3275452,0.4512024-0.3977623,0.4960938-0.0693359c0.083725,0.6003113,0.9865341,6.5290489,1.0253906,6.7583008
			c0.1777344,1.0356445,0.3603516,2.1064453-0.8623047,2.8823242c-0.8663635,0.5528793-1.6304474,0.5829124-2.5498047,0.878418
			C76.8813324,43.8068771,76.7326584,43.333744,77.0465164,43.2326126z" class="color000000 svgShape"/><path fill="#5fb2ff" d="M83.7556381,70.388588c1.3601074-0.184761,2.5282059-1.2895889,2.7482224-2.5926361
			c0.2200165-1.3050156-0.5280457-2.7062378-1.7561417-3.2952194c0.7700577-0.5350838,0.662056-1.759243,0.0059967-2.4213524
			c-0.6580505-0.660202-1.6541367-0.8796234-2.5982208-0.9816513c-2.6202087-0.2791023-5.3184433,0.1308975-7.7126389,1.1914368
			c-0.8280716,0.3676224-1.9641571,0.6775322-2.1861725,1.655304c-0.1900253,0.8276405,0.3000183,1.4243431,1.1060867,1.6957207
			c0.2040176,0.0692825,0.4520416,0.1270523,0.5340424,0.3195114c0.0700073,0.1693726-0.0340042,0.3676453-0.1820145,0.4831314
			c-0.1500092,0.1154785-0.3360291,0.1732178-0.5060425,0.2579269c-1.2542801,0.6271133-1.1648865,2.4077301,0.15802,2.9083023
			c2.8022232,1.0643997,5.5764542,1.4666748,8.5547028,1.027832" class="color5fff9f svgShape"/><path fill="#5fb2ff" d="M101.2735672,76.3657684c-0.1491699-0.2297363-0.2844849-0.4699707-0.444519-0.690918
			c-3.682457-5.0505524-9.4047623-6.2834625-15.6799927-6.2700195c-4.5599976,0.0102539-9.0500488-0.579834-13.6000366-0.1799316
			c-5.0122147,0.4340744-10.5773354,1.0001297-14.1400146,4.7700195c-1.5719032,1.6361237-1.7741051,1.9035568-2.1729126,2.3708496
			H101.2735672z" class="color5fff9f svgShape"/><path d="M74.0992508,66.6076126c-1.5767441,0-2.0133896-1.2365952-2.0654297-2.7993164
			c-0.0115814-0.3266068,0.487999-0.3563766,0.5-0.0166016c0.0292969,0.8798828,0.1552734,1.8266602,0.8632813,2.1767578
			c0.6251221,0.311058,0.7520752,0.1515121,8.4863281-0.9951172c0.3240967-0.056221,0.4034958,0.4447479,0.0742188,0.4941406
			C74.097702,66.6544495,74.5288849,66.6076126,74.0992508,66.6076126z" class="color000000 svgShape"/><path d="M76.2623367,70.0324173c-0.3305893-0.0570831-0.2352142-0.5544586,0.0839844-0.4931641
			c2.265625,0.3881836,4.5732422,0.449707,6.859375,0.1826172c0.7724609-0.0888672,1.5673828-0.2304688,2.1552734-0.6630859
			c0.8183594-0.6020508,1.1113281-1.7719727,0.6650391-2.6625977c-0.1483307-0.2978439,0.300766-0.5177917,0.4472656-0.2236328
			c0.5517578,1.1020508,0.1933594,2.546875-0.8154297,3.2890625c-0.6835938,0.5014648-1.5546875,0.6601563-2.3945313,0.7573242
			C81.0007401,70.4822464,78.6368027,70.4380188,76.2623367,70.0324173z" class="color000000 svgShape"/><path d="M121.8580399,51.8971634c0.6105347-0.5400085,0.5608521-1.4643135-0.0712891-1.949707
			c-0.2591705-0.1990128,0.0362625-0.597805,0.3046875-0.3964844c0.8848724,0.6791573,0.9395752,1.9781952,0.0966797,2.7211914
			C121.9430161,52.4917374,121.608902,52.1169243,121.8580399,51.8971634z" class="color000000 svgShape"/><path d="M120.5387039,82.5582962c-0.0571823-4.5426178-0.1992188-14.4237061-0.1992188-15.6435547
			c-0.0087891-2.3759766,0.4833984-5.6513672,2.8847656-7.7578125c2.5493393-2.2418823,6.3039932-2.375309,9.2734451-3.8461914
			c1.1035156-0.5512695,1.7802734-1.1723633,2.0693359-1.8979492c0.1982422-0.5043945,0.1015625-1.4072266-0.3544922-1.8950195
			c-0.2626953-0.2797852-0.59375-0.3608398-0.9873047-0.234375c-0.3187866,0.0982704-0.4651031-0.3769417-0.1523438-0.4765625
			c0.5751953-0.1835938,1.1083984-0.0522461,1.5048828,0.3696289c0.5458984,0.5834961,0.75,1.6689453,0.4541016,2.4199219
			c-1.3420715,3.3687744-8.2750015,3.1183929-11.4775467,5.9360352c-2.2597656,1.9829102-2.7236328,5.1083984-2.7148438,7.3813477
			c0,1.330719,0.1147766,8.9295654,0.1992188,15.6381836C121.043396,82.8826599,120.5434799,82.8922195,120.5387039,82.5582962z" class="color000000 svgShape"/><path d="M104.2564774,76.5919876c4.1972504-22.3873444,4.0654984-22.7346344,5.1865234-24.4379883
			c0.9072266-1.3774414,2.4726563-2.4335938,4.40625-2.9736328c1.8300781-0.5117188,3.734375-0.5205078,5.3525391-0.4604492
			c0.8339844,0.0302734,1.7089844,0.0947266,2.4511719,0.5112305c0.7431641,0.4165039,1.3681641,1.3447266,1.0615234,2.2441406
			c-0.5278397,1.5524406-2.6663895,1.4516602-7.796875,2.4487305c-0.332695,0.0522804-0.4086304-0.4345016-0.0878906-0.4921875
			c4.9369659-0.9421883,7.0068817-0.9267235,7.4121094-2.1176758c0.2109375-0.6201172-0.2578125-1.3242188-0.8330078-1.6464844
			c-0.6455078-0.3623047-1.453125-0.4199219-2.2246094-0.4477539c-1.5839844-0.059082-3.4375-0.0512695-5.2001953,0.4418945
			c-1.8183594,0.5078125-3.2822266,1.4907227-4.1230469,2.7675781c-1.0298386,1.5636139-0.7981186,1.2458267-5.1123047,24.2543945
			C104.6878281,77.0091629,104.1957703,76.9165421,104.2564774,76.5919876z" class="color000000 svgShape"/><path d="M124.625618,55.5412064c6.6862259-3.4353867,7.3239212-3.6706657,8.2031326-4.5810547
			c1.5269318-1.5843353-0.140213-3.1335068-1.9794922-1.737793c-0.2676544,0.1995583-0.5632935-0.1995316-0.3027344-0.3984375
			c1.7955627-1.360836,3.4217987-0.3769608,3.3857422,0.9873047c-0.0438385,1.4847145-2.114212,2.597187-3.4238281,3.269043
			l-5.6543045,2.9052734C124.5611877,56.1399345,124.3319778,55.6915245,124.625618,55.5412064z" class="color000000 svgShape"/><path d="M122.5328445,53.9860306c2.4335938-1.0742188,4.7333984-2.4282227,6.8369217-4.0249023
			c0.4228516-0.3212891,0.8251953-0.6435547,1.0947266-1.0595703c0.6557922-1.0158997,0.0899353-1.9522743-1.0537109-2.0810547
			c-0.5703125-0.0654297-1.15625,0.0854492-1.7011795,0.2583008c-2.0546875,0.652832-3.8242188,1.8271484-5.5351791,2.9624023
			c-0.280899,0.1805954-0.5491943-0.234581-0.2773209-0.4169922c1.6948624-1.1241989,5.3558273-3.5466576,7.5703201-3.3007813
			c1.4911194,0.1681366,2.2829132,1.5082321,1.4169922,2.8496094c-0.3134766,0.4838867-0.7705078,0.8510742-1.2119141,1.1865234
			c-2.1347733,1.6201172-4.4687576,2.9941406-6.9384842,4.0834961
			C122.4370499,54.5780449,122.2258224,54.1206474,122.5328445,53.9860306z" class="color000000 svgShape"/><path d="M121.837532,51.8864212c0.5810318-0.4990616,0.5793076-1.3742561-0.0009766-1.8706055
			c-0.2496567-0.2146645,0.0736389-0.5950089,0.3261719-0.3798828c0.8111801,0.6960335,0.8131561,1.9314651,0.0009766,2.6293945
			C121.9103622,52.4798927,121.588089,52.1008987,121.837532,51.8864212z" class="color000000 svgShape"/><path d="M73.6705093,35.4654083c0.2426987,0.1302109,0.4475632,0.3676643,0.4385223,0.6349182
			c-0.0217056,0.6413803-1.2588959,1.2049408-1.8682556,1.4343796c-2.391655,0.9004974-3.4744568-0.2821198-0.7993622-1.5961075
			C72.1540375,35.5885658,72.9179077,35.0616341,73.6705093,35.4654083z" class="color000000 svgShape"/><path d="M84.9816284,34.2157516c0.6764374-0.0321846,1.4314346-0.0568237,1.8528061,0.5189209
			c0.1600037,0.2186165,0.237587,0.5180779,0.1089859,0.7551155c-0.1088867,0.2007065-0.3374481,0.3125458-0.560997,0.3831329
			c-0.5655975,0.1785812-1.1753006,0.1728897-1.7688599,0.1296043c-0.5089874-0.037117-1.0482712-0.1255989-1.5141296-0.3325844
			c-0.6304474-0.2801094-0.8427887-0.9215088-0.0428772-1.1982956c0.4982224-0.1723938,1.0343018-0.2291794,1.556076-0.2409134
			C84.7310791,34.2280693,84.8549728,34.2217789,84.9816284,34.2157516z" class="color000000 svgShape"/><ellipse cx="84.177" cy="38.123" class="color000000 svgShape" rx=".596" ry=".905"/><path d="M78.6369705,48.8436966c-0.1199951-0.3000488-0.3500366-0.5100098-0.6300049-0.6101074
			c-0.9360657-0.3174973-1.4611053,0.6491928-2.4100342-0.5c-0.9299927-1.1098633-1.9500122-2.1699219-3.2399902-1.4699707
			c-1.1900024,0.6401367-1,2.3100586-0.1599731,3.3000488C74.6369705,52.4237747,79.5369339,51.0136185,78.6369705,48.8436966z
			 M75.2069168,50.6137161h0.0300293c-0.0700073-0.619873-1.1199951-0.7800293-2-2.869873
			c-0.1599731-0.3901367-0.4799805-0.880127-0.8599854-0.8901367c0.0599976-0.0600586,0.1400146-0.1098633,0.2199707-0.1499023
			c0.9584808-0.52285,1.7146912,0.3002014,2.6199951,1.3498535c0.6799927,0.8200684,1.2399902,0.8200684,1.9400024,0.6799316
			c0.4299927-0.079834,0.8300171-0.1398926,1.0200195,0.3000488C78.5869217,50.0436478,76.9669266,50.8537064,75.2069168,50.6137161
			z" class="color000000 svgShape"/><path d="M72.4674149,39.8546829c0.4132309-0.605011,1.1796417-0.6312103,1.90625-0.5166016
			c0.327507,0.0526352,0.2471237,0.5455589-0.078125,0.4941406c-0.4988022-0.0785675-1.1304626-0.1143456-1.4140625,0.3037109
			C72.6942139,40.4093361,72.2822113,40.1278076,72.4674149,39.8546829z" class="color000000 svgShape"/><path d="M92.9490433,79.3450165c-0.3309784,0-0.3253784-0.5,0-0.5h9.8200073c0.2666016,0,0.3499832,0.3687897,0.0999756,0.4799805
			C102.8390579,79.3350067,102.3587036,79.3354874,92.9490433,79.3450165z M114.4690018,79.3450165h-9.8099976
			c-0.3347702,0-0.3260422-0.5,0-0.5h9.8099976C114.7960281,78.8450165,114.8029633,79.3450165,114.4690018,79.3450165z
			 M33.8590164,78.8950653c0.1000366-0.9301758,0.2999878-1.9799805,0.6400146-2.9902344
			c-0.9799805,0.0200195-1.9699707,0.0500488-2.960022,0.0700684c-4.7299805,0-8.5599976,3.6901855-8.5599976,8.2399902v4.2700195
			c0.6900024-3.5500488,2.3800049-6.4699707,6.4800415-6.6098633c1.8399658-0.0500488,3.6799927-0.1000977,5.539978-0.1501465
			C33.9701385,81.1764297,33.7343597,80.0483551,33.8590164,78.8950653z M36.6590042,81.6848602
			c0.210022,0,0.4300537-0.0100098,0.6400146-0.0100098c0.1866493-0.8400192,0.1456871-0.8504181,0.25-1.1899414
			C37.3390579,80.9648895,37.0690384,81.4150848,36.6590042,81.6848602z M42.919014,79.8350067
			c-0.093235,0.3822784-0.4348335,1.6784439-0.4500122,1.7299805c0.2000122-0.0100098,0.3900146-0.0100098,0.5900269-0.0100098
			C42.9090042,81.0349579,42.8790359,80.44487,42.919014,79.8350067z M115.3890457,75.9748993
			c-25.5170517-0.6319885-51.5128326-0.5888367-60.9500122-0.3999023c-0.1599731,0.7399902-0.4299927,1.5100098-0.6199951,2.2399902
			c-0.460022,1.8000488-2.4700317,4.9099121-4.6000366,2.5800781c-0.4899902-0.5400391-0.6999512-1.25-0.7199707-1.9702148
			c-0.1867905,0.8681488-0.5115013,2.2208939-0.7999878,3.0500488c23.4080505-0.3062973,46.5354156-0.1477203,70.2199707,0.4001465
			c2.8699951,0,5.2999878,1.869873,6.0300293,4.4199219v-2.0800781
			C123.9490433,79.6650848,120.1190262,75.9748993,115.3890457,75.9748993z" class="color000000 svgShape"/><path d="M111.1138992,141.7306519c-29.9000244,0,48.3180466-0.0209961-74.6181641-0.0341797
			c-4.2294922,0.0200195-11.3320332,0.0390625-13.2539082-4.1674805c-1.3783379-2.9986267-1.3345451-6.3816376-1.3125-9.6855392
			c0.1462898-23.66465,0.4665546-26.4986267,0.3867188-31.3579102c-0.1142998-6.8775558,0.1437893-14.6221237,7.1337891-14.8603516
			c5.7674122-0.1440353,5.5582943-0.1805344,5.6699238-0.1191406c0.5049858,0.2787628,1.033989,0.225563,1.3964844-0.0263672
			c0.1269531-0.0893555,0.2988281-0.0463867,0.4570313-0.0498047c0.1865234-0.0043945,0.40625-0.0532227,0.5195313,0.0869141
			c0.2221184,0.2697144-0.5949364,1.7011185,0.4111328,2.7993164c0.6464844,0.7011719,1.8349609,0.9135742,2.7050781,0.4848633
			c1.0449219-0.5097656,1.3154068-1.8266602,1.5537109-2.9882813c0.0533295-0.1450043,0.0149269-0.4826355,0.2939453-0.4970703
			c0.203125-0.0107422,0.3984375-0.0107422,0.6025391-0.0107422c0.4298439,0,0.1277657,0.7925415,1.0615234,1.434082
			c0.734375,0.5175781,1.8330078,0.5004883,2.5009766-0.0385742c0.3632813-0.2919922,0.6308594-0.7075195,0.8408203-1.3081055
			c0.110218-0.3107605,0.2143402-0.1038666,4.8632813-0.2270508c21.1399956-0.2441177,44.8572884-0.0197449,65.5986023,0.4599609
			c3.5960388,0,6.5049057,2.8402328,6.5049057,6.2700195c0,12.3153305,1.0238266,31.3732758,0.359375,43.4228439
			c-0.1425095,2.8042908-0.2400665,6.1100616-2.2089844,8.1601563
			C120.1348038,142.0039063,116.3220215,141.7306519,111.1138992,141.7306519z M115.8248367,141.1950073
			c2.3485641-0.0679169,4.7386475-0.3537292,6.3945313-2.0639648c1.8523026-1.9281464,1.9349442-5.1920319,2.0693359-7.8398438
			c0.6598358-11.9252319-0.359375-31.1759491-0.359375-43.3959885c0-3.1442261-2.6737518-5.7700195-6.0107422-5.7700195
			c-41.148468-0.9551544-68.4581604-0.4053268-70.0449219-0.402832c-0.234375,0.605957-0.5351563,1.043457-0.9384766,1.3676758
			c-1.2316093,0.9926834-3.4587059,0.606041-4.0634766-1.284668c-0.0664063,0-0.1318359,0.0009766-0.1972885,0.0024414
			c-0.2823219,1.3748856-0.5680847,2.8188705-1.8456802,3.4418945c-1.0712891,0.5322266-2.4892578,0.2749023-3.2929688-0.5952148
			c-0.7490234-0.8173828-0.7109375-1.7827148-0.5400391-2.7250977c-0.0962067,0.0023651-0.1651039,0.0043106-0.2617188,0.0048828
			c-0.5039482,0.3119659-1.1692543,0.3619919-1.7939453,0.0419922l-5.4746113,0.1489258
			c-6.5955849,0.2246094-6.7582645,7.8647385-6.6494141,14.3520508c0.0146484,0.8969727,0.0292969,1.7436523,0.0126953,2.4633789
			c-0.3269596,15.0393982-0.3670635,25.7448502-0.4003906,29.0898361c-0.0214844,3.1650391-0.0429688,6.4375,1.2685547,9.2900391
			c1.7871094,3.9145508,8.7001972,3.8945313,12.7968769,3.8759766
			C36.6046028,141.1965332,114.3053665,141.2210693,115.8248367,141.1950073z" class="color000000 svgShape"/><ellipse cx="29.922" cy="111.396" class="color000000 svgShape" rx="3.906" ry="3.758"/><path d="M120.853157,121.9621048c-0.3613129-8.2730331-0.7331238-14.244957-0.3496094-19.3793945
			c0.0235977-0.3315125,0.523735-0.2921219,0.4980469,0.0371094c-0.3815918,5.1209335-0.0378036,10.4094467,0.3515625,19.3208008
			C121.3672562,122.2718201,120.8677063,122.2954102,120.853157,121.9621048z" class="color000000 svgShape"/><path fill="#b0d9ff" d="M117.806839,93.4527817v37.2796555c0,3.4290009-2.8739014,6.3117828-6.5588989,6.3117828H42.9977684
			c-3.6207237,0-6.5588417-2.8273621-6.5588417-6.3117828V93.4527817c0-3.4841843,2.938118-6.3117828,6.5588417-6.3117828
			h68.2501678C114.86866,87.1409988,117.806839,89.9685974,117.806839,93.4527817z" class="colorb0d8ff svgShape"/><path fill="#0085ff" d="M71.5088425,26.9170666c2.8442078,2.3887596,5.8901978,4.8729324,9.6110306,5.4867764
			c-0.1438675-0.6201572-0.2877274-1.2403164-0.4315948-1.8604755c2.9645691,1.5352459,6.4634552,1.6914692,9.8276291,1.8139172
			c0.4401398,0.0160217,1.013031-0.0607414,1.1044617-0.475359c0.0686188-0.3111839-0.0037842-0.3135567-2.2994308-4.3397121" class="color2c56fe svgShape"/><path d="M80.8482742,31.3390579c0.0505066,0.0905228,0.0997696,0.1770935,0.1416016,0.2714844
			c0.2378387,0.5399971,0.0152664,1.1650696-0.7333984,1.0922852c-1.1294327-0.1024017-1.5361404-0.4770699-7.1015625-3.9848633
			c-0.2833633-0.1782856-0.0081863-0.5995445,0.265625-0.4228516c5.4677353,3.4457169,5.8806915,3.819416,6.8808594,3.909668
			c0.0654297,0.0058594,0.1601563,0.0112305,0.2109375-0.0146484c0.0869141-0.0454102,0.0820313-0.2368164,0.0205078-0.3779297
			c-0.1052094-0.2367344-0.3027115-0.4687042-0.3320313-0.7954102c-0.0142899-0.1663628,0.1341782-0.3032303,0.3037109-0.2666016
			c5.202446,1.156332,7.997757,1.9288292,10.8212891,1.6328125c0.0966797-0.0102539,0.1513672-0.0302734,0.1757813-0.0429688
			c-0.0136719-0.0014648-0.0273438-0.0283203-0.0332031-0.0400391l-1.6230469-3.265625
			c-0.1477509-0.2966862,0.3000488-0.518259,0.4472656-0.2226563l1.6220703,3.2636719
			c0.2293472,0.4472198-0.0343628,0.7518692-0.5361328,0.8046875
			C88.4185867,33.1923637,85.4412613,32.3532791,80.8482742,31.3390579z" class="color000000 svgShape"/><path d="M51.6637077,25.9059525c-2.2773438-0.9008789-4.3623047-2.1582031-6.1962891-3.7373047
			c-0.250988-0.2158012,0.0765915-0.5943451,0.3261719-0.3789063c1.7919922,1.5424805,3.8291016,2.7709961,6.0537109,3.6513672
			C52.152668,25.5614052,51.9730072,26.0306702,51.6637077,25.9059525z" class="color000000 svgShape"/><path d="M53.0240593,22.2580032c-0.6943359-1.1157227-1.3076172-2.2929688-1.8222656-3.4995117
			c-0.1318512-0.306078,0.3319054-0.49897,0.4589844-0.1962891c1.3756371,3.2173481,2.1362572,3.5081005,1.7070313,3.7763672
			C53.2495613,22.4117699,53.0956879,22.3744011,53.0240593,22.2580032z" class="color000000 svgShape"/><path d="M44.5338249,29.910347c-0.3120766,0-0.3393898-0.4621334-0.0283203-0.4985352
			c6.7245064-0.7731743,7.5939789-1.717474,7.7353516-1.128418c0.0322266,0.1342773-0.0507813,0.269043-0.1845703,0.3012695
			c-2.4550781,0.5888672-4.9765625,1.034668-7.4941406,1.3242188C44.5523796,29.9098587,44.542614,29.910347,44.5338249,29.910347z" class="color000000 svgShape"/><path fill="#56a9f6" d="M77.9885025,137.04422H49.9919548c-0.0197449-2.1991272,1.4839134-4.9600372,2.2852211-6.5974121
			c0.6133461-1.2376404,1.5334282-2.5798492,2.9480858-2.713028c1.0994987-0.095047,1.6357002,0.3266449,7.9241066,3.1320648
			c0.6330872,0.2854156,1.3948517,0.5710602,1.998291,0.2189484c0.8941193-0.5309296,0.5972061-1.9522247,2.4731903-4.560051
			c0.4649887-0.6475143,1.0585327-1.2852707,1.8499451-1.4565659c1.4641647-0.3046951,2.7205048,1.1137466,3.1063385,2.5038452
			c0.3858261,1.3898621,0.2967682,2.9033661,0.9694672,4.1886444
			C74.6279221,133.8255157,77.3499374,134.6887512,77.9885025,137.04422z" class="colorf6d356 svgShape"/><path fill="#0085ff" d="M117.806839,97.7081299v33.0243073c0,3.2654877-2.5820541,5.9594421-5.8862,6.2832031
			c-2.1467743-0.4378815-4.0659103-1.6850281-3.8383942-3.7984161c0.0988998-0.8950348,0.672699-1.7422028,0.5341873-2.6274872
			c-0.1681595-1.0377502-1.2860489-1.7231445-2.3742218-1.8374939c-1.0882416-0.123642-2.1764221,0.1810455-3.2448578,0.3618774
			c-2.3247757,0.3997498-4.7485123,0.2665863-7.0139313-0.3902283c-4.4723969-1.2815323-4.7829742-4.8730316-0.9200745-6.4544983
			c1.3256531-0.5426941,2.7996674-0.7806931,4.0164566-1.5232697c1.2168503-0.7521057,2.1071625-2.284668,1.4641647-3.5222931
			c-0.4253769-0.8283386-1.3850098-1.256691-2.0775146-1.8944473c-1.9191971-1.7707901-1.2068863-5.3881531,1.2564011-6.3591919
			c2.6314468-1.0282211,5.8169479,0.7709274,8.4187469-0.323761c2.4237366-1.0282211,3.0964355-3.9411163,3.8680344-6.3782578
			C112.865303,99.5306244,115.0870819,96.7259216,117.806839,97.7081299z" class="color2c56fe svgShape"/><path fill="#0085ff" d="M93.183754,100.8687897c-1.4047546,1.675499-3.7592316,2.6844254-5.945549,2.2274933
			c-0.9694748-0.2094116-1.8894958-0.6854019-2.8787689-0.6663437c-1.939003,0.0381165-3.2943039,1.9611435-3.5614243,3.8079453
			c-0.267128,1.837265,0.1978607,3.7033463,0.1681595,5.5692062c-0.0296478,1.8563232-0.7815094,3.9411163-2.5621948,4.6455765
			c-1.8895493,0.7425766-4.1154175-0.4378815-5.1936951-2.1038513c-2.1925659-3.356575-1.0624619-8.1637344-4.204422-10.8906555
			c-3.1774445-2.7837982-9.7852554-1.1976395-11.9999161-3.2845383c-3.3042068-3.1508942,2.6314468-8.2917557-3.7988434-10.4430161
			c-0.6528969-0.2191696-7.0337372-0.5427017-7.1820908-2.5896072h44.0227585
			C95.4858322,89.4008408,96.3677521,97.0495224,93.183754,100.8687897z" class="color2c56fe svgShape"/><ellipse cx="48.327" cy="123.589" fill="#5fb2ff" class="color5fff9f svgShape" rx="8.172" ry="7.864"/><path d="M40.1851921,125.6623001c-1.1837654-4.3106613,1.4647102-8.7684555,5.9931641-9.9189453
				c4.4882813-1.140625,9.1035156,1.4477539,10.2900391,5.7714844v-0.0004883
				c1.1586761,4.2203293-1.3777161,8.7471085-5.9941406,9.919426
				C45.9664192,132.5791626,41.366497,129.9663696,40.1851921,125.6623001z M46.301403,116.2277298
				c-4.3274574,1.0995178-6.7230797,5.3341217-5.6337891,9.3022461c1.1142578,4.0615158,5.4580078,6.4936447,9.6835938,5.419426
				c4.3384552-1.1023102,6.7215004-5.3434143,5.6347656-9.3022385l0,0
				C54.8694878,117.5793839,50.5199089,115.1548157,46.301403,116.2277298z" class="color000000 svgShape"/><path d="M45.3248482,126.7543335c-0.2123871-0.2171402-0.1446304-0.6195297-0.1185799-0.8868256
				c0.0854988-0.8771515,0.1826668-1.2787018,0.7472496-2.0632019c1.2453384-1.7304306,4.1201668-1.956665,5.5969353-0.5246429
				c0.3730202,0.3617172,0.6460915,0.7977829,0.9000397,1.2490158c0.1384697,0.246048,0.0246353,0.512207-0.1046524,0.5862732
				c-0.2249718,0.1288757,0.0608177,0.0350189-5.5988121,1.4733124
				C46.3995171,126.6765747,45.6180153,127.0540695,45.3248482,126.7543335z" class="color000000 svgShape"/><ellipse cx="47.448" cy="120.581" class="color000000 svgShape" rx="1.825" ry="1.756"/><path d="M62.9654655,122.1505814c-0.9267578-0.0141602-1.8925781-0.121582-2.9521484-0.3291016l0.0957031-0.4902344
				c1.0302734,0.2011719,1.9667969,0.3056641,2.8642578,0.3193359L62.9654655,122.1505814z M65.9351883,121.8214798
				l-0.1230469-0.484375c0.9525452-0.2438507,1.8016205-0.6195831,2.5986328-1.1342773l0.2714844,0.4199219
				C67.8512573,121.1599808,66.9489899,121.5627594,65.9351883,121.8214798z M70.9371414,118.6613235l-0.3730469-0.3320313
				c0.5908203-0.6660156,1.1601563-1.4506836,1.6914063-2.3320313l0.4277344,0.2578125
				C72.1363602,117.1627884,71.5484695,117.9723587,70.9371414,118.6613235z M74.0465164,113.6300735l-0.4550781-0.2060547
				c0.3620529-0.8000031,0.7143021-1.6421967,1.1552734-2.6870117l0.4609375,0.1953125
				C74.7538528,112.006485,74.3884201,112.8755798,74.0465164,113.6300735z M76.406868,108.2755814l-0.4472656-0.2226563
				c0.4863281-0.9794922,0.9736328-1.8173828,1.4902344-2.5615234l0.4101563,0.2851563
				C77.3580399,106.500679,76.8824539,107.3180618,76.406868,108.2755814z M79.7369461,103.6002884l-0.3417969-0.3642578
				c0.7158203-0.6733398,1.5107422-1.2822266,2.3613281-1.8095703l0.2636719,0.4248047
				C81.196907,102.3610306,80.4293289,102.9494095,79.7369461,103.6002884z M84.6012039,100.5807571l-0.1757813-0.4677734
				c0.9664459-0.3639984,1.9398804-0.6160049,2.8759766-0.765625l0.078125,0.4941406
				C86.5065079,99.9783707,85.5441589,100.2259903,84.6012039,100.5807571z" class="color000000 svgShape"/><path d="M57.129528,121.0797806c-0.4785156-0.1489258-0.953125-0.3061523-1.4228516-0.46875l0.0771484-0.2231445
				l-0.0048828-0.2631836l0.0917969,0.0136719c0.4638672,0.1606445,0.9345703,0.3168945,1.4072266,0.4638672L57.129528,121.0797806z
				" class="color000000 svgShape"/><ellipse cx="100.384" cy="101.423" fill="#56a9f6" class="colorf6d356 svgShape" rx="10.699" ry="10.296"/><path d="M91.7555008,107.9162064c-5.8798523-7.2483292,0.098877-17.9562836,9.7607422-16.9819336
				c6.1773605,0.6185455,10.366951,5.9430161,9.7578125,11.581543l0,0
				C110.2536469,111.9435501,97.7937546,115.3563614,91.7555008,107.9162064z M92.1441727,107.6007767
				c5.7460632,7.0823593,17.6591568,3.859436,18.6318359-5.1386719l0.2490234,0.0268555l-0.2490234-0.0268555
				c0.5837631-5.3886337-3.4380951-10.4424057-9.3095703-11.0307617
				C92.2746658,90.5146103,86.5299606,100.6831512,92.1441727,107.6007767z" class="color000000 svgShape"/><path d="M95.1829224,103.9603958c-0.1554642-0.3606339,0.1213379-0.8231201,0.2819977-1.1387939
				c0.5269165-1.0353165,0.8395844-1.48423,1.9088516-2.1930161c2.3452301-1.5545959,5.9822922-0.5694046,7.1060486,1.8542557
				c0.2836838,0.6118393,0.4076004,1.2706299,0.500412,1.9308777c0.0285187,0.2029266-0.0192719,0.338501-0.1517944,0.5051804
				c-0.2595367,0.3264465-0.1299667,0.2431564-7.8240891-0.5274506
				C96.5354767,104.3444901,95.3973541,104.4578094,95.1829224,103.9603958z" class="color000000 svgShape"/><g class="color000000 svgShape"><ellipse cx="100.756" cy="97.348" class="color000000 svgShape" rx="2.39" ry="2.3"/></g><g class="color000000 svgShape"><path fill="#0085ff" d="M59.0711784,31.0303993c-4.6026344-1.8772144-5.8743935-7.3839874-3.7798576-9.4978447
			c1.2997055-1.3116989,3.562542-1.1657467,5.2707214-0.4023304c-1.1520157-1.4095974-0.6619034-3.5695248,0.5405922-4.9395237
			c1.2140121-1.3831234,3.1832085-2.2264614,5.0196877-1.8331976s3.3234787,2.2039804,2.9914093,3.9860373
			c1.0063782-1.6054001,3.1642151-2.4447575,5.0519714-1.9808693c1.8877487,0.4638863,3.3587952,2.1826897,3.4890823,4.0533791
			c0.1302948,1.8706894-1.077774,3.7547703-2.8661575,4.4987221" class="color2c56fe svgShape"/></g><g class="color000000 svgShape"><path fill="#b0d9ff" d="M139.7242126,34.944355c-1.3039246,1.677578-2.9752045,3.0141182-4.8399048,4.0761223
			c0.0981445,2.5631866,0.5179443,3.2349472,0.3681641,4.1775856c-0.1891785,1.2299881-1.2363892,1.8972664-2.8341217,0.5447769
			c-0.8907318-0.7576637-1.7452393-1.5723495-2.5556946-2.4274483c-6.0260544,2.1638107-12.7604446,2.9128609-18.7590866,0.7239723
			c-4.6986008-1.7155609-9.0268402-5.9399986-8.7378616-10.9327965
			c0.8019409-13.4073792,21.5644684-15.3677721,31.1379852-12.2824478c3.1316833,1.0103321,6.2891235,2.7289391,7.7638702,5.6658421
			C142.9520416,27.806921,142.0138245,32.0072327,139.7242126,34.944355z" class="colorb0d8ff svgShape"/></g><g class="color000000 svgShape"><path d="M108.750618,29.8296318l0.6776123,3.9257813c-4.0824509-3.8706837-3.7057037-3.6129456-3.9036255-3.5793457
				c-0.3355179,0.0586777-0.0456848,0.375412,0.6287231,4.6975098c0.048233,0.2789001,0.4382324,0.2265129,0.3877563-0.0668945
				l-0.6779785-3.9277344l3.6651001,3.4963379c0.2249603,0.1994133,0.4185715,0.0718002,0.3804321-0.1499023l-0.7703247-4.4626465
				C109.0922165,29.4938564,108.700882,29.5420361,108.750618,29.8296318z" class="color000000 svgShape"/><path d="M113.3734207,33.1931572c-0.223114,0.229248-0.499176,0.3940315-0.894043,0.4624023
				c-0.7188263,0.1242828-1.2453842-0.2026978-1.4260254-1.0637207c2.2630386-0.4487,2.5505066-0.2955284,2.4934082-0.626709
				c-0.1616211-0.934927-0.7529373-1.5233002-1.6716919-1.3647461c-0.8683624,0.1499577-1.4399033,0.9122925-1.2540283,1.9890137
				c0.1755295,1.0172539,0.8774719,1.5925751,1.9318237,1.4108887c0.3777542-0.0654793,0.8080139-0.2520409,1.0739746-0.5568848
				C113.8376007,33.2352257,113.5735855,32.9945297,113.3734207,33.1931572z M111.9393997,30.932415
				c0.5583572-0.0963573,1.0385361,0.1539574,1.2130737,0.9816895l-2.1467285,0.3706055
				C110.9471512,31.5704231,111.2487183,31.0520344,111.9393997,30.932415z" class="color000000 svgShape"/><path d="M115.9331131,33.0454521c-1.0849991,0.187252-0.8306732-1.0771351-1.1939087-2.5332031
				c0.7569504-0.141798,0.9765549-0.1260719,1.0537109-0.2275391c0.0767899-0.1000385,0.0189133-0.3010597-0.1928711-0.2644043
				l-0.918335,0.1584473c-0.1508026-0.7857971-0.1224747-0.9304523-0.2288208-1.0007324
				c-0.1093292-0.0719395-0.3762207-0.0279102-0.3330688,0.222168l0.1467896,0.8503418
				c-0.3677292,0.0727196-0.5511017,0.055748-0.6386108,0.1557617c-0.0874863,0.1004734-0.0213318,0.3010311,0.192749,0.2646484
				l0.503418-0.0869141l0.3217163,1.8637695c0.1608887,0.9315948,0.8419342,1.157444,1.5358276,0.9016113
				c0.1878128-0.0698471,0.3034744-0.1092262,0.2736206-0.2819824
				C116.4054718,32.7796326,116.1983795,32.999752,115.9331131,33.0454521z" class="color000000 svgShape"/><path d="M120.9788895,29.0779228c-0.0982437,0.1001854-0.1146927,0.5308743-0.5425415,3.0046387l-1.3953857-2.5019531
				c-0.1385727-0.2570267-0.481514-0.187521-0.5238037,0.090332l-0.5009155,2.8295898
				c-1.3953629-2.5196915-1.3927383-2.5962505-1.4927368-2.6499023c-0.1669617-0.0902481-0.4005661,0.0786114-0.258606,0.328125
				l1.5216064,2.6870117c0.1797791,0.2727661,0.5091705,0.1945038,0.5646973-0.0976563l0.4880981-2.7504883l1.3758545,2.4287109
				c0.1464157,0.2506104,0.4972229,0.2231789,0.5579224-0.0961914l0.5396729-3.0424805
				C121.3625717,28.9764423,121.0872574,28.9683666,120.9788895,29.0779228z" class="color000000 svgShape"/><path d="M123.3858109,28.6133232c-0.8880615,0.1539059-1.4081192,0.8922138-1.2223511,1.9697266
				c0.1722412,0.9972038,0.8521118,1.6118813,1.8118896,1.4455566c0.9873962-0.1697636,1.3988113-0.9879036,1.229126-1.970459
				C125.0350113,29.0764637,124.3678589,28.4440308,123.3858109,28.6133232z M123.9154129,31.6816826
				c-0.595314,0.1026936-1.1656723-0.219202-1.3302002-1.1716309c-0.1612396-0.9338989,0.2518387-1.4375648,0.8616943-1.5427246
				c0.6104736-0.1055794,1.1726151,0.2175922,1.3358154,1.1635742
				C124.9466629,31.0804482,124.5283813,31.5760841,123.9154129,31.6816826z" class="color000000 svgShape"/><path d="M127.330513,27.9255791c-0.5258789,0.0991077-0.8796234,0.3820267-1.0081177,0.8972168
				c-0.089592-0.3370247-0.0218658-0.6975098-0.3150024-0.6479492c-0.1361694,0.0239372-0.1983261,0.109024-0.1732788,0.2541504
				c0.5427322,3.037859,0.4763107,3.0248165,0.5922852,3.1064453c0.1052017,0.0743694,0.3847351,0.0373917,0.340271-0.2197266
				c-0.2049866-1.5353203-0.5124588-2.0371761-0.1655884-2.5427246c0.1456299-0.2119141,0.3765869-0.3613281,0.6931152-0.4487305
				l0.0941162-0.0234375c0.1325531-0.0401173,0.1935883-0.1114655,0.1608887-0.244873
				c-0.0101929-0.0588379-0.0358276-0.098877-0.0767822-0.119873S127.3842239,27.9116631,127.330513,27.9255791z" class="color000000 svgShape"/><path d="M129.2750244,29.3010674l1.2401733-1.5959473c0.1623383-0.2549648-0.1381073-0.3766327-0.2998047-0.2143555
				c-0.0901031,0.0897903-0.0697937,0.0800381-1.3970337,1.7893066l-0.0136108,0.0024414l-0.4873657-2.8234863
				c-0.0435486-0.251543-0.3119812-0.1978645-0.3880539-0.0976563c-0.0305176,0.0405273-0.0393677,0.0969238-0.0268555,0.1694336
				l0.7691574,4.4560547c0.0495758,0.288084,0.4649048,0.2175713,0.414917-0.0717773l-0.2442627-1.4150391l0.0136108-0.0021973
				c1.9039917,1.1700897,1.9894257,1.2349072,2.0906372,1.2749023c0.2380066,0.0939159,0.4430695-0.1535206,0.1905518-0.3166504
				L129.2750244,29.3010674z" class="color000000 svgShape"/><path d="M131.4570313,27.4795341l0.5025635,2.9118652c0.051178,0.2948132,0.4692993,0.2439156,0.414978-0.0717773
				l-0.5026245-2.9116211C131.8193054,27.1028919,131.4072418,27.1909466,131.4570313,27.4795341z" class="color000000 svgShape"/><path d="M131.7382813,26.0647392c-0.0323792-0.1876984-0.1637421-0.2588272-0.3475342-0.2272949
				c-0.1859894,0.0324097-0.2832336,0.1447105-0.2512207,0.3308105c0.0304413,0.1757774,0.1518097,0.2679348,0.3486938,0.2341309
				C131.6800079,26.368969,131.7695923,26.2459698,131.7382813,26.0647392z" class="color000000 svgShape"/><path d="M134.4816895,26.6982841c-0.5199738,0.0897369-0.8881073,0.3707676-1.0316772,0.8830566l-0.078186-0.4533691
				c-0.0541077-0.3121033-0.4573212-0.2144718-0.4081421,0.0705566c0.5756683,2.9242249,0.3886414,3.1974049,0.7580566,3.1337891
				c0.3497009-0.0601883,0.0883484-0.3738213-0.1282349-1.9604492c-0.1199646-0.6948452,0.2462158-1.1914673,0.8891602-1.3024902
				c1.204422-0.2078972,0.925293,1.1408253,1.3117065,2.6879883c0.0480804,0.2794094,0.4655914,0.2214737,0.414917-0.0715332
				l-0.3299561-1.9118652C135.7368164,26.9484425,135.3063965,26.5558567,134.4816895,26.6982841z" class="color000000 svgShape"/><path d="M139.6103516,26.0513115c-0.0125732-0.0727539-0.0388794-0.1240234-0.0792236-0.154541
				c-0.1005249-0.0761604-0.3734741-0.0333939-0.3289185,0.2248535l0.0861206,0.4990234
				c-0.671936-1.0989418-2.8063354-0.5512695-2.4758911,1.3637695c0.3260345,1.8890419,2.5258942,1.7517033,2.7963867,0.4523926
				c0.0518188,0.4966908,0.2960358,1.0570908-0.0048828,1.5144043c-0.3565216,0.5402813-1.3098145,0.5166569-1.918396,0.2504883
				c-0.2276764-0.0688667-0.3113403,0.2619133-0.1160278,0.3422852c0.7032623,0.3493767,1.947998,0.2554893,2.3839111-0.394043
				C140.4171448,29.4586315,139.9712372,28.6153393,139.6103516,26.0513115z M139.43396,28.2358818
				c-0.2263489,0.8199463-1.2079315,1.00634-1.737793,0.5661621c-0.4427948-0.3672237-0.572052-1.1272106-0.4473267-1.5969238
				c0.2172394-0.819931,1.2206726-0.9920826,1.7418213-0.5634766
				C139.4283295,27.001318,139.5656738,27.7583218,139.43396,28.2358818z" class="color000000 svgShape"/></g><g class="color000000 svgShape"><path d="M18.5865574,82.106636c-4.6953115-2.3867188-5.2705069-8.6777344-4.3369131-13.3398438
			c1.07864-5.3795471,4.3014193-10.5468445,9.7089834-9.6782227c0.0924664-3.0767632,1.8978539-5.7503891,3.9570313-8.0141602
			c3.1279297-3.4404297,7.0253925-6.2636719,11.2685566-8.1650391c3.1386719-1.40625,5.6074219-1.7836914,7.7744141-1.1894531
			c0.3157654,0.0870667,0.1916084,0.5692406-0.1328125,0.4824219c-2.0488281-0.5634766-4.4111328-0.1923828-7.4365234,1.1630859
			c-4.1816406,1.8735352-8.0214863,4.6557617-11.1044941,8.0449219c-1.995245,2.1952782-3.7697773,4.7987442-3.8291016,7.7763672
			c2.0678043,0.4884567,3.8448315,1.8787956,4.1738281,3.9985352c0.3048668,1.954277-1.8680134,2.0019531-3.0146484,0.7597656
			c-1.03125-1.1191406-1.6044922-2.6738281-1.65625-4.3505859c-9.4015865-1.65028-13.3032026,17.9200821-5.1455078,22.0668945
			C19.1082077,81.8112106,18.8802834,82.2574692,18.5865574,82.106636z M24.462534,59.7028275
			c0.0712891,1.5102539,0.5947266,2.8999023,1.5195313,3.9033203c0.7858524,0.8522491,2.3743401,1.0811996,2.1533203-0.3447266
			C27.8464565,61.3943825,26.2771225,60.1692543,24.462534,59.7028275z" class="color000000 svgShape"/></g><g class="color000000 svgShape"><path d="M37.5348015,84.6491165c-0.8164063-0.8857422-0.6923828-1.9555664-0.4960938-2.9399414
			c-1.3047218,1.1970215-3.766674,0.1683655-3.4287109-2.8388672c0.2050781-1.8393555,0.8808594-5.1645508,3.0927734-6.7626953
			c1.2753906-0.9213867,2.8671875-1.2739258,4.1123047-1.4775391c3.3037109-0.5405273,6.7705078-0.4267578,10.0244141,0.3286133
			c0.9189453,0.2128906,1.8818359,0.4897461,2.6933594,1.0673828c2.1927872,1.560318,1.0385323,3.873703,0.5332031,5.8476563l0,0
			c-0.2998047,1.1723633-1.328125,3.1713867-2.8105469,3.5429688c-1.1949234,0.2976456-2.364006-0.6807556-2.78125-1.7729492
			c-0.3097916,1.2701416-0.6195068,2.7156525-1.5419922,3.4492188c-1.2913208,1.0318604-3.6689301,0.6283875-4.1640625-1.6738281
			c-0.336792,1.4393845-0.5231133,3.143158-1.9345703,3.8344727C39.7437973,85.78582,38.3288078,85.5144958,37.5348015,84.6491165z
			 M37.7096062,80.9098587c-0.2182121,1.248291-0.6794014,2.4534378,0.1923828,3.4008789
			c0.6484375,0.7045898,1.8408203,0.9208984,2.7109375,0.4936523c1.2866402-0.6298447,1.3920555-2.5026093,1.7451172-3.8027344
			c0.7506218-2.7534256-0.0170822-1.545517,1.5039063-6.1386719c0.0967064-0.2970352,0.5489731-0.1778641,0.4814453,0.1318359
			c-0.3828125,1.7348633-0.7714844,3.3579102-1.1806641,4.9262695c-0.0644531,1.1918945,0.1552734,2.2573242,0.9609375,2.8208008
			c0.7294922,0.5117188,1.828125,0.4941406,2.4970703-0.0400391c0.5957031-0.4741211,0.8505859-1.2470703,1.0595703-1.9985352
			c0.1250954-0.4468231,0.5480194-2.0009308,0.5615234-2.5004883c0.0175781-0.815918,0.2421875-1.6010742,0.4599609-2.3603516
			c0.0837402-0.2930984,0.5313759-0.2051697,0.4873047,0.1044922c-0.1201172,0.8398438-0.2685547,1.6796875-0.4453125,2.5141602
			c0.0758133,1.7767334,1.44841,2.7085037,2.390625,2.4702148c1.1904297-0.2983398,2.1640625-2.074707,2.4472656-3.1816406
			c0.531292-2.0668564,1.5275497-3.988472-0.3378906-5.3164063c-0.7412109-0.5268555-1.6474609-0.7861328-2.5175781-0.9873047
			c-3.1923828-0.7416992-6.5917969-0.8520508-9.8310547-0.3227539c-1.1894531,0.1953125-2.7089844,0.5292969-3.8994141,1.3896484
			c-2.1328125,1.5410156-2.7314453,4.9980469-2.8896484,6.4130859c-0.0917969,0.8198242,0.0283203,1.4892578,0.3564453,1.9902344
			c0.3837891,0.5839844,1.1103516,0.8999023,1.7001953,0.7314453c0.5322266-0.152832,0.8730469-0.6162109,1.1279297-1.1835938
			c0.3843536-1.6953659,1.3874855-3.9148026,1.8808594-5.4360352c0.1055679-0.3143616,0.576931-0.1596527,0.4765625,0.1542969
			c-0.4038162,1.2426605-1.2084236,3.4717102-1.5976563,4.6787109
			C37.9683952,80.1124954,37.7862358,80.4681091,37.7096062,80.9098587z M53.823864,77.8117142h0.0058594H53.823864z" class="color000000 svgShape"/></g></svg>